<svg width="336" height="72" viewBox="0 0 336 72" fill="none" xmlns="http://www.w3.org/2000/svg">
<mask id="mask0_339_30176" style="mask-type:alpha" maskUnits="userSpaceOnUse" x="0" y="0" width="336" height="72">
<path d="M0 20C0 8.95431 8.95431 0 20 0H316C327.046 0 336 8.95431 336 20V72H0V20Z" fill="#D9D9D9"/>
</mask>
<g mask="url(#mask0_339_30176)">
<rect x="-550" width="1440" height="320" fill="#4285F4" fill-opacity="0.04"/>
<g opacity="0.4">
<path d="M293.362 6.72684C293.362 5.77036 292.586 4.98842 291.637 4.98842C290.68 4.98842 289.904 5.77036 289.904 6.72684C289.904 7.68332 290.68 8.46526 291.637 8.46526C292.586 8.46526 293.362 7.68332 293.362 6.72684Z" fill="#4285F4"/>
<path d="M314.973 19.7615C314.973 18.807 314.196 18.0266 313.245 18.0266C312.286 18.0266 311.516 18.807 311.516 19.7615C311.516 20.7231 312.286 21.5034 313.245 21.5034C314.196 21.5034 314.973 20.7231 314.973 19.7615Z" fill="#4285F4"/>
<path d="M335.72 6.72684C335.72 5.77036 334.942 4.98842 333.991 4.98842C333.032 4.98842 332.262 5.77036 332.262 6.72684C332.262 7.68332 333.032 8.46526 333.991 8.46526C334.942 8.46526 335.72 7.68332 335.72 6.72684Z" fill="#4285F4"/>
<path d="M335.72 31.9337C335.72 30.9703 334.942 30.1953 333.991 30.1953C333.032 30.1953 332.262 30.9703 332.262 31.9337C332.262 32.8902 333.032 33.6721 333.991 33.6721C334.942 33.6721 335.72 32.8902 335.72 31.9337Z" fill="#4285F4"/>
<path d="M139.487 71.0515C139.487 70.09 138.716 69.3096 137.758 69.3096C136.807 69.3096 136.029 70.09 136.029 71.0515C136.029 72.0061 136.807 72.7865 137.758 72.7865C138.716 72.7865 139.487 72.0061 139.487 71.0515Z" fill="#4285F4"/>
<path d="M161.964 58.0098C161.964 57.0534 161.193 56.2714 160.235 56.2714C159.284 56.2714 158.506 57.0534 158.506 58.0098C158.506 58.9733 159.284 59.7483 160.235 59.7483C161.193 59.7483 161.964 58.9733 161.964 58.0098Z" fill="#4285F4"/>
<path d="M182.712 44.9719C182.712 44.0154 181.936 43.2335 180.979 43.2335C180.03 43.2335 179.254 44.0154 179.254 44.9719C179.254 45.9284 180.03 46.7103 180.979 46.7103C181.936 46.7103 182.712 45.9284 182.712 44.9719Z" fill="#4285F4"/>
<path d="M204.321 31.9337C204.321 30.9703 203.543 30.1953 202.592 30.1953C201.634 30.1953 200.863 30.9703 200.863 31.9337C200.863 32.8902 201.634 33.6721 202.592 33.6721C203.543 33.6721 204.321 32.8902 204.321 31.9337Z" fill="#4285F4"/>
<path d="M227.663 19.7615C227.663 18.807 226.892 18.0266 225.934 18.0266C224.983 18.0266 224.205 18.807 224.205 19.7615C224.205 20.7231 224.983 21.5034 225.934 21.5034C226.892 21.5034 227.663 20.7231 227.663 19.7615Z" fill="#4285F4"/>
<path d="M248.409 6.72684C248.409 5.77036 247.638 4.98842 246.68 4.98842C245.729 4.98842 244.951 5.77036 244.951 6.72684C244.951 7.68332 245.729 8.46526 246.68 8.46526C247.638 8.46526 248.409 7.68332 248.409 6.72684Z" fill="#4285F4"/>
<path d="M182.712 71.0515C182.712 70.09 181.936 69.3096 180.979 69.3096C180.03 69.3096 179.254 70.09 179.254 71.0515C179.254 72.0061 180.03 72.7865 180.979 72.7865C181.936 72.7865 182.712 72.0061 182.712 71.0515Z" fill="#4285F4"/>
<path d="M204.321 58.0098C204.321 57.0534 203.543 56.2714 202.592 56.2714C201.634 56.2714 200.863 57.0534 200.863 58.0098C200.863 58.9733 201.634 59.7483 202.592 59.7483C203.543 59.7483 204.321 58.9733 204.321 58.0098Z" fill="#4285F4"/>
<path d="M227.663 44.9719C227.663 44.0154 226.892 43.2335 225.934 43.2335C224.983 43.2335 224.205 44.0154 224.205 44.9719C224.205 45.9284 224.983 46.7103 225.934 46.7103C226.892 46.7103 227.663 45.9284 227.663 44.9719Z" fill="#4285F4"/>
<path d="M248.409 31.9337C248.409 30.9703 247.638 30.1953 246.68 30.1953C245.729 30.1953 244.951 30.9703 244.951 31.9337C244.951 32.8902 245.729 33.6721 246.68 33.6721C247.638 33.6721 248.409 32.8902 248.409 31.9337Z" fill="#4285F4"/>
<path d="M270.888 19.7615C270.888 18.807 270.117 18.0266 269.159 18.0266C268.207 18.0266 267.43 18.807 267.43 19.7615C267.43 20.7231 268.207 21.5034 269.159 21.5034C270.117 21.5034 270.888 20.7231 270.888 19.7615Z" fill="#4285F4"/>
<path d="M227.663 71.0515C227.663 70.09 226.892 69.3096 225.934 69.3096C224.983 69.3096 224.205 70.09 224.205 71.0515C224.205 72.0061 224.983 72.7865 225.934 72.7865C226.892 72.7865 227.663 72.0061 227.663 71.0515Z" fill="#4285F4"/>
<path d="M248.409 58.0098C248.409 57.0534 247.638 56.2714 246.68 56.2714C245.722 56.2714 244.951 57.0534 244.951 58.0098C244.951 58.9733 245.722 59.7483 246.68 59.7483C247.638 59.7483 248.409 58.9733 248.409 58.0098Z" fill="#4285F4"/>
<path d="M270.888 44.9719C270.888 44.0154 270.117 43.2335 269.159 43.2335C268.207 43.2335 267.43 44.0154 267.43 44.9719C267.43 45.9284 268.207 46.7103 269.159 46.7103C270.117 46.7103 270.888 45.9284 270.888 44.9719Z" fill="#4285F4"/>
<path d="M293.362 31.9337C293.362 30.9703 292.586 30.1953 291.637 30.1953C290.68 30.1953 289.904 30.9703 289.904 31.9337C289.904 32.8902 290.68 33.6721 291.637 33.6721C292.586 33.6721 293.362 32.8902 293.362 31.9337Z" fill="#4285F4"/>
<path d="M270.888 71.0515C270.888 70.09 270.117 69.3096 269.159 69.3096C268.207 69.3096 267.43 70.09 267.43 71.0515C267.43 72.0061 268.207 72.7865 269.159 72.7865C270.117 72.7865 270.888 72.0061 270.888 71.0515Z" fill="#4285F4"/>
<path d="M293.362 58.0098C293.362 57.0534 292.586 56.2714 291.637 56.2714C290.68 56.2714 289.904 57.0534 289.904 58.0098C289.904 58.9733 290.68 59.7483 291.637 59.7483C292.586 59.7483 293.362 58.9733 293.362 58.0098Z" fill="#4285F4"/>
<path d="M314.973 44.9719C314.973 44.0154 314.196 43.2335 313.245 43.2335C312.286 43.2335 311.516 44.0154 311.516 44.9719C311.516 45.9284 312.286 46.7103 313.245 46.7103C314.196 46.7103 314.973 45.9284 314.973 44.9719Z" fill="#4285F4"/>
<path d="M314.973 71.0515C314.973 70.09 314.196 69.3096 313.245 69.3096C312.286 69.3096 311.516 70.09 311.516 71.0515C311.516 72.0061 312.286 72.7865 313.245 72.7865C314.196 72.7865 314.973 72.0061 314.973 71.0515Z" fill="#4285F4"/>
<path d="M335.72 58.0098C335.72 57.0534 334.942 56.2714 333.991 56.2714C333.032 56.2714 332.262 57.0534 332.262 58.0098C332.262 58.9733 333.032 59.7483 333.991 59.7483C334.942 59.7483 335.72 58.9733 335.72 58.0098Z" fill="#4285F4"/>
<path d="M7.22349 19.765C7.22349 18.8085 6.44582 18.0266 5.49456 18.0266C4.5433 18.0266 3.76562 18.8085 3.76562 19.765C3.76562 20.7285 4.5433 21.5034 5.49456 21.5034C6.44582 21.5034 7.22349 20.7285 7.22349 19.765Z" fill="#4285F4"/>
<path d="M29.7001 6.72684C29.7001 5.77036 28.9293 4.98842 27.9711 4.98842C27.0199 4.98842 26.2422 5.77036 26.2422 6.72684C26.2422 7.68332 27.0199 8.46526 27.9711 8.46526C28.9293 8.46526 29.7001 7.68332 29.7001 6.72684Z" fill="#4285F4"/>
<path d="M7.22349 44.9719C7.22349 44.0154 6.44582 43.2335 5.49456 43.2335C4.5433 43.2335 3.76562 44.0154 3.76562 44.9719C3.76562 45.9284 4.5433 46.7103 5.49456 46.7103C6.44582 46.7103 7.22349 45.9284 7.22349 44.9719Z" fill="#4285F4"/>
<path d="M29.7001 31.9337C29.7001 30.9703 28.9293 30.1953 27.9711 30.1953C27.0199 30.1953 26.2422 30.9703 26.2422 31.9337C26.2422 32.8902 27.0199 33.6721 27.9711 33.6721C28.9293 33.6721 29.7001 32.8902 29.7001 31.9337Z" fill="#4285F4"/>
<path d="M50.4481 19.765C50.4481 18.8085 49.6774 18.0266 48.7192 18.0266C47.7679 18.0266 46.9902 18.8085 46.9902 19.765C46.9902 20.7285 47.7679 21.5034 48.7192 21.5034C49.6774 21.5034 50.4481 20.7285 50.4481 19.765Z" fill="#4285F4"/>
<path d="M72.0594 6.72684C72.0594 5.77036 71.2833 4.98842 70.334 4.98842C69.3777 4.98842 68.6016 5.77036 68.6016 6.72684C68.6016 7.68332 69.3777 8.46526 70.334 8.46526C71.2833 8.46526 72.0594 7.68332 72.0594 6.72684Z" fill="#4285F4"/>
<path d="M29.7001 58.0098C29.7001 57.0534 28.9293 56.2714 27.9711 56.2714C27.0199 56.2714 26.2422 57.0534 26.2422 58.0098C26.2422 58.9733 27.0199 59.7483 27.9711 59.7483C28.9293 59.7483 29.7001 58.9733 29.7001 58.0098Z" fill="#4285F4"/>
<path d="M50.4481 44.9719C50.4481 44.0154 49.6774 43.2335 48.7192 43.2335C47.7679 43.2335 46.9902 44.0154 46.9902 44.9719C46.9902 45.9284 47.7679 46.7103 48.7192 46.7103C49.6774 46.7103 50.4481 45.9284 50.4481 44.9719Z" fill="#4285F4"/>
<path d="M72.0594 31.9337C72.0594 30.9703 71.2833 30.1953 70.334 30.1953C69.3777 30.1953 68.6016 30.9703 68.6016 31.9337C68.6016 32.8902 69.3777 33.6721 70.334 33.6721C71.2833 33.6721 72.0594 32.8902 72.0594 31.9337Z" fill="#4285F4"/>
<path d="M94.536 19.765C94.536 18.8085 93.7583 18.0266 92.8071 18.0266C91.8489 18.0266 91.0781 18.8085 91.0781 19.765C91.0781 20.7285 91.8489 21.5034 92.8071 21.5034C93.7583 21.5034 94.536 20.7285 94.536 19.765Z" fill="#4285F4"/>
<path d="M117.011 6.72684C117.011 5.77036 116.233 4.98842 115.282 4.98842C114.323 4.98842 113.553 5.77036 113.553 6.72684C113.553 7.68332 114.323 8.46526 115.282 8.46526C116.233 8.46526 117.011 7.68332 117.011 6.72684Z" fill="#4285F4"/>
<path d="M50.4481 71.0518C50.4481 70.0902 49.6774 69.3099 48.7192 69.3099C47.7679 69.3099 46.9902 70.0902 46.9902 71.0518C46.9902 72.0063 47.7679 72.7867 48.7192 72.7867C49.6774 72.7867 50.4481 72.0063 50.4481 71.0518Z" fill="#4285F4"/>
<path d="M72.0594 58.0098C72.0594 57.0534 71.2833 56.2714 70.334 56.2714C69.3777 56.2714 68.6016 57.0534 68.6016 58.0098C68.6016 58.9733 69.3777 59.7483 70.334 59.7483C71.2833 59.7483 72.0594 58.9733 72.0594 58.0098Z" fill="#4285F4"/>
<path d="M94.536 44.9719C94.536 44.0154 93.7583 43.2335 92.8071 43.2335C91.8489 43.2335 91.0781 44.0154 91.0781 44.9719C91.0781 45.9284 91.8489 46.7103 92.8071 46.7103C93.7583 46.7103 94.536 45.9284 94.536 44.9719Z" fill="#4285F4"/>
<path d="M117.011 31.9337C117.011 30.9703 116.233 30.1953 115.282 30.1953C114.323 30.1953 113.553 30.9703 113.553 31.9337C113.553 32.8902 114.323 33.6721 115.282 33.6721C116.233 33.6721 117.011 32.8902 117.011 31.9337Z" fill="#4285F4"/>
<path d="M139.487 19.765C139.487 18.8085 138.716 18.0266 137.758 18.0266C136.807 18.0266 136.029 18.8085 136.029 19.765C136.029 20.7285 136.807 21.5034 137.758 21.5034C138.716 21.5034 139.487 20.7285 139.487 19.765Z" fill="#4285F4"/>
<path d="M161.964 6.72684C161.964 5.77036 161.193 4.98842 160.235 4.98842C159.284 4.98842 158.506 5.77036 158.506 6.72684C158.506 7.68332 159.284 8.46526 160.235 8.46526C161.193 8.46526 161.964 7.68332 161.964 6.72684Z" fill="#4285F4"/>
<path d="M94.536 71.0515C94.536 70.09 93.7583 69.3096 92.8071 69.3096C91.8489 69.3096 91.0781 70.09 91.0781 71.0515C91.0781 72.0061 91.8489 72.7865 92.8071 72.7865C93.7583 72.7865 94.536 72.0061 94.536 71.0515Z" fill="#4285F4"/>
<path d="M117.011 58.0098C117.011 57.0534 116.233 56.2714 115.282 56.2714C114.323 56.2714 113.553 57.0534 113.553 58.0098C113.553 58.9733 114.323 59.7483 115.282 59.7483C116.233 59.7483 117.011 58.9733 117.011 58.0098Z" fill="#4285F4"/>
<path d="M139.487 44.9719C139.487 44.0154 138.716 43.2335 137.758 43.2335C136.807 43.2335 136.029 44.0154 136.029 44.9719C136.029 45.9284 136.807 46.7103 137.758 46.7103C138.716 46.7103 139.487 45.9284 139.487 44.9719Z" fill="#4285F4"/>
<path d="M161.964 31.9337C161.964 30.9703 161.193 30.1953 160.235 30.1953C159.284 30.1953 158.506 30.9703 158.506 31.9337C158.506 32.8902 159.284 33.6721 160.235 33.6721C161.193 33.6721 161.964 32.8902 161.964 31.9337Z" fill="#4285F4"/>
<path d="M182.712 19.765C182.712 18.8085 181.936 18.0266 180.979 18.0266C180.03 18.0266 179.254 18.8085 179.254 19.765C179.254 20.7285 180.03 21.5034 180.979 21.5034C181.936 21.5034 182.712 20.7285 182.712 19.765Z" fill="#4285F4"/>
<path d="M204.323 6.72684C204.323 5.77036 203.545 4.98842 202.594 4.98842C201.636 4.98842 200.865 5.77036 200.865 6.72684C200.865 7.68332 201.636 8.46526 202.594 8.46526C203.545 8.46526 204.323 7.68332 204.323 6.72684Z" fill="#4285F4"/>
<path d="M7.22349 71.0515C7.22349 70.09 6.44582 69.3096 5.49456 69.3096C4.5433 69.3096 3.76562 70.09 3.76562 71.0515C3.76562 72.0061 4.5433 72.7865 5.49456 72.7865C6.44582 72.7865 7.22349 72.0061 7.22349 71.0515Z" fill="#4285F4"/>
</g>
</g>
</svg>
