<svg width="522" height="239" viewBox="0 0 522 239" fill="none" xmlns="http://www.w3.org/2000/svg">
<rect x="47.3999" y="238" width="47.4" height="47.4" transform="rotate(-180 47.3999 238)" fill="#4285F4" stroke="#DFDFDF" stroke-width="0.6"/>
<rect x="142.2" y="238" width="47.4" height="47.4" transform="rotate(-180 142.2 238)" fill="#FBBC04" fill-opacity="0.1" stroke="#DFDFDF" stroke-width="0.6"/>
<rect x="379.2" y="238" width="47.4" height="47.4" transform="rotate(-180 379.2 238)" fill="#EA4335" stroke="#DFDFDF" stroke-width="0.6"/>
<rect x="237" y="238" width="47.4" height="47.4" transform="rotate(-180 237 238)" fill="#FBBC04" fill-opacity="0.1" stroke="#DFDFDF" stroke-width="0.6"/>
<rect x="474" y="238" width="47.4" height="47.4" transform="rotate(-180 474 238)" stroke="#DFDFDF" stroke-width="0.6"/>
<rect x="47.3999" y="190.6" width="47.4" height="47.4" transform="rotate(-180 47.3999 190.6)" fill="#EA4335" fill-opacity="0.1" stroke="#DFDFDF" stroke-width="0.6"/>
<rect x="142.2" y="190.6" width="47.4" height="47.4" transform="rotate(-180 142.2 190.6)" stroke="#DFDFDF" stroke-width="0.6"/>
<rect x="379.2" y="190.6" width="47.4" height="47.4" transform="rotate(-180 379.2 190.6)" fill="#EA4335" fill-opacity="0.1" stroke="#DFDFDF" stroke-width="0.6"/>
<rect x="237" y="190.6" width="47.4" height="47.4" transform="rotate(-180 237 190.6)" fill="#4285F4" fill-opacity="0.1" stroke="#DFDFDF" stroke-width="0.6"/>
<rect x="94.7999" y="190.6" width="47.4" height="47.4" transform="rotate(-180 94.7999 190.6)" fill="#4285F4" fill-opacity="0.1" stroke="#DFDFDF" stroke-width="0.6"/>
<rect x="331.8" y="190.6" width="47.4" height="47.4" transform="rotate(-180 331.8 190.6)" stroke="#DFDFDF" stroke-width="0.6"/>
<rect x="189.6" y="190.6" width="47.4" height="47.4" transform="rotate(-180 189.6 190.6)" stroke="#DFDFDF" stroke-width="0.6"/>
<rect x="426.6" y="190.6" width="47.4" height="47.4" transform="rotate(-180 426.6 190.6)" stroke="#DFDFDF" stroke-width="0.6"/>
<rect x="284.4" y="190.6" width="47.4" height="47.4" transform="rotate(-180 284.4 190.6)" fill="#4285F4" stroke="#DFDFDF" stroke-width="0.6"/>
<rect x="94.7999" y="238" width="47.4" height="47.4" transform="rotate(-180 94.7999 238)" stroke="#DFDFDF" stroke-width="0.6"/>
<rect x="331.8" y="238" width="47.4" height="47.4" transform="rotate(-180 331.8 238)" fill="#EA4335" fill-opacity="0.1" stroke="#DFDFDF" stroke-width="0.6"/>
<rect x="189.6" y="238" width="47.4" height="47.4" transform="rotate(-180 189.6 238)" fill="#FBBC04" stroke="#DFDFDF" stroke-width="0.6"/>
<rect x="426.6" y="238" width="47.4" height="47.4" transform="rotate(-180 426.6 238)" stroke="#DFDFDF" stroke-width="0.6"/>
<rect x="284.4" y="238" width="47.4" height="47.4" transform="rotate(-180 284.4 238)" stroke="#DFDFDF" stroke-width="0.6"/>
<rect x="521.4" y="238" width="47.4" height="47.4" transform="rotate(-180 521.4 238)" stroke="#DFDFDF" stroke-width="0.6"/>
<rect x="47.3999" y="143.2" width="47.4" height="47.4" transform="rotate(-180 47.3999 143.2)" fill="#EA4335" stroke="#DFDFDF" stroke-width="0.6"/>
<rect x="142.2" y="143.2" width="47.4" height="47.4" transform="rotate(-180 142.2 143.2)" fill="#34A853" stroke="#DFDFDF" stroke-width="0.6"/>
<rect x="237" y="143.2" width="47.4" height="47.4" transform="rotate(-180 237 143.2)" stroke="#DFDFDF" stroke-width="0.6"/>
<rect x="47.3999" y="95.7998" width="47.4" height="47.4" transform="rotate(-180 47.3999 95.7998)" fill="#EA4335" fill-opacity="0.1" stroke="#DFDFDF" stroke-width="0.6"/>
<rect x="47.3999" y="48.4004" width="47.4" height="47.4" transform="rotate(-180 47.3999 48.4004)" stroke="#DFDFDF" stroke-width="0.6"/>
<rect x="142.2" y="95.7998" width="47.4" height="47.4" transform="rotate(-180 142.2 95.7998)" fill="#34A853" fill-opacity="0.1" stroke="#DFDFDF" stroke-width="0.6"/>
<rect x="94.7999" y="95.7998" width="47.4" height="47.4" transform="rotate(-180 94.7999 95.7998)" stroke="#DFDFDF" stroke-width="0.6"/>
<rect x="94.7999" y="143.2" width="47.4" height="47.4" transform="rotate(-180 94.7999 143.2)" stroke="#DFDFDF" stroke-width="0.6"/>
<rect x="189.6" y="143.2" width="47.4" height="47.4" transform="rotate(-180 189.6 143.2)" stroke="#DFDFDF" stroke-width="0.6"/>
<rect x="284.4" y="143.2" width="47.4" height="47.4" transform="rotate(-180 284.4 143.2)" stroke="#DFDFDF" stroke-width="0.6"/>
</svg>
