<svg width="242" height="264" viewBox="0 0 242 264" fill="none" xmlns="http://www.w3.org/2000/svg">
<path d="M101.64 6.16C103.4 6.16 105.16 7.04 106.48 8.36C107.36 9.68 108.24 11 108.24 13.2C108.24 14.96 107.36 16.72 106.48 17.6C105.16 18.92 103.4 19.8 101.64 19.8C99.88 19.8 98.12 18.92 96.8 17.6C95.48 16.72 95.04 14.96 95.04 13.2C95.04 11 95.48 9.68 96.8 8.36C98.12 7.04 99.88 6.16 101.64 6.16ZM207.68 91.96C209.88 91.96 211.2 92.84 212.52 94.16C213.84 95.48 214.72 96.8 214.72 98.56C214.72 100.76 213.84 102.08 212.52 103.4C211.2 104.72 209.88 105.6 207.68 105.6C205.92 105.6 204.16 104.72 203.28 103.4C201.96 102.08 201.08 100.76 201.08 98.56C201.08 96.8 201.96 95.48 203.28 94.16C204.16 92.84 205.92 91.96 207.68 91.96ZM216.92 89.32C214.72 87.12 211.64 85.8 207.68 85.8C204.16 85.8 201.08 87.12 198.44 89.32C196.24 91.96 194.92 95.04 194.92 98.56C194.92 102.52 196.24 105.6 198.44 108.24C200.2 109.56 202.4 110.88 204.6 111.32L204.6 128.48L145.64 128.48L145.64 72.6C145.64 65.56 148.28 59.84 152.68 55.44C157.08 51.04 162.8 48.4 169.4 48.4L170.72 48.4C171.16 50.6 172.48 52.8 173.8 54.56C176.44 56.76 179.52 58.08 183.04 58.08C187 58.08 190.08 56.76 192.72 54.56C194.92 51.92 196.24 48.84 196.24 44.88C196.24 41.36 194.92 38.28 192.72 35.64C190.08 33.44 187 32.12 183.04 32.12C179.52 32.12 176.44 33.44 173.8 35.64C172.48 37.4 171.16 39.6 170.72 41.8L169.4 41.8C168.52 41.8 167.2 41.8 166.32 42.24L166.32 25.96C168.52 25.08 170.72 23.76 172.48 22.44C174.68 19.8 176 16.72 176 13.2C176 9.24 174.68 6.16 172.48 3.95998C169.84 1.32 166.76 -7.28931e-06 162.8 -7.11621e-06C159.28 -6.96235e-06 156.2 1.32 153.56 3.95998C151.36 6.16 150.04 9.24 150.04 13.2C150.04 16.72 151.36 19.8 153.56 22.44C155.32 23.76 157.52 25.08 159.72 25.96L159.72 43.56C155.32 44.88 151.36 47.52 147.84 51.04C142.56 56.32 139.04 63.8 139.04 72.6L139.04 128.48L84.04 128.48L84.04 72.6C84.04 65.56 86.68 59.84 91.08 55.44C95.48 51.04 101.64 48.4 108.24 48.4L109.12 48.4C109.56 50.6 110.88 52.8 112.64 54.56C114.84 56.76 118.36 58.08 121.88 58.08C125.4 58.08 128.92 56.76 131.12 54.56C133.32 51.92 135.08 48.84 135.08 44.88C135.08 41.36 133.32 38.28 131.12 35.64C128.92 33.44 125.4 32.12 121.88 32.12C118.36 32.12 114.84 33.44 112.64 35.64C110.88 37.4 109.56 39.6 109.12 41.8L108.24 41.8C106.92 41.8 106.04 41.8 104.72 42.24L104.72 25.96C107.36 25.08 109.12 23.76 110.88 22.44C113.08 19.8 114.84 16.72 114.84 13.2C114.84 9.24 113.08 6.16 110.88 3.95999C108.68 1.32 105.16 -4.59669e-06 101.64 -4.44283e-06C98.12 -4.28896e-06 94.6 1.32 92.4 3.95999C89.76 6.16 88.44 9.24 88.44 13.2C88.44 16.72 89.76 19.8 92.4 22.44C94.16 23.76 95.92 25.08 98.56 25.96L98.56 43.56C93.72 44.88 89.76 47.52 86.68 51.04C80.96 56.32 77.44 63.8 77.44 72.6L77.44 128.48L40.48 128.48L40.48 111.32C42.68 110.88 44.88 109.56 46.64 108.24C48.84 105.6 50.16 102.52 50.16 98.56C50.16 95.04 48.84 91.96 46.64 89.32C44 87.12 40.92 85.8 36.96 85.8C33.44 85.8 30.36 87.12 27.72 89.32C25.52 91.96 24.2 95.04 24.2 98.56C24.2 102.52 25.52 105.6 27.72 108.24C29.48 109.56 31.68 110.88 33.88 111.32L33.88 128.48L25.96 128.48C25.52 126.28 24.2 124.08 22.44 122.76C20.24 120.12 16.72 118.8 13.2 118.8C9.67999 118.8 6.15999 120.12 3.95999 122.76C1.75999 124.96 -5.943e-06 128.04 -5.7699e-06 132C-5.61604e-06 135.52 1.75999 138.6 3.96 141.24C6.16 143.44 9.68 144.76 13.2 144.76C16.72 144.76 20.24 143.44 22.44 141.24C24.2 139.48 25.52 137.28 25.96 135.08L50.16 135.08L50.16 152.24C47.96 152.68 45.76 154 44 155.76C41.8 157.96 40.48 161.48 40.48 165C40.48 168.52 41.8 172.04 44 174.24C46.64 176.44 49.72 178.2 53.68 178.2C57.2 178.2 60.28 176.44 62.92 174.24C65.12 172.04 66.44 168.52 66.44 165C66.44 161.48 65.12 157.96 62.92 155.76C61.16 154 58.96 152.68 56.76 152.24L56.76 135.08L77.44 135.08L77.44 191.4C77.44 199.76 80.96 207.24 86.68 212.96C89.76 216.04 93.72 218.68 98.56 220.44L98.56 238.04C95.92 238.48 94.16 239.8 92.4 241.56C89.76 243.76 88.44 247.28 88.44 250.8C88.44 254.32 89.76 257.4 92.4 260.04C94.6 262.24 98.12 264 101.64 264C105.16 264 108.68 262.24 110.88 260.04C113.08 257.4 114.84 254.32 114.84 250.8C114.84 247.28 113.08 243.76 110.88 241.56C109.12 239.8 107.36 238.48 104.72 238.04L104.72 221.76C106.04 221.76 106.92 221.76 108.24 221.76L109.12 221.76C109.56 223.96 110.88 226.16 112.64 227.92C114.84 230.12 118.36 231.88 121.88 231.88C125.4 231.88 128.92 230.12 131.12 227.92C133.32 225.72 135.08 222.2 135.08 218.68C135.08 215.16 133.32 211.64 131.12 209.44C128.92 206.8 125.4 205.48 121.88 205.48C118.36 205.48 114.84 206.8 112.64 209.44C110.88 211.2 109.56 212.96 109.12 215.6L108.24 215.6C101.64 215.6 95.48 212.52 91.08 208.12C86.68 204.16 84.04 198 84.04 191.4L84.04 135.08L139.04 135.08L139.04 191.4C139.04 199.76 142.56 207.24 147.84 212.96C151.36 216.04 155.32 218.68 159.72 220.44L159.72 238.04C157.52 238.48 155.32 239.8 153.56 241.56C151.36 243.76 150.04 247.28 150.04 250.8C150.04 254.32 151.36 257.4 153.56 260.04C156.2 262.24 159.28 264 162.8 264C166.76 264 169.84 262.24 172.48 260.04C174.68 257.4 176 254.32 176 250.8C176 247.28 174.68 243.76 172.48 241.56C170.72 239.8 168.52 238.48 166.32 238.04L166.32 221.76C167.2 221.76 168.52 221.76 169.4 221.76L170.72 221.76C171.16 223.96 172.48 226.16 173.8 227.92C176.44 230.12 179.52 231.88 183.04 231.88C187 231.88 190.08 230.12 192.72 227.92C194.92 225.72 196.24 222.2 196.24 218.68C196.24 215.16 194.92 211.64 192.72 209.44C190.08 206.8 187 205.48 183.04 205.48C179.52 205.48 176.44 206.8 173.8 209.44C172.48 211.2 171.16 212.96 170.72 215.6L169.4 215.6C162.8 215.6 157.08 212.52 152.68 208.12C148.28 204.16 145.64 198 145.64 191.4L145.64 135.08L191.4 135.08L191.4 152.24C189.2 152.68 187 154 185.24 155.76C183.04 157.96 181.72 161.48 181.72 165C181.72 168.52 183.04 172.04 185.24 174.24C187.88 176.44 190.96 178.2 194.48 178.2C198.44 178.2 201.52 176.44 204.16 174.24C206.36 172.04 207.68 168.52 207.68 165C207.68 161.48 206.36 157.96 204.16 155.76C202.4 154 200.2 152.68 198 152.24L198 135.08L216.48 135.08C216.92 137.28 218.24 139.48 219.56 141.24C222.2 143.44 225.28 144.76 229.24 144.76C232.76 144.76 235.84 143.44 238.48 141.24C240.68 138.6 242 135.52 242 132C242 128.04 240.68 124.96 238.48 122.76C235.84 120.12 232.76 118.8 229.24 118.8C225.28 118.8 222.2 120.12 219.56 122.76C218.24 124.08 216.92 126.28 216.48 128.48L211.2 128.48L211.2 111.32C213.4 110.88 215.6 109.56 216.92 108.24C219.56 105.6 220.88 102.52 220.88 98.56C220.88 95.04 219.56 91.96 216.92 89.32ZM199.32 169.84C198 170.72 196.68 171.6 194.48 171.6C192.72 171.6 190.96 170.72 190.08 169.84C188.76 168.52 187.88 166.76 187.88 165C187.88 163.24 188.76 161.48 190.08 160.16C190.96 158.84 192.72 158.4 194.48 158.4C196.68 158.4 198 158.84 199.32 160.16C200.64 161.48 201.52 163.24 201.52 165C201.52 166.76 200.64 168.52 199.32 169.84ZM162.8 6.16C165 6.16 166.32 7.04 167.64 8.35999C168.96 9.68 169.84 11 169.84 13.2C169.84 14.96 168.96 16.72 167.64 17.6C166.32 18.92 165 19.8 162.8 19.8C161.04 19.8 159.72 18.92 158.4 17.6C157.08 16.72 156.2 14.96 156.2 13.2C156.2 11 157.08 9.68 158.4 8.35999C159.72 7.04 161.04 6.16 162.8 6.16ZM167.64 255.2C166.32 256.52 165 257.4 162.8 257.4C161.04 257.4 159.72 256.52 158.4 255.2C157.08 254.32 156.2 252.56 156.2 250.8C156.2 249.04 157.08 247.28 158.4 245.96C159.72 244.64 161.04 244.2 162.8 244.2C165 244.2 166.32 244.64 167.64 245.96C168.96 247.28 169.84 249.04 169.84 250.8C169.84 252.56 168.96 254.32 167.64 255.2ZM178.64 49.72C177.32 48.4 176.44 47.08 176.44 44.88C176.44 43.12 177.32 41.8 178.64 40.48C179.96 39.16 181.28 38.28 183.04 38.28C185.24 38.28 186.56 39.16 187.88 40.48C189.2 41.8 190.08 43.12 190.08 44.88C190.08 47.08 189.2 48.4 187.88 49.72C186.56 51.04 185.24 51.92 183.04 51.92C181.28 51.92 179.96 51.04 178.64 49.72ZM178.64 223.52C177.32 222.2 176.44 220.44 176.44 218.68C176.44 216.92 177.32 215.16 178.64 213.84C179.96 212.52 181.28 212.08 183.04 212.08C185.24 212.08 186.56 212.52 187.88 213.84C189.2 215.16 190.08 216.92 190.08 218.68C190.08 220.44 189.2 222.2 187.88 223.52C186.56 224.4 185.24 225.28 183.04 225.28C181.28 225.28 179.96 224.4 178.64 223.52ZM8.36 136.4C7.48 135.52 6.6 133.76 6.6 132C6.59999 129.8 7.48 128.48 8.35999 127.16C9.68 125.84 11.44 125.4 13.2 125.4C14.96 125.4 16.72 125.84 18.04 127.16C19.36 128.48 19.8 129.8 19.8 132C19.8 133.76 19.36 135.52 18.04 136.4C16.72 137.72 14.96 138.6 13.2 138.6C11.44 138.6 9.68 137.72 8.36 136.4ZM36.96 91.96C39.16 91.96 40.48 92.84 41.8 94.16C43.12 95.48 44 96.8 44 98.56C44 100.76 43.12 102.08 41.8 103.4C40.48 104.72 39.16 105.6 36.96 105.6C35.2 105.6 33.44 104.72 32.56 103.4C31.24 102.08 30.36 100.76 30.36 98.56C30.36 96.8 31.24 95.48 32.56 94.16C33.44 92.84 35.2 91.96 36.96 91.96ZM58.08 169.84C57.2 170.72 55.44 171.6 53.68 171.6C51.48 171.6 50.16 170.72 48.84 169.84C47.52 168.52 46.64 166.76 46.64 165C46.64 163.24 47.52 161.48 48.84 160.16C50.16 158.84 51.48 158.4 53.68 158.4C55.44 158.4 57.2 158.84 58.08 160.16C59.4 161.48 60.28 163.24 60.28 165C60.28 166.76 59.4 168.52 58.08 169.84ZM106.48 255.2C105.16 256.52 103.4 257.4 101.64 257.4C99.88 257.4 98.12 256.52 96.8 255.2C95.48 254.32 95.04 252.56 95.04 250.8C95.04 249.04 95.48 247.28 96.8 245.96C98.12 244.64 99.88 244.2 101.64 244.2C103.4 244.2 105.16 244.64 106.48 245.96C107.36 247.28 108.24 249.04 108.24 250.8C108.24 252.56 107.36 254.32 106.48 255.2ZM117.04 49.72C115.72 48.4 115.28 47.08 115.28 44.88C115.28 43.12 115.72 41.8 117.04 40.48C118.36 39.16 120.12 38.28 121.88 38.28C123.64 38.28 125.4 39.16 126.72 40.48C127.6 41.8 128.48 43.12 128.48 44.88C128.48 47.08 127.6 48.4 126.72 49.72C125.4 51.04 123.64 51.92 121.88 51.92C120.12 51.92 118.36 51.04 117.04 49.72ZM117.04 223.52C115.72 222.2 115.28 220.44 115.28 218.68C115.28 216.92 115.72 215.16 117.04 213.84C118.36 212.52 120.12 212.08 121.88 212.08C123.64 212.08 125.4 212.52 126.72 213.84C127.6 215.16 128.48 216.92 128.48 218.68C128.48 220.44 127.6 222.2 126.72 223.52C125.4 224.4 123.64 225.28 121.88 225.28C120.12 225.28 118.36 224.4 117.04 223.52ZM224.4 136.4C223.08 135.52 222.2 133.76 222.2 132C222.2 129.8 223.08 128.48 224.4 127.16C225.72 125.84 227.04 125.4 229.24 125.4C231 125.4 232.76 125.84 233.64 127.16C234.96 128.48 235.84 129.8 235.84 132C235.84 133.76 234.96 135.52 233.64 136.4C232.76 137.72 231 138.6 229.24 138.6C227.04 138.6 225.72 137.72 224.4 136.4Z" fill="#168806"/>
</svg>
