<svg width="85" height="85" viewBox="0 0 85 85" fill="none" xmlns="http://www.w3.org/2000/svg">
<g filter="url(#filter0_d_285_437)">
<circle cx="42.25" cy="41.25" r="28.6875" fill="white"/>
</g>
<circle cx="42.0583" cy="41.059" r="25.8187" fill="white"/>
<path d="M30.9141 41.33L38.1786 37.2102C39.0003 36.744 39.6002 35.9756 39.8464 35.0738C40.0927 34.1721 39.9651 33.2109 39.4917 32.4018C39.0183 31.5927 38.238 31.002 37.3223 30.7595C36.4066 30.517 35.4305 30.6426 34.6089 31.1088L22.1035 38.2401L30.9141 41.33Z" fill="#EA4335"/>
<path d="M36.3932 51.9113C37.1793 51.9116 37.9435 51.6564 38.5672 51.1853C39.1909 50.7142 39.6392 50.0535 39.8427 49.3058C40.0461 48.5581 39.9932 47.7651 39.6922 47.0501C39.3912 46.335 38.859 45.7377 38.1781 45.351L25.6727 38.2084C24.8511 37.7422 23.875 37.6166 22.9593 37.8591C22.0436 38.1016 21.2633 38.6924 20.7899 39.5014C20.3165 40.3105 20.1889 41.2717 20.4352 42.1734C20.6814 43.0752 21.2813 43.8436 22.103 44.3098L34.6084 51.4411C35.1494 51.7534 35.7661 51.9159 36.3932 51.9113Z" fill="#4285F4"/>
<path d="M48.8756 51.9106C49.5024 51.9124 50.1184 51.7501 50.6605 51.4404L63.1659 44.309L54.4576 41.1855L47.0794 45.3838C46.4142 45.7781 45.8976 46.3752 45.6081 47.0846C45.3186 47.794 45.2718 48.5771 45.4749 49.3151C45.678 50.053 46.1199 50.7057 46.7335 51.174C47.3472 51.6424 48.0993 51.901 48.8756 51.9106Z" fill="#FBBC04"/>
<path d="M61.4151 44.8127C62.2001 44.8081 62.9618 44.5497 63.583 44.0771C64.2043 43.6046 64.6506 42.9442 64.8534 42.1974C65.0562 41.4506 65.0043 40.659 64.7055 39.9441C64.4068 39.2293 63.8778 38.6309 63.2 38.2411L50.6605 31.1097C50.2529 30.8555 49.7973 30.685 49.3211 30.6085C48.845 30.532 48.358 30.5511 47.8895 30.6645C47.4209 30.7779 46.9805 30.9834 46.5947 31.2687C46.2088 31.5539 45.8855 31.9129 45.644 32.3243C45.4026 32.7357 45.248 33.1908 45.1897 33.6624C45.1313 34.1341 45.1703 34.6125 45.3044 35.0689C45.4385 35.5253 45.6648 35.9503 45.9698 36.3184C46.2748 36.6866 46.6523 36.9902 47.0794 37.2111L59.5848 44.3425C60.1286 44.6483 60.7435 44.8103 61.3697 44.8127" fill="#34A853"/>
<defs>
<filter id="filter0_d_285_437" x="0.3625" y="0.6825" width="83.775" height="83.775" filterUnits="userSpaceOnUse" color-interpolation-filters="sRGB">
<feFlood flood-opacity="0" result="BackgroundImageFix"/>
<feColorMatrix in="SourceAlpha" type="matrix" values="0 0 0 0 0 0 0 0 0 0 0 0 0 0 0 0 0 0 127 0" result="hardAlpha"/>
<feOffset dy="1.32"/>
<feGaussianBlur stdDeviation="6.6"/>
<feColorMatrix type="matrix" values="0 0 0 0 0 0 0 0 0 0 0 0 0 0 0 0 0 0 0.1 0"/>
<feBlend mode="normal" in2="BackgroundImageFix" result="effect1_dropShadow_285_437"/>
<feBlend mode="normal" in="SourceGraphic" in2="effect1_dropShadow_285_437" result="shape"/>
</filter>
</defs>
</svg>
