<svg width="504" height="206" viewBox="0 0 504 206" fill="none" xmlns="http://www.w3.org/2000/svg">
<mask id="mask0_337_9947" style="mask-type:alpha" maskUnits="userSpaceOnUse" x="0" y="0" width="504" height="206">
<path d="M0 20C0 8.95431 8.95431 0 20 0H484C495.046 0 504 8.9543 504 20V206H0V20Z" fill="#D9D9D9"/>
</mask>
<g mask="url(#mask0_337_9947)">
<rect x="-466" y="13" width="1440" height="320" fill="#4285F4" fill-opacity="0.04"/>
<g opacity="0.4">
<path d="M4.2479 32.7615C4.2479 31.807 3.47179 31.0266 2.51551 31.0266C1.56615 31.0266 0.790039 31.807 0.790039 32.7615C0.790039 33.7231 1.56615 34.5034 2.51551 34.5034C3.47179 34.5034 4.2479 33.7231 4.2479 32.7615Z" fill="#4285F4"/>
<path d="M4.2479 57.9719C4.2479 57.0154 3.47179 56.2335 2.51551 56.2335C1.56615 56.2335 0.790039 57.0154 0.790039 57.9719C0.790039 58.9284 1.56615 59.7103 2.51551 59.7103C3.47179 59.7103 4.2479 58.9284 4.2479 57.9719Z" fill="#4285F4"/>
<path d="M4.2479 84.0515C4.2479 83.09 3.47179 82.3096 2.51551 82.3096C1.56615 82.3096 0.790039 83.09 0.790039 84.0515C0.790039 85.0061 1.56615 85.7865 2.51551 85.7865C3.47179 85.7865 4.2479 85.0061 4.2479 84.0515Z" fill="#4285F4"/>
<path d="M4.2479 109.255C4.2479 108.298 3.47179 107.517 2.51551 107.517C1.56615 107.517 0.790039 108.298 0.790039 109.255C0.790039 110.218 1.56615 110.993 2.51551 110.993C3.47179 110.993 4.2479 110.218 4.2479 109.255Z" fill="#4285F4"/>
<path d="M4.2479 135.331C4.2479 134.368 3.47179 133.593 2.51551 133.593C1.56615 133.593 0.790039 134.368 0.790039 135.331C0.790039 136.288 1.56615 137.069 2.51551 137.069C3.47179 137.069 4.2479 136.288 4.2479 135.331Z" fill="#4285F4"/>
<path d="M4.2479 160.538C4.2479 159.581 3.47179 158.8 2.51551 158.8C1.56615 158.8 0.790039 159.581 0.790039 160.538C0.790039 161.501 1.56615 162.276 2.51551 162.276C3.47179 162.276 4.2479 161.501 4.2479 160.538Z" fill="#4285F4"/>
<path d="M4.2479 185.745C4.2479 184.789 3.47179 184.007 2.51551 184.007C1.56615 184.007 0.790039 184.789 0.790039 185.745C0.790039 186.709 1.56615 187.483 2.51551 187.483C3.47179 187.483 4.2479 186.709 4.2479 185.745Z" fill="#4285F4"/>
<path d="M377.362 19.7268C377.362 18.7704 376.586 17.9884 375.637 17.9884C374.68 17.9884 373.904 18.7704 373.904 19.7268C373.904 20.6833 374.68 21.4653 375.637 21.4653C376.586 21.4653 377.362 20.6833 377.362 19.7268Z" fill="#4285F4"/>
<path d="M398.973 32.7615C398.973 31.807 398.196 31.0266 397.245 31.0266C396.286 31.0266 395.516 31.807 395.516 32.7615C395.516 33.7231 396.286 34.5034 397.245 34.5034C398.196 34.5034 398.973 33.7231 398.973 32.7615Z" fill="#4285F4"/>
<path d="M419.721 19.7268C419.721 18.7704 418.943 17.9884 417.992 17.9884C417.033 17.9884 416.263 18.7704 416.263 19.7268C416.263 20.6833 417.033 21.4653 417.992 21.4653C418.943 21.4653 419.721 20.6833 419.721 19.7268Z" fill="#4285F4"/>
<path d="M419.721 44.9337C419.721 43.9703 418.943 43.1953 417.992 43.1953C417.033 43.1953 416.263 43.9703 416.263 44.9337C416.263 45.8902 417.033 46.6721 417.992 46.6721C418.943 46.6721 419.721 45.8902 419.721 44.9337Z" fill="#4285F4"/>
<path d="M443.06 32.7615C443.06 31.807 442.29 31.0266 441.331 31.0266C440.38 31.0266 439.603 31.807 439.603 32.7615C439.603 33.7231 440.38 34.5034 441.331 34.5034C442.29 34.5034 443.06 33.7231 443.06 32.7615Z" fill="#4285F4"/>
<path d="M464.673 19.7268C464.673 18.7704 463.902 17.9884 462.944 17.9884C461.993 17.9884 461.215 18.7704 461.215 19.7268C461.215 20.6833 461.993 21.4653 462.944 21.4653C463.902 21.4653 464.673 20.6833 464.673 19.7268Z" fill="#4285F4"/>
<path d="M443.06 57.9719C443.06 57.0154 442.29 56.2335 441.331 56.2335C440.38 56.2335 439.603 57.0154 439.603 57.9719C439.603 58.9284 440.38 59.7103 441.331 59.7103C442.29 59.7103 443.06 58.9284 443.06 57.9719Z" fill="#4285F4"/>
<path d="M464.673 44.9337C464.673 43.9703 463.902 43.1953 462.944 43.1953C461.993 43.1953 461.215 43.9703 461.215 44.9337C461.215 45.8902 461.993 46.6721 462.944 46.6721C463.902 46.6721 464.673 45.8902 464.673 44.9337Z" fill="#4285F4"/>
<path d="M486.284 32.7615C486.284 31.807 485.508 31.0266 484.552 31.0266C483.602 31.0266 482.826 31.807 482.826 32.7615C482.826 33.7231 483.602 34.5034 484.552 34.5034C485.508 34.5034 486.284 33.7231 486.284 32.7615Z" fill="#4285F4"/>
<path d="M464.673 71.0098C464.673 70.0534 463.902 69.2714 462.944 69.2714C461.993 69.2714 461.215 70.0534 461.215 71.0098C461.215 71.9733 461.993 72.7483 462.944 72.7483C463.902 72.7483 464.673 71.9733 464.673 71.0098Z" fill="#4285F4"/>
<path d="M486.284 57.9719C486.284 57.0154 485.508 56.2335 484.552 56.2335C483.602 56.2335 482.826 57.0154 482.826 57.9719C482.826 58.9284 483.602 59.7103 484.552 59.7103C485.508 59.7103 486.284 58.9284 486.284 57.9719Z" fill="#4285F4"/>
<path d="M486.284 84.0515C486.284 83.09 485.508 82.3096 484.552 82.3096C483.602 82.3096 482.826 83.09 482.826 84.0515C482.826 85.0061 483.602 85.7865 484.552 85.7865C485.508 85.7865 486.284 85.0061 486.284 84.0515Z" fill="#4285F4"/>
<path d="M178.535 109.255C178.535 108.298 177.757 107.517 176.806 107.517C175.848 107.517 175.077 108.298 175.077 109.255C175.077 110.218 175.848 110.993 176.806 110.993C177.757 110.993 178.535 110.218 178.535 109.255Z" fill="#4285F4"/>
<path d="M201.012 96.217C201.012 95.2535 200.234 94.4786 199.283 94.4786C198.324 94.4786 197.554 95.2535 197.554 96.217C197.554 97.1735 198.324 97.9554 199.283 97.9554C200.234 97.9554 201.012 97.1735 201.012 96.217Z" fill="#4285F4"/>
<path d="M223.488 84.0515C223.488 83.09 222.717 82.3096 221.759 82.3096C220.808 82.3096 220.03 83.09 220.03 84.0515C220.03 85.0061 220.808 85.7865 221.759 85.7865C222.717 85.7865 223.488 85.0061 223.488 84.0515Z" fill="#4285F4"/>
<path d="M245.963 71.0098C245.963 70.0534 245.192 69.2714 244.234 69.2714C243.283 69.2714 242.505 70.0534 242.505 71.0098C242.505 71.9733 243.283 72.7483 244.234 72.7483C245.192 72.7483 245.963 71.9733 245.963 71.0098Z" fill="#4285F4"/>
<path d="M266.711 57.9719C266.711 57.0154 265.935 56.2335 264.978 56.2335C264.029 56.2335 263.253 57.0154 263.253 57.9719C263.253 58.9284 264.029 59.7103 264.978 59.7103C265.935 59.7103 266.711 58.9284 266.711 57.9719Z" fill="#4285F4"/>
<path d="M288.322 44.9337C288.322 43.9703 287.544 43.1953 286.593 43.1953C285.635 43.1953 284.864 43.9703 284.864 44.9337C284.864 45.8902 285.635 46.6721 286.593 46.6721C287.544 46.6721 288.322 45.8902 288.322 44.9337Z" fill="#4285F4"/>
<path d="M311.663 32.7615C311.663 31.807 310.892 31.0266 309.934 31.0266C308.983 31.0266 308.205 31.807 308.205 32.7615C308.205 33.7231 308.983 34.5034 309.934 34.5034C310.892 34.5034 311.663 33.7231 311.663 32.7615Z" fill="#4285F4"/>
<path d="M332.409 19.7268C332.409 18.7704 331.638 17.9884 330.68 17.9884C329.729 17.9884 328.951 18.7704 328.951 19.7268C328.951 20.6833 329.729 21.4653 330.68 21.4653C331.638 21.4653 332.409 20.6833 332.409 19.7268Z" fill="#4285F4"/>
<path d="M201.012 122.293C201.012 121.33 200.234 120.555 199.283 120.555C198.324 120.555 197.554 121.33 197.554 122.293C197.554 123.25 198.324 124.032 199.283 124.032C200.234 124.032 201.012 123.25 201.012 122.293Z" fill="#4285F4"/>
<path d="M223.488 109.255C223.488 108.298 222.717 107.517 221.759 107.517C220.808 107.517 220.03 108.298 220.03 109.255C220.03 110.218 220.808 110.993 221.759 110.993C222.717 110.993 223.488 110.218 223.488 109.255Z" fill="#4285F4"/>
<path d="M245.963 96.217C245.963 95.2535 245.192 94.4786 244.234 94.4786C243.283 94.4786 242.505 95.2535 242.505 96.217C242.505 97.1735 243.283 97.9554 244.234 97.9554C245.192 97.9554 245.963 97.1735 245.963 96.217Z" fill="#4285F4"/>
<path d="M266.711 84.0515C266.711 83.09 265.935 82.3096 264.978 82.3096C264.029 82.3096 263.253 83.09 263.253 84.0515C263.253 85.0061 264.029 85.7865 264.978 85.7865C265.935 85.7865 266.711 85.0061 266.711 84.0515Z" fill="#4285F4"/>
<path d="M288.322 71.0098C288.322 70.0534 287.544 69.2714 286.593 69.2714C285.635 69.2714 284.864 70.0534 284.864 71.0098C284.864 71.9733 285.635 72.7483 286.593 72.7483C287.544 72.7483 288.322 71.9733 288.322 71.0098Z" fill="#4285F4"/>
<path d="M311.663 57.9719C311.663 57.0154 310.892 56.2335 309.934 56.2335C308.983 56.2335 308.205 57.0154 308.205 57.9719C308.205 58.9284 308.983 59.7103 309.934 59.7103C310.892 59.7103 311.663 58.9284 311.663 57.9719Z" fill="#4285F4"/>
<path d="M332.409 44.9337C332.409 43.9703 331.638 43.1953 330.68 43.1953C329.729 43.1953 328.951 43.9703 328.951 44.9337C328.951 45.8902 329.729 46.6721 330.68 46.6721C331.638 46.6721 332.409 45.8902 332.409 44.9337Z" fill="#4285F4"/>
<path d="M354.887 32.7615C354.887 31.807 354.116 31.0266 353.158 31.0266C352.206 31.0266 351.429 31.807 351.429 32.7615C351.429 33.7231 352.206 34.5034 353.158 34.5034C354.116 34.5034 354.887 33.7231 354.887 32.7615Z" fill="#4285F4"/>
<path d="M223.488 135.331C223.488 134.368 222.717 133.593 221.759 133.593C220.808 133.593 220.03 134.368 220.03 135.331C220.03 136.288 220.808 137.069 221.759 137.069C222.717 137.069 223.488 136.288 223.488 135.331Z" fill="#4285F4"/>
<path d="M245.963 122.293C245.963 121.33 245.192 120.555 244.234 120.555C243.283 120.555 242.505 121.33 242.505 122.293C242.505 123.25 243.283 124.032 244.234 124.032C245.192 124.032 245.963 123.25 245.963 122.293Z" fill="#4285F4"/>
<path d="M266.711 109.255C266.711 108.298 265.935 107.517 264.978 107.517C264.029 107.517 263.253 108.298 263.253 109.255C263.253 110.218 264.029 110.993 264.978 110.993C265.935 110.993 266.711 110.218 266.711 109.255Z" fill="#4285F4"/>
<path d="M288.322 96.217C288.322 95.2535 287.544 94.4786 286.593 94.4786C285.635 94.4786 284.864 95.2535 284.864 96.217C284.864 97.1735 285.635 97.9554 286.593 97.9554C287.544 97.9554 288.322 97.1735 288.322 96.217Z" fill="#4285F4"/>
<path d="M311.663 84.0515C311.663 83.09 310.892 82.3096 309.934 82.3096C308.983 82.3096 308.205 83.09 308.205 84.0515C308.205 85.0061 308.983 85.7865 309.934 85.7865C310.892 85.7865 311.663 85.0061 311.663 84.0515Z" fill="#4285F4"/>
<path d="M332.409 71.0098C332.409 70.0534 331.638 69.2714 330.68 69.2714C329.722 69.2714 328.951 70.0534 328.951 71.0098C328.951 71.9733 329.722 72.7483 330.68 72.7483C331.638 72.7483 332.409 71.9733 332.409 71.0098Z" fill="#4285F4"/>
<path d="M354.887 57.9719C354.887 57.0154 354.116 56.2335 353.158 56.2335C352.206 56.2335 351.429 57.0154 351.429 57.9719C351.429 58.9284 352.206 59.7103 353.158 59.7103C354.116 59.7103 354.887 58.9284 354.887 57.9719Z" fill="#4285F4"/>
<path d="M377.362 44.9337C377.362 43.9703 376.586 43.1953 375.637 43.1953C374.68 43.1953 373.904 43.9703 373.904 44.9337C373.904 45.8902 374.68 46.6721 375.637 46.6721C376.586 46.6721 377.362 45.8902 377.362 44.9337Z" fill="#4285F4"/>
<path d="M245.963 147.5C245.963 146.544 245.192 145.762 244.234 145.762C243.283 145.762 242.505 146.544 242.505 147.5C242.505 148.463 243.283 149.238 244.234 149.238C245.192 149.238 245.963 148.463 245.963 147.5Z" fill="#4285F4"/>
<path d="M266.711 135.331C266.711 134.368 265.935 133.593 264.978 133.593C264.029 133.593 263.253 134.368 263.253 135.331C263.253 136.288 264.029 137.069 264.978 137.069C265.935 137.069 266.711 136.288 266.711 135.331Z" fill="#4285F4"/>
<path d="M288.322 122.293C288.322 121.33 287.544 120.555 286.593 120.555C285.635 120.555 284.864 121.33 284.864 122.293C284.864 123.25 285.635 124.032 286.593 124.032C287.544 124.032 288.322 123.25 288.322 122.293Z" fill="#4285F4"/>
<path d="M311.663 109.255C311.663 108.298 310.892 107.517 309.934 107.517C308.983 107.517 308.205 108.298 308.205 109.255C308.205 110.218 308.983 110.993 309.934 110.993C310.892 110.993 311.663 110.218 311.663 109.255Z" fill="#4285F4"/>
<path d="M332.409 96.217C332.409 95.2535 331.638 94.4786 330.68 94.4786C329.722 94.4786 328.951 95.2535 328.951 96.217C328.951 97.1735 329.722 97.9554 330.68 97.9554C331.638 97.9554 332.409 97.1735 332.409 96.217Z" fill="#4285F4"/>
<path d="M354.887 84.0515C354.887 83.09 354.116 82.3096 353.158 82.3096C352.206 82.3096 351.429 83.09 351.429 84.0515C351.429 85.0061 352.206 85.7865 353.158 85.7865C354.116 85.7865 354.887 85.0061 354.887 84.0515Z" fill="#4285F4"/>
<path d="M377.362 71.0098C377.362 70.0534 376.586 69.2714 375.637 69.2714C374.68 69.2714 373.904 70.0534 373.904 71.0098C373.904 71.9733 374.68 72.7483 375.637 72.7483C376.586 72.7483 377.362 71.9733 377.362 71.0098Z" fill="#4285F4"/>
<path d="M398.973 57.9719C398.973 57.0154 398.196 56.2335 397.245 56.2335C396.286 56.2335 395.516 57.0154 395.516 57.9719C395.516 58.9284 396.286 59.7103 397.245 59.7103C398.196 59.7103 398.973 58.9284 398.973 57.9719Z" fill="#4285F4"/>
<path d="M266.711 160.538C266.711 159.581 265.935 158.8 264.978 158.8C264.029 158.8 263.253 159.581 263.253 160.538C263.253 161.501 264.029 162.276 264.978 162.276C265.935 162.276 266.711 161.501 266.711 160.538Z" fill="#4285F4"/>
<path d="M288.322 147.5C288.322 146.544 287.544 145.762 286.593 145.762C285.635 145.762 284.864 146.544 284.864 147.5C284.864 148.463 285.635 149.238 286.593 149.238C287.544 149.238 288.322 148.463 288.322 147.5Z" fill="#4285F4"/>
<path d="M311.663 135.331C311.663 134.368 310.892 133.593 309.934 133.593C308.983 133.593 308.205 134.368 308.205 135.331C308.205 136.288 308.983 137.069 309.934 137.069C310.892 137.069 311.663 136.288 311.663 135.331Z" fill="#4285F4"/>
<path d="M332.409 122.293C332.409 121.33 331.638 120.555 330.68 120.555C329.722 120.555 328.951 121.33 328.951 122.293C328.951 123.25 329.722 124.032 330.68 124.032C331.638 124.032 332.409 123.25 332.409 122.293Z" fill="#4285F4"/>
<path d="M354.887 109.255C354.887 108.298 354.116 107.517 353.158 107.517C352.206 107.517 351.429 108.298 351.429 109.255C351.429 110.218 352.206 110.993 353.158 110.993C354.116 110.993 354.887 110.218 354.887 109.255Z" fill="#4285F4"/>
<path d="M377.362 96.217C377.362 95.2535 376.586 94.4786 375.637 94.4786C374.68 94.4786 373.904 95.2535 373.904 96.217C373.904 97.1735 374.68 97.9554 375.637 97.9554C376.586 97.9554 377.362 97.1735 377.362 96.217Z" fill="#4285F4"/>
<path d="M398.973 84.0515C398.973 83.09 398.196 82.3096 397.245 82.3096C396.286 82.3096 395.516 83.09 395.516 84.0515C395.516 85.0061 396.286 85.7865 397.245 85.7865C398.196 85.7865 398.973 85.0061 398.973 84.0515Z" fill="#4285F4"/>
<path d="M419.721 71.0098C419.721 70.0534 418.943 69.2714 417.992 69.2714C417.033 69.2714 416.263 70.0534 416.263 71.0098C416.263 71.9733 417.033 72.7483 417.992 72.7483C418.943 72.7483 419.721 71.9733 419.721 71.0098Z" fill="#4285F4"/>
<path d="M288.322 173.576C288.322 172.613 287.544 171.838 286.593 171.838C285.635 171.838 284.864 172.613 284.864 173.576C284.864 174.533 285.635 175.315 286.593 175.315C287.544 175.315 288.322 174.533 288.322 173.576Z" fill="#4285F4"/>
<path d="M311.663 160.538C311.663 159.581 310.892 158.8 309.934 158.8C308.976 158.8 308.205 159.581 308.205 160.538C308.205 161.501 308.976 162.276 309.934 162.276C310.892 162.276 311.663 161.501 311.663 160.538Z" fill="#4285F4"/>
<path d="M332.409 147.5C332.409 146.544 331.638 145.762 330.68 145.762C329.722 145.762 328.951 146.544 328.951 147.5C328.951 148.463 329.722 149.238 330.68 149.238C331.638 149.238 332.409 148.463 332.409 147.5Z" fill="#4285F4"/>
<path d="M354.887 135.331C354.887 134.368 354.116 133.593 353.158 133.593C352.206 133.593 351.429 134.368 351.429 135.331C351.429 136.288 352.206 137.069 353.158 137.069C354.116 137.069 354.887 136.288 354.887 135.331Z" fill="#4285F4"/>
<path d="M377.362 122.293C377.362 121.33 376.586 120.555 375.637 120.555C374.68 120.555 373.904 121.33 373.904 122.293C373.904 123.25 374.68 124.032 375.637 124.032C376.586 124.032 377.362 123.25 377.362 122.293Z" fill="#4285F4"/>
<path d="M398.973 109.255C398.973 108.298 398.196 107.517 397.245 107.517C396.286 107.517 395.516 108.298 395.516 109.255C395.516 110.218 396.286 110.993 397.245 110.993C398.196 110.993 398.973 110.218 398.973 109.255Z" fill="#4285F4"/>
<path d="M419.721 96.217C419.721 95.2535 418.943 94.4786 417.992 94.4786C417.033 94.4786 416.263 95.2535 416.263 96.217C416.263 97.1735 417.033 97.9554 417.992 97.9554C418.943 97.9554 419.721 97.1735 419.721 96.217Z" fill="#4285F4"/>
<path d="M443.06 84.0515C443.06 83.09 442.29 82.3096 441.331 82.3096C440.38 82.3096 439.603 83.09 439.603 84.0515C439.603 85.0061 440.38 85.7865 441.331 85.7865C442.29 85.7865 443.06 85.0061 443.06 84.0515Z" fill="#4285F4"/>
<path d="M311.663 185.745C311.663 184.789 310.892 184.007 309.934 184.007C308.976 184.007 308.205 184.789 308.205 185.745C308.205 186.709 308.976 187.483 309.934 187.483C310.892 187.483 311.663 186.709 311.663 185.745Z" fill="#4285F4"/>
<path d="M332.409 173.576C332.409 172.613 331.638 171.838 330.68 171.838C329.722 171.838 328.951 172.613 328.951 173.576C328.951 174.533 329.722 175.315 330.68 175.315C331.638 175.315 332.409 174.533 332.409 173.576Z" fill="#4285F4"/>
<path d="M354.887 160.538C354.887 159.581 354.116 158.8 353.158 158.8C352.206 158.8 351.429 159.581 351.429 160.538C351.429 161.501 352.206 162.276 353.158 162.276C354.116 162.276 354.887 161.501 354.887 160.538Z" fill="#4285F4"/>
<path d="M377.362 147.5C377.362 146.544 376.586 145.762 375.637 145.762C374.68 145.762 373.904 146.544 373.904 147.5C373.904 148.463 374.68 149.238 375.637 149.238C376.586 149.238 377.362 148.463 377.362 147.5Z" fill="#4285F4"/>
<path d="M398.973 135.331C398.973 134.368 398.196 133.593 397.245 133.593C396.286 133.593 395.516 134.368 395.516 135.331C395.516 136.288 396.286 137.069 397.245 137.069C398.196 137.069 398.973 136.288 398.973 135.331Z" fill="#4285F4"/>
<path d="M419.721 122.293C419.721 121.33 418.943 120.555 417.992 120.555C417.033 120.555 416.263 121.33 416.263 122.293C416.263 123.25 417.033 124.032 417.992 124.032C418.943 124.032 419.721 123.25 419.721 122.293Z" fill="#4285F4"/>
<path d="M443.06 109.255C443.06 108.298 442.29 107.517 441.331 107.517C440.38 107.517 439.603 108.298 439.603 109.255C439.603 110.218 440.38 110.993 441.331 110.993C442.29 110.993 443.06 110.218 443.06 109.255Z" fill="#4285F4"/>
<path d="M464.673 96.217C464.673 95.2535 463.902 94.4786 462.944 94.4786C461.993 94.4786 461.215 95.2535 461.215 96.217C461.215 97.1735 461.993 97.9554 462.944 97.9554C463.902 97.9554 464.673 97.1735 464.673 96.217Z" fill="#4285F4"/>
<path d="M332.409 198.78C332.409 197.825 331.638 197.045 330.68 197.045C329.722 197.045 328.951 197.825 328.951 198.78C328.951 199.741 329.722 200.522 330.68 200.522C331.638 200.522 332.409 199.741 332.409 198.78Z" fill="#4285F4"/>
<path d="M354.887 185.745C354.887 184.789 354.116 184.007 353.158 184.007C352.206 184.007 351.429 184.789 351.429 185.745C351.429 186.709 352.206 187.483 353.158 187.483C354.116 187.483 354.887 186.709 354.887 185.745Z" fill="#4285F4"/>
<path d="M377.362 173.576C377.362 172.613 376.586 171.838 375.637 171.838C374.68 171.838 373.904 172.613 373.904 173.576C373.904 174.533 374.68 175.315 375.637 175.315C376.586 175.315 377.362 174.533 377.362 173.576Z" fill="#4285F4"/>
<path d="M398.973 160.538C398.973 159.581 398.196 158.8 397.245 158.8C396.286 158.8 395.516 159.581 395.516 160.538C395.516 161.501 396.286 162.276 397.245 162.276C398.196 162.276 398.973 161.501 398.973 160.538Z" fill="#4285F4"/>
<path d="M419.721 147.5C419.721 146.544 418.943 145.762 417.992 145.762C417.033 145.762 416.263 146.544 416.263 147.5C416.263 148.463 417.033 149.238 417.992 149.238C418.943 149.238 419.721 148.463 419.721 147.5Z" fill="#4285F4"/>
<path d="M443.06 135.331C443.06 134.368 442.29 133.593 441.331 133.593C440.38 133.593 439.603 134.368 439.603 135.331C439.603 136.288 440.38 137.069 441.331 137.069C442.29 137.069 443.06 136.288 443.06 135.331Z" fill="#4285F4"/>
<path d="M464.673 122.293C464.673 121.33 463.902 120.555 462.944 120.555C461.993 120.555 461.215 121.33 461.215 122.293C461.215 123.25 461.993 124.032 462.944 124.032C463.902 124.032 464.673 123.25 464.673 122.293Z" fill="#4285F4"/>
<path d="M486.284 109.255C486.284 108.298 485.508 107.517 484.552 107.517C483.602 107.517 482.826 108.298 482.826 109.255C482.826 110.218 483.602 110.993 484.552 110.993C485.508 110.993 486.284 110.218 486.284 109.255Z" fill="#4285F4"/>
<path d="M24.661 19.7268C24.661 18.7703 23.8903 17.9884 22.9321 17.9884C21.9808 17.9884 21.2031 18.7703 21.2031 19.7268C21.2031 20.6833 21.9808 21.4652 22.9321 21.4652C23.8903 21.4652 24.661 20.6833 24.661 19.7268Z" fill="#4285F4"/>
<path d="M47.1376 32.7653C47.1376 31.8088 46.3599 31.0268 45.4086 31.0268C44.4504 31.0268 43.6797 31.8088 43.6797 32.7653C43.6797 33.7287 44.4504 34.5037 45.4086 34.5037C46.3599 34.5037 47.1376 33.7287 47.1376 32.7653Z" fill="#4285F4"/>
<path d="M68.7489 19.7268C68.7489 18.7704 67.9712 17.9884 67.0199 17.9884C66.0617 17.9884 65.291 18.7704 65.291 19.7268C65.291 20.6833 66.0617 21.4653 67.0199 21.4653C67.9712 21.4653 68.7489 20.6833 68.7489 19.7268Z" fill="#4285F4"/>
<path d="M68.7489 44.9337C68.7489 43.9703 67.9712 43.1953 67.0199 43.1953C66.0617 43.1953 65.291 43.9703 65.291 44.9337C65.291 45.8902 66.0617 46.6721 67.0199 46.6721C67.9712 46.6721 68.7489 45.8902 68.7489 44.9337Z" fill="#4285F4"/>
<path d="M91.2245 32.765C91.2245 31.8085 90.4468 31.0266 89.4955 31.0266C88.5443 31.0266 87.7666 31.8085 87.7666 32.765C87.7666 33.7285 88.5443 34.5034 89.4955 34.5034C90.4468 34.5034 91.2245 33.7285 91.2245 32.765Z" fill="#4285F4"/>
<path d="M113.701 19.7268C113.701 18.7704 112.93 17.9884 111.972 17.9884C111.021 17.9884 110.243 18.7704 110.243 19.7268C110.243 20.6833 111.021 21.4653 111.972 21.4653C112.93 21.4653 113.701 20.6833 113.701 19.7268Z" fill="#4285F4"/>
<path d="M91.2245 57.9719C91.2245 57.0154 90.4468 56.2335 89.4955 56.2335C88.5443 56.2335 87.7666 57.0154 87.7666 57.9719C87.7666 58.9284 88.5443 59.7103 89.4955 59.7103C90.4468 59.7103 91.2245 58.9284 91.2245 57.9719Z" fill="#4285F4"/>
<path d="M113.701 44.9337C113.701 43.9703 112.93 43.1953 111.972 43.1953C111.021 43.1953 110.243 43.9703 110.243 44.9337C110.243 45.8902 111.021 46.6721 111.972 46.6721C112.93 46.6721 113.701 45.8902 113.701 44.9337Z" fill="#4285F4"/>
<path d="M134.448 32.765C134.448 31.8085 133.677 31.0266 132.719 31.0266C131.768 31.0266 130.99 31.8085 130.99 32.765C130.99 33.7285 131.768 34.5034 132.719 34.5034C133.677 34.5034 134.448 33.7285 134.448 32.765Z" fill="#4285F4"/>
<path d="M156.058 19.7268C156.058 18.7704 155.282 17.9884 154.333 17.9884C153.377 17.9884 152.601 18.7704 152.601 19.7268C152.601 20.6833 153.377 21.4653 154.333 21.4653C155.282 21.4653 156.058 20.6833 156.058 19.7268Z" fill="#4285F4"/>
<path d="M113.701 71.0098C113.701 70.0534 112.93 69.2714 111.972 69.2714C111.021 69.2714 110.243 70.0534 110.243 71.0098C110.243 71.9733 111.021 72.7483 111.972 72.7483C112.93 72.7483 113.701 71.9733 113.701 71.0098Z" fill="#4285F4"/>
<path d="M134.448 57.9719C134.448 57.0154 133.677 56.2335 132.719 56.2335C131.768 56.2335 130.99 57.0154 130.99 57.9719C130.99 58.9284 131.768 59.7103 132.719 59.7103C133.677 59.7103 134.448 58.9284 134.448 57.9719Z" fill="#4285F4"/>
<path d="M156.058 44.9337C156.058 43.9703 155.282 43.1953 154.333 43.1953C153.377 43.1953 152.601 43.9703 152.601 44.9337C152.601 45.8902 153.377 46.6721 154.333 46.6721C155.282 46.6721 156.058 45.8902 156.058 44.9337Z" fill="#4285F4"/>
<path d="M178.535 32.765C178.535 31.8085 177.757 31.0266 176.806 31.0266C175.848 31.0266 175.077 31.8085 175.077 32.765C175.077 33.7285 175.848 34.5034 176.806 34.5034C177.757 34.5034 178.535 33.7285 178.535 32.765Z" fill="#4285F4"/>
<path d="M201.012 19.7268C201.012 18.7704 200.234 17.9884 199.283 17.9884C198.324 17.9884 197.554 18.7704 197.554 19.7268C197.554 20.6833 198.324 21.4653 199.283 21.4653C200.234 21.4653 201.012 20.6833 201.012 19.7268Z" fill="#4285F4"/>
<path d="M134.448 84.0518C134.448 83.0902 133.677 82.3099 132.719 82.3099C131.768 82.3099 130.99 83.0902 130.99 84.0518C130.99 85.0063 131.768 85.7867 132.719 85.7867C133.677 85.7867 134.448 85.0063 134.448 84.0518Z" fill="#4285F4"/>
<path d="M156.058 71.0098C156.058 70.0534 155.282 69.2714 154.333 69.2714C153.377 69.2714 152.601 70.0534 152.601 71.0098C152.601 71.9733 153.377 72.7483 154.333 72.7483C155.282 72.7483 156.058 71.9733 156.058 71.0098Z" fill="#4285F4"/>
<path d="M178.535 57.9719C178.535 57.0154 177.757 56.2335 176.806 56.2335C175.848 56.2335 175.077 57.0154 175.077 57.9719C175.077 58.9284 175.848 59.7103 176.806 59.7103C177.757 59.7103 178.535 58.9284 178.535 57.9719Z" fill="#4285F4"/>
<path d="M201.012 44.9337C201.012 43.9703 200.234 43.1953 199.283 43.1953C198.324 43.1953 197.554 43.9703 197.554 44.9337C197.554 45.8902 198.324 46.6721 199.283 46.6721C200.234 46.6721 201.012 45.8902 201.012 44.9337Z" fill="#4285F4"/>
<path d="M223.488 32.765C223.488 31.8085 222.717 31.0266 221.759 31.0266C220.808 31.0266 220.03 31.8085 220.03 32.765C220.03 33.7285 220.808 34.5034 221.759 34.5034C222.717 34.5034 223.488 33.7285 223.488 32.765Z" fill="#4285F4"/>
<path d="M245.963 19.7268C245.963 18.7704 245.192 17.9884 244.234 17.9884C243.283 17.9884 242.505 18.7704 242.505 19.7268C242.505 20.6833 243.283 21.4653 244.234 21.4653C245.192 21.4653 245.963 20.6833 245.963 19.7268Z" fill="#4285F4"/>
<path d="M156.058 96.217C156.058 95.2535 155.282 94.4786 154.333 94.4786C153.377 94.4786 152.601 95.2535 152.601 96.217C152.601 97.1735 153.377 97.9554 154.333 97.9554C155.282 97.9554 156.058 97.1735 156.058 96.217Z" fill="#4285F4"/>
<path d="M178.535 84.0515C178.535 83.09 177.757 82.3096 176.806 82.3096C175.848 82.3096 175.077 83.09 175.077 84.0515C175.077 85.0061 175.848 85.7865 176.806 85.7865C177.757 85.7865 178.535 85.0061 178.535 84.0515Z" fill="#4285F4"/>
<path d="M201.012 71.0098C201.012 70.0534 200.234 69.2714 199.283 69.2714C198.324 69.2714 197.554 70.0534 197.554 71.0098C197.554 71.9733 198.324 72.7483 199.283 72.7483C200.234 72.7483 201.012 71.9733 201.012 71.0098Z" fill="#4285F4"/>
<path d="M223.488 57.9719C223.488 57.0154 222.717 56.2335 221.759 56.2335C220.808 56.2335 220.03 57.0154 220.03 57.9719C220.03 58.9284 220.808 59.7103 221.759 59.7103C222.717 59.7103 223.488 58.9284 223.488 57.9719Z" fill="#4285F4"/>
<path d="M245.963 44.9337C245.963 43.9703 245.192 43.1953 244.234 43.1953C243.283 43.1953 242.505 43.9703 242.505 44.9337C242.505 45.8902 243.283 46.6721 244.234 46.6721C245.192 46.6721 245.963 45.8902 245.963 44.9337Z" fill="#4285F4"/>
<path d="M266.711 32.765C266.711 31.8085 265.935 31.0266 264.978 31.0266C264.029 31.0266 263.253 31.8085 263.253 32.765C263.253 33.7285 264.029 34.5034 264.978 34.5034C265.935 34.5034 266.711 33.7285 266.711 32.765Z" fill="#4285F4"/>
<path d="M288.322 19.7268C288.322 18.7704 287.544 17.9884 286.593 17.9884C285.635 17.9884 284.864 18.7704 284.864 19.7268C284.864 20.6833 285.635 21.4653 286.593 21.4653C287.544 21.4653 288.322 20.6833 288.322 19.7268Z" fill="#4285F4"/>
<path d="M377.362 198.78C377.362 197.825 376.586 197.045 375.637 197.045C374.68 197.045 373.904 197.825 373.904 198.78C373.904 199.741 374.68 200.522 375.637 200.522C376.586 200.522 377.362 199.741 377.362 198.78Z" fill="#4285F4"/>
<path d="M398.973 185.745C398.973 184.789 398.196 184.007 397.245 184.007C396.286 184.007 395.516 184.789 395.516 185.745C395.516 186.709 396.286 187.483 397.245 187.483C398.196 187.483 398.973 186.709 398.973 185.745Z" fill="#4285F4"/>
<path d="M419.721 173.576C419.721 172.613 418.943 171.838 417.992 171.838C417.033 171.838 416.263 172.613 416.263 173.576C416.263 174.533 417.033 175.315 417.992 175.315C418.943 175.315 419.721 174.533 419.721 173.576Z" fill="#4285F4"/>
<path d="M443.06 160.538C443.06 159.581 442.29 158.8 441.331 158.8C440.38 158.8 439.603 159.581 439.603 160.538C439.603 161.501 440.38 162.276 441.331 162.276C442.29 162.276 443.06 161.501 443.06 160.538Z" fill="#4285F4"/>
<path d="M464.673 147.5C464.673 146.544 463.902 145.762 462.944 145.762C461.993 145.762 461.215 146.544 461.215 147.5C461.215 148.463 461.993 149.238 462.944 149.238C463.902 149.238 464.673 148.463 464.673 147.5Z" fill="#4285F4"/>
<path d="M486.284 135.331C486.284 134.368 485.508 133.593 484.552 133.593C483.602 133.593 482.826 134.368 482.826 135.331C482.826 136.288 483.602 137.069 484.552 137.069C485.508 137.069 486.284 136.288 486.284 135.331Z" fill="#4285F4"/>
<path d="M419.721 198.78C419.721 197.825 418.943 197.045 417.992 197.045C417.033 197.045 416.263 197.825 416.263 198.78C416.263 199.741 417.033 200.522 417.992 200.522C418.943 200.522 419.721 199.741 419.721 198.78Z" fill="#4285F4"/>
<path d="M443.06 185.745C443.06 184.789 442.29 184.007 441.331 184.007C440.38 184.007 439.603 184.789 439.603 185.745C439.603 186.709 440.38 187.483 441.331 187.483C442.29 187.483 443.06 186.709 443.06 185.745Z" fill="#4285F4"/>
<path d="M464.673 173.576C464.673 172.613 463.902 171.838 462.944 171.838C461.993 171.838 461.215 172.613 461.215 173.576C461.215 174.533 461.993 175.315 462.944 175.315C463.902 175.315 464.673 174.533 464.673 173.576Z" fill="#4285F4"/>
<path d="M486.284 160.538C486.284 159.581 485.508 158.8 484.552 158.8C483.602 158.8 482.826 159.581 482.826 160.538C482.826 161.501 483.602 162.276 484.552 162.276C485.508 162.276 486.284 161.501 486.284 160.538Z" fill="#4285F4"/>
<path d="M464.673 198.78C464.673 197.825 463.902 197.045 462.944 197.045C461.993 197.045 461.215 197.825 461.215 198.78C461.215 199.741 461.993 200.522 462.944 200.522C463.902 200.522 464.673 199.741 464.673 198.78Z" fill="#4285F4"/>
<path d="M486.284 185.745C486.284 184.789 485.508 184.007 484.552 184.007C483.602 184.007 482.826 184.789 482.826 185.745C482.826 186.709 483.602 187.483 484.552 187.483C485.508 187.483 486.284 186.709 486.284 185.745Z" fill="#4285F4"/>
<path d="M24.661 198.78C24.661 197.825 23.8903 197.045 22.9321 197.045C21.9808 197.045 21.2031 197.825 21.2031 198.78C21.2031 199.741 21.9808 200.522 22.9321 200.522C23.8903 200.522 24.661 199.741 24.661 198.78Z" fill="#4285F4"/>
<path d="M47.1376 185.745C47.1376 184.789 46.3599 184.007 45.4017 184.007C44.4504 184.007 43.6797 184.789 43.6797 185.745C43.6797 186.702 44.4504 187.483 45.4017 187.483C46.3599 187.483 47.1376 186.702 47.1376 185.745Z" fill="#4285F4"/>
<path d="M68.7489 173.576C68.7489 172.613 67.9712 171.838 67.0199 171.838C66.0617 171.838 65.291 172.613 65.291 173.576C65.291 174.533 66.0617 175.315 67.0199 175.315C67.9712 175.315 68.7489 174.533 68.7489 173.576Z" fill="#4285F4"/>
<path d="M91.2245 160.538C91.2245 159.581 90.4468 158.8 89.4955 158.8C88.5443 158.8 87.7666 159.581 87.7666 160.538C87.7666 161.501 88.5443 162.276 89.4955 162.276C90.4468 162.276 91.2245 161.501 91.2245 160.538Z" fill="#4285F4"/>
<path d="M113.701 147.5C113.701 146.544 112.93 145.762 111.972 145.762C111.021 145.762 110.243 146.544 110.243 147.5C110.243 148.463 111.021 149.238 111.972 149.238C112.93 149.238 113.701 148.463 113.701 147.5Z" fill="#4285F4"/>
<path d="M134.448 135.331C134.448 134.368 133.677 133.593 132.719 133.593C131.768 133.593 130.99 134.368 130.99 135.331C130.99 136.288 131.768 137.069 132.719 137.069C133.677 137.069 134.448 136.288 134.448 135.331Z" fill="#4285F4"/>
<path d="M156.058 122.293C156.058 121.33 155.282 120.555 154.333 120.555C153.377 120.555 152.601 121.33 152.601 122.293C152.601 123.25 153.377 124.032 154.333 124.032C155.282 124.032 156.058 123.25 156.058 122.293Z" fill="#4285F4"/>
<path d="M68.7489 198.78C68.7489 197.825 67.9712 197.045 67.0199 197.045C66.0617 197.045 65.291 197.825 65.291 198.78C65.291 199.741 66.0617 200.522 67.0199 200.522C67.9712 200.522 68.7489 199.741 68.7489 198.78Z" fill="#4285F4"/>
<path d="M91.2245 185.745C91.2245 184.789 90.4468 184.007 89.4955 184.007C88.5443 184.007 87.7666 184.789 87.7666 185.745C87.7666 186.702 88.5443 187.483 89.4955 187.483C90.4468 187.483 91.2245 186.702 91.2245 185.745Z" fill="#4285F4"/>
<path d="M113.701 173.576C113.701 172.613 112.93 171.838 111.972 171.838C111.021 171.838 110.243 172.613 110.243 173.576C110.243 174.533 111.021 175.315 111.972 175.315C112.93 175.315 113.701 174.533 113.701 173.576Z" fill="#4285F4"/>
<path d="M134.448 160.538C134.448 159.581 133.677 158.8 132.719 158.8C131.768 158.8 130.99 159.581 130.99 160.538C130.99 161.501 131.768 162.276 132.719 162.276C133.677 162.276 134.448 161.501 134.448 160.538Z" fill="#4285F4"/>
<path d="M156.058 147.5C156.058 146.544 155.282 145.762 154.333 145.762C153.377 145.762 152.601 146.544 152.601 147.5C152.601 148.463 153.377 149.238 154.333 149.238C155.282 149.238 156.058 148.463 156.058 147.5Z" fill="#4285F4"/>
<path d="M178.535 135.331C178.535 134.368 177.757 133.593 176.806 133.593C175.848 133.593 175.077 134.368 175.077 135.331C175.077 136.288 175.848 137.069 176.806 137.069C177.757 137.069 178.535 136.288 178.535 135.331Z" fill="#4285F4"/>
<path d="M113.701 198.78C113.701 197.825 112.93 197.045 111.972 197.045C111.021 197.045 110.243 197.825 110.243 198.78C110.243 199.741 111.021 200.522 111.972 200.522C112.93 200.522 113.701 199.741 113.701 198.78Z" fill="#4285F4"/>
<path d="M134.448 185.745C134.448 184.789 133.677 184.007 132.719 184.007C131.768 184.007 130.99 184.789 130.99 185.745C130.99 186.709 131.768 187.483 132.719 187.483C133.677 187.483 134.448 186.709 134.448 185.745Z" fill="#4285F4"/>
<path d="M156.058 173.576C156.058 172.613 155.282 171.838 154.333 171.838C153.377 171.838 152.601 172.613 152.601 173.576C152.601 174.533 153.377 175.315 154.333 175.315C155.282 175.315 156.058 174.533 156.058 173.576Z" fill="#4285F4"/>
<path d="M178.535 160.538C178.535 159.581 177.757 158.8 176.806 158.8C175.848 158.8 175.077 159.581 175.077 160.538C175.077 161.501 175.848 162.276 176.806 162.276C177.757 162.276 178.535 161.501 178.535 160.538Z" fill="#4285F4"/>
<path d="M201.012 147.5C201.012 146.544 200.234 145.762 199.283 145.762C198.324 145.762 197.554 146.544 197.554 147.5C197.554 148.463 198.324 149.238 199.283 149.238C200.234 149.238 201.012 148.463 201.012 147.5Z" fill="#4285F4"/>
<path d="M156.058 198.78C156.058 197.825 155.282 197.045 154.333 197.045C153.377 197.045 152.601 197.825 152.601 198.78C152.601 199.741 153.377 200.522 154.333 200.522C155.282 200.522 156.058 199.741 156.058 198.78Z" fill="#4285F4"/>
<path d="M178.535 185.745C178.535 184.789 177.757 184.007 176.806 184.007C175.848 184.007 175.077 184.789 175.077 185.745C175.077 186.709 175.848 187.483 176.806 187.483C177.757 187.483 178.535 186.709 178.535 185.745Z" fill="#4285F4"/>
<path d="M201.012 173.576C201.012 172.613 200.234 171.838 199.283 171.838C198.324 171.838 197.554 172.613 197.554 173.576C197.554 174.533 198.324 175.315 199.283 175.315C200.234 175.315 201.012 174.533 201.012 173.576Z" fill="#4285F4"/>
<path d="M223.488 160.538C223.488 159.581 222.717 158.8 221.759 158.8C220.808 158.8 220.03 159.581 220.03 160.538C220.03 161.501 220.808 162.276 221.759 162.276C222.717 162.276 223.488 161.501 223.488 160.538Z" fill="#4285F4"/>
<path d="M201.012 198.78C201.012 197.825 200.234 197.045 199.283 197.045C198.324 197.045 197.554 197.825 197.554 198.78C197.554 199.741 198.324 200.522 199.283 200.522C200.234 200.522 201.012 199.741 201.012 198.78Z" fill="#4285F4"/>
<path d="M223.488 185.745C223.488 184.789 222.717 184.007 221.759 184.007C220.808 184.007 220.03 184.789 220.03 185.745C220.03 186.709 220.808 187.483 221.759 187.483C222.717 187.483 223.488 186.709 223.488 185.745Z" fill="#4285F4"/>
<path d="M245.963 173.576C245.963 172.613 245.192 171.838 244.234 171.838C243.283 171.838 242.505 172.613 242.505 173.576C242.505 174.533 243.283 175.315 244.234 175.315C245.192 175.315 245.963 174.533 245.963 173.576Z" fill="#4285F4"/>
<path d="M245.963 198.78C245.963 197.825 245.192 197.045 244.234 197.045C243.283 197.045 242.505 197.825 242.505 198.78C242.505 199.741 243.283 200.522 244.234 200.522C245.192 200.522 245.963 199.741 245.963 198.78Z" fill="#4285F4"/>
<path d="M266.711 185.745C266.711 184.789 265.935 184.007 264.978 184.007C264.029 184.007 263.253 184.789 263.253 185.745C263.253 186.709 264.029 187.483 264.978 187.483C265.935 187.483 266.711 186.709 266.711 185.745Z" fill="#4285F4"/>
<path d="M288.322 198.78C288.322 197.825 287.544 197.045 286.593 197.045C285.635 197.045 284.864 197.825 284.864 198.78C284.864 199.741 285.635 200.522 286.593 200.522C287.544 200.522 288.322 199.741 288.322 198.78Z" fill="#4285F4"/>
<path d="M24.661 44.9337C24.661 43.9703 23.8903 43.1953 22.9321 43.1953C21.9808 43.1953 21.2031 43.9703 21.2031 44.9337C21.2031 45.8902 21.9808 46.6721 22.9321 46.6721C23.8903 46.6721 24.661 45.8902 24.661 44.9337Z" fill="#4285F4"/>
<path d="M24.661 71.0098C24.661 70.0534 23.8903 69.2714 22.9321 69.2714C21.9808 69.2714 21.2031 70.0534 21.2031 71.0098C21.2031 71.9733 21.9808 72.7483 22.9321 72.7483C23.8903 72.7483 24.661 71.9733 24.661 71.0098Z" fill="#4285F4"/>
<path d="M47.1376 57.9719C47.1376 57.0154 46.3599 56.2335 45.4086 56.2335C44.4504 56.2335 43.6797 57.0154 43.6797 57.9719C43.6797 58.9284 44.4504 59.7103 45.4086 59.7103C46.3599 59.7103 47.1376 58.9284 47.1376 57.9719Z" fill="#4285F4"/>
<path d="M24.661 96.217C24.661 95.2535 23.8903 94.4786 22.9321 94.4786C21.9808 94.4786 21.2031 95.2535 21.2031 96.217C21.2031 97.1735 21.9808 97.9554 22.9321 97.9554C23.8903 97.9554 24.661 97.1735 24.661 96.217Z" fill="#4285F4"/>
<path d="M47.1376 84.0518C47.1376 83.0902 46.3599 82.3099 45.4086 82.3099C44.4504 82.3099 43.6797 83.0902 43.6797 84.0518C43.6797 85.0063 44.4504 85.7867 45.4086 85.7867C46.3599 85.7867 47.1376 85.0063 47.1376 84.0518Z" fill="#4285F4"/>
<path d="M68.7489 71.0098C68.7489 70.0534 67.9712 69.2714 67.0199 69.2714C66.0617 69.2714 65.291 70.0534 65.291 71.0098C65.291 71.9733 66.0617 72.7483 67.0199 72.7483C67.9712 72.7483 68.7489 71.9733 68.7489 71.0098Z" fill="#4285F4"/>
<path d="M24.661 122.293C24.661 121.33 23.8903 120.555 22.9321 120.555C21.9808 120.555 21.2031 121.33 21.2031 122.293C21.2031 123.25 21.9808 124.032 22.9321 124.032C23.8903 124.032 24.661 123.25 24.661 122.293Z" fill="#4285F4"/>
<path d="M47.1376 109.255C47.1376 108.298 46.3599 107.517 45.4086 107.517C44.4504 107.517 43.6797 108.298 43.6797 109.255C43.6797 110.218 44.4504 110.993 45.4086 110.993C46.3599 110.993 47.1376 110.218 47.1376 109.255Z" fill="#4285F4"/>
<path d="M68.7489 96.217C68.7489 95.2535 67.9712 94.4786 67.0199 94.4786C66.0617 94.4786 65.291 95.2535 65.291 96.217C65.291 97.1735 66.0617 97.9554 67.0199 97.9554C67.9712 97.9554 68.7489 97.1735 68.7489 96.217Z" fill="#4285F4"/>
<path d="M91.2245 84.0515C91.2245 83.09 90.4468 82.3096 89.4955 82.3096C88.5443 82.3096 87.7666 83.09 87.7666 84.0515C87.7666 85.0061 88.5443 85.7865 89.4955 85.7865C90.4468 85.7865 91.2245 85.0061 91.2245 84.0515Z" fill="#4285F4"/>
<path d="M24.661 147.5C24.661 146.544 23.8903 145.762 22.9321 145.762C21.9808 145.762 21.2031 146.544 21.2031 147.5C21.2031 148.463 21.9808 149.238 22.9321 149.238C23.8903 149.238 24.661 148.463 24.661 147.5Z" fill="#4285F4"/>
<path d="M47.1376 135.331C47.1376 134.368 46.3599 133.593 45.4086 133.593C44.4504 133.593 43.6797 134.368 43.6797 135.331C43.6797 136.288 44.4504 137.069 45.4086 137.069C46.3599 137.069 47.1376 136.288 47.1376 135.331Z" fill="#4285F4"/>
<path d="M68.7489 122.293C68.7489 121.33 67.9712 120.555 67.0199 120.555C66.0617 120.555 65.291 121.33 65.291 122.293C65.291 123.25 66.0617 124.032 67.0199 124.032C67.9712 124.032 68.7489 123.25 68.7489 122.293Z" fill="#4285F4"/>
<path d="M91.2245 109.255C91.2245 108.298 90.4468 107.517 89.4955 107.517C88.5443 107.517 87.7666 108.298 87.7666 109.255C87.7666 110.218 88.5443 110.993 89.4955 110.993C90.4468 110.993 91.2245 110.218 91.2245 109.255Z" fill="#4285F4"/>
<path d="M113.701 96.217C113.701 95.2535 112.93 94.4786 111.972 94.4786C111.021 94.4786 110.243 95.2535 110.243 96.217C110.243 97.1735 111.021 97.9554 111.972 97.9554C112.93 97.9554 113.701 97.1735 113.701 96.217Z" fill="#4285F4"/>
<path d="M24.661 173.576C24.661 172.613 23.8903 171.838 22.9321 171.838C21.9808 171.838 21.2031 172.613 21.2031 173.576C21.2031 174.533 21.9808 175.315 22.9321 175.315C23.8903 175.315 24.661 174.533 24.661 173.576Z" fill="#4285F4"/>
<path d="M47.1376 160.538C47.1376 159.581 46.3599 158.8 45.4086 158.8C44.4504 158.8 43.6797 159.581 43.6797 160.538C43.6797 161.501 44.4504 162.276 45.4086 162.276C46.3599 162.276 47.1376 161.501 47.1376 160.538Z" fill="#4285F4"/>
<path d="M68.7489 147.5C68.7489 146.544 67.9712 145.762 67.0199 145.762C66.0617 145.762 65.291 146.544 65.291 147.5C65.291 148.463 66.0617 149.238 67.0199 149.238C67.9712 149.238 68.7489 148.463 68.7489 147.5Z" fill="#4285F4"/>
<path d="M91.2245 135.331C91.2245 134.368 90.4468 133.593 89.4955 133.593C88.5443 133.593 87.7666 134.368 87.7666 135.331C87.7666 136.288 88.5443 137.069 89.4955 137.069C90.4468 137.069 91.2245 136.288 91.2245 135.331Z" fill="#4285F4"/>
<path d="M113.701 122.293C113.701 121.33 112.93 120.555 111.972 120.555C111.021 120.555 110.243 121.33 110.243 122.293C110.243 123.25 111.021 124.032 111.972 124.032C112.93 124.032 113.701 123.25 113.701 122.293Z" fill="#4285F4"/>
<path d="M134.448 109.255C134.448 108.298 133.677 107.517 132.719 107.517C131.768 107.517 130.99 108.298 130.99 109.255C130.99 110.218 131.768 110.993 132.719 110.993C133.677 110.993 134.448 110.218 134.448 109.255Z" fill="#4285F4"/>
<path d="M505.971 19.7268C505.971 18.7703 505.2 17.9884 504.242 17.9884C503.29 17.9884 502.513 18.7703 502.513 19.7268C502.513 20.6833 503.29 21.4652 504.242 21.4652C505.2 21.4652 505.971 20.6833 505.971 19.7268Z" fill="#4285F4"/>
<path d="M505.971 198.78C505.971 197.825 505.2 197.045 504.242 197.045C503.29 197.045 502.513 197.825 502.513 198.78C502.513 199.741 503.29 200.522 504.242 200.522C505.2 200.522 505.971 199.741 505.971 198.78Z" fill="#4285F4"/>
<path d="M505.971 44.9337C505.971 43.9703 505.2 43.1953 504.242 43.1953C503.29 43.1953 502.513 43.9703 502.513 44.9337C502.513 45.8902 503.29 46.6721 504.242 46.6721C505.2 46.6721 505.971 45.8902 505.971 44.9337Z" fill="#4285F4"/>
<path d="M505.971 71.0098C505.971 70.0534 505.2 69.2714 504.242 69.2714C503.29 69.2714 502.513 70.0534 502.513 71.0098C502.513 71.9733 503.29 72.7483 504.242 72.7483C505.2 72.7483 505.971 71.9733 505.971 71.0098Z" fill="#4285F4"/>
<path d="M505.971 96.217C505.971 95.2535 505.2 94.4786 504.242 94.4786C503.29 94.4786 502.513 95.2535 502.513 96.217C502.513 97.1735 503.29 97.9554 504.242 97.9554C505.2 97.9554 505.971 97.1735 505.971 96.217Z" fill="#4285F4"/>
<path d="M505.971 122.293C505.971 121.33 505.2 120.555 504.242 120.555C503.29 120.555 502.513 121.33 502.513 122.293C502.513 123.25 503.29 124.032 504.242 124.032C505.2 124.032 505.971 123.25 505.971 122.293Z" fill="#4285F4"/>
<path d="M505.971 147.5C505.971 146.544 505.2 145.762 504.242 145.762C503.29 145.762 502.513 146.544 502.513 147.5C502.513 148.463 503.29 149.238 504.242 149.238C505.2 149.238 505.971 148.463 505.971 147.5Z" fill="#4285F4"/>
<path d="M505.971 173.576C505.971 172.613 505.2 171.838 504.242 171.838C503.29 171.838 502.513 172.613 502.513 173.576C502.513 174.533 503.29 175.315 504.242 175.315C505.2 175.315 505.971 174.533 505.971 173.576Z" fill="#4285F4"/>
</g>
</g>
</svg>
