<svg width="504" height="72" viewBox="0 0 504 72" fill="none" xmlns="http://www.w3.org/2000/svg">
<mask id="mask0_337_1617" style="mask-type:alpha" maskUnits="userSpaceOnUse" x="0" y="0" width="504" height="72">
<path d="M0 20C0 8.95431 8.95431 0 20 0H484C495.046 0 504 8.95431 504 20V72H0V20Z" fill="#D9D9D9"/>
</mask>
<g mask="url(#mask0_337_1617)">
<rect x="-427" width="1440" height="320" fill="#0493FB" fill-opacity="0.04"/>
<g opacity="0.4">
<path d="M0.0262246 19.7615C0.0262246 18.807 -0.744503 18.0266 -1.70271 18.0266C-2.65397 18.0266 -3.43164 18.807 -3.43164 19.7615C-3.43164 20.7231 -2.65397 21.5034 -1.70271 21.5034C-0.744503 21.5034 0.0262246 20.7231 0.0262246 19.7615Z" fill="#4285F4"/>
<path d="M21.6376 6.72684C21.6376 5.77036 20.8668 4.98842 19.9086 4.98842C18.9574 4.98842 18.1797 5.77036 18.1797 6.72684C18.1797 7.68332 18.9574 8.46526 19.9086 8.46526C20.8668 8.46526 21.6376 7.68332 21.6376 6.72684Z" fill="#4285F4"/>
<path d="M0.0262246 44.9719C0.0262246 44.0154 -0.744503 43.2335 -1.70271 43.2335C-2.65397 43.2335 -3.43164 44.0154 -3.43164 44.9719C-3.43164 45.9284 -2.65397 46.7103 -1.70271 46.7103C-0.744503 46.7103 0.0262246 45.9284 0.0262246 44.9719Z" fill="#4285F4"/>
<path d="M21.6376 31.9337C21.6376 30.9703 20.8668 30.1953 19.9086 30.1953C18.9574 30.1953 18.1797 30.9703 18.1797 31.9337C18.1797 32.8902 18.9574 33.6721 19.9086 33.6721C20.8668 33.6721 21.6376 32.8902 21.6376 31.9337Z" fill="#4285F4"/>
<path d="M43.2489 19.7615C43.2489 18.807 42.4728 18.0266 41.5165 18.0266C40.5671 18.0266 39.791 18.807 39.791 19.7615C39.791 20.7231 40.5671 21.5034 41.5165 21.5034C42.4728 21.5034 43.2489 20.7231 43.2489 19.7615Z" fill="#4285F4"/>
<path d="M21.6376 58.0098C21.6376 57.0534 20.8668 56.2714 19.9086 56.2714C18.9574 56.2714 18.1797 57.0534 18.1797 58.0098C18.1797 58.9733 18.9574 59.7483 19.9086 59.7483C20.8668 59.7483 21.6376 58.9733 21.6376 58.0098Z" fill="#4285F4"/>
<path d="M43.2489 44.9719C43.2489 44.0154 42.4728 43.2335 41.5165 43.2335C40.5671 43.2335 39.791 44.0154 39.791 44.9719C39.791 45.9284 40.5671 46.7103 41.5165 46.7103C42.4728 46.7103 43.2489 45.9284 43.2489 44.9719Z" fill="#4285F4"/>
<path d="M43.2489 71.0515C43.2489 70.09 42.4728 69.3096 41.5165 69.3096C40.5671 69.3096 39.791 70.09 39.791 71.0515C39.791 72.0061 40.5671 72.7865 41.5165 72.7865C42.4728 72.7865 43.2489 72.0061 43.2489 71.0515Z" fill="#4285F4"/>
<path d="M0.0262246 71.0515C0.0262246 70.09 -0.744503 69.3096 -1.70271 69.3096C-2.65397 69.3096 -3.43164 70.09 -3.43164 71.0515C-3.43164 72.0061 -2.65397 72.7865 -1.70271 72.7865C-0.744503 72.7865 0.0262246 72.0061 0.0262246 71.0515Z" fill="#4285F4"/>
<path d="M416.362 6.72684C416.362 5.77036 415.586 4.98842 414.637 4.98842C413.68 4.98842 412.904 5.77036 412.904 6.72684C412.904 7.68332 413.68 8.46526 414.637 8.46526C415.586 8.46526 416.362 7.68332 416.362 6.72684Z" fill="#4285F4"/>
<path d="M437.973 19.7615C437.973 18.807 437.196 18.0266 436.245 18.0266C435.286 18.0266 434.516 18.807 434.516 19.7615C434.516 20.7231 435.286 21.5034 436.245 21.5034C437.196 21.5034 437.973 20.7231 437.973 19.7615Z" fill="#4285F4"/>
<path d="M458.721 6.72684C458.721 5.77036 457.943 4.98842 456.992 4.98842C456.033 4.98842 455.263 5.77036 455.263 6.72684C455.263 7.68332 456.033 8.46526 456.992 8.46526C457.943 8.46526 458.721 7.68332 458.721 6.72684Z" fill="#4285F4"/>
<path d="M458.721 31.9337C458.721 30.9703 457.943 30.1953 456.992 30.1953C456.033 30.1953 455.263 30.9703 455.263 31.9337C455.263 32.8902 456.033 33.6721 456.992 33.6721C457.943 33.6721 458.721 32.8902 458.721 31.9337Z" fill="#4285F4"/>
<path d="M482.06 19.7615C482.06 18.807 481.29 18.0266 480.331 18.0266C479.38 18.0266 478.603 18.807 478.603 19.7615C478.603 20.7231 479.38 21.5034 480.331 21.5034C481.29 21.5034 482.06 20.7231 482.06 19.7615Z" fill="#4285F4"/>
<path d="M503.673 6.72684C503.673 5.77036 502.902 4.98842 501.944 4.98842C500.993 4.98842 500.215 5.77036 500.215 6.72684C500.215 7.68332 500.993 8.46526 501.944 8.46526C502.902 8.46526 503.673 7.68332 503.673 6.72684Z" fill="#4285F4"/>
<path d="M482.06 44.9719C482.06 44.0154 481.29 43.2335 480.331 43.2335C479.38 43.2335 478.603 44.0154 478.603 44.9719C478.603 45.9284 479.38 46.7103 480.331 46.7103C481.29 46.7103 482.06 45.9284 482.06 44.9719Z" fill="#4285F4"/>
<path d="M503.673 31.9337C503.673 30.9703 502.902 30.1953 501.944 30.1953C500.993 30.1953 500.215 30.9703 500.215 31.9337C500.215 32.8902 500.993 33.6721 501.944 33.6721C502.902 33.6721 503.673 32.8902 503.673 31.9337Z" fill="#4285F4"/>
<path d="M503.673 58.0098C503.673 57.0534 502.902 56.2714 501.944 56.2714C500.993 56.2714 500.215 57.0534 500.215 58.0098C500.215 58.9733 500.993 59.7483 501.944 59.7483C502.902 59.7483 503.673 58.9733 503.673 58.0098Z" fill="#4285F4"/>
<path d="M262.488 71.0515C262.488 70.09 261.717 69.3096 260.759 69.3096C259.808 69.3096 259.03 70.09 259.03 71.0515C259.03 72.0061 259.808 72.7865 260.759 72.7865C261.717 72.7865 262.488 72.0061 262.488 71.0515Z" fill="#4285F4"/>
<path d="M284.963 58.0098C284.963 57.0534 284.192 56.2714 283.234 56.2714C282.283 56.2714 281.505 57.0534 281.505 58.0098C281.505 58.9733 282.283 59.7483 283.234 59.7483C284.192 59.7483 284.963 58.9733 284.963 58.0098Z" fill="#4285F4"/>
<path d="M305.711 44.9719C305.711 44.0154 304.935 43.2335 303.978 43.2335C303.029 43.2335 302.253 44.0154 302.253 44.9719C302.253 45.9284 303.029 46.7103 303.978 46.7103C304.935 46.7103 305.711 45.9284 305.711 44.9719Z" fill="#4285F4"/>
<path d="M327.322 31.9337C327.322 30.9703 326.544 30.1953 325.593 30.1953C324.635 30.1953 323.864 30.9703 323.864 31.9337C323.864 32.8902 324.635 33.6721 325.593 33.6721C326.544 33.6721 327.322 32.8902 327.322 31.9337Z" fill="#4285F4"/>
<path d="M350.663 19.7615C350.663 18.807 349.892 18.0266 348.934 18.0266C347.983 18.0266 347.205 18.807 347.205 19.7615C347.205 20.7231 347.983 21.5034 348.934 21.5034C349.892 21.5034 350.663 20.7231 350.663 19.7615Z" fill="#4285F4"/>
<path d="M371.409 6.72684C371.409 5.77036 370.638 4.98842 369.68 4.98842C368.729 4.98842 367.951 5.77036 367.951 6.72684C367.951 7.68332 368.729 8.46526 369.68 8.46526C370.638 8.46526 371.409 7.68332 371.409 6.72684Z" fill="#4285F4"/>
<path d="M305.711 71.0515C305.711 70.09 304.935 69.3096 303.978 69.3096C303.029 69.3096 302.253 70.09 302.253 71.0515C302.253 72.0061 303.029 72.7865 303.978 72.7865C304.935 72.7865 305.711 72.0061 305.711 71.0515Z" fill="#4285F4"/>
<path d="M327.322 58.0098C327.322 57.0534 326.544 56.2714 325.593 56.2714C324.635 56.2714 323.864 57.0534 323.864 58.0098C323.864 58.9733 324.635 59.7483 325.593 59.7483C326.544 59.7483 327.322 58.9733 327.322 58.0098Z" fill="#4285F4"/>
<path d="M350.663 44.9719C350.663 44.0154 349.892 43.2335 348.934 43.2335C347.983 43.2335 347.205 44.0154 347.205 44.9719C347.205 45.9284 347.983 46.7103 348.934 46.7103C349.892 46.7103 350.663 45.9284 350.663 44.9719Z" fill="#4285F4"/>
<path d="M371.409 31.9337C371.409 30.9703 370.638 30.1953 369.68 30.1953C368.729 30.1953 367.951 30.9703 367.951 31.9337C367.951 32.8902 368.729 33.6721 369.68 33.6721C370.638 33.6721 371.409 32.8902 371.409 31.9337Z" fill="#4285F4"/>
<path d="M393.887 19.7615C393.887 18.807 393.116 18.0266 392.158 18.0266C391.206 18.0266 390.429 18.807 390.429 19.7615C390.429 20.7231 391.206 21.5034 392.158 21.5034C393.116 21.5034 393.887 20.7231 393.887 19.7615Z" fill="#4285F4"/>
<path d="M350.663 71.0515C350.663 70.09 349.892 69.3096 348.934 69.3096C347.983 69.3096 347.205 70.09 347.205 71.0515C347.205 72.0061 347.983 72.7865 348.934 72.7865C349.892 72.7865 350.663 72.0061 350.663 71.0515Z" fill="#4285F4"/>
<path d="M371.409 58.0098C371.409 57.0534 370.638 56.2714 369.68 56.2714C368.722 56.2714 367.951 57.0534 367.951 58.0098C367.951 58.9733 368.722 59.7483 369.68 59.7483C370.638 59.7483 371.409 58.9733 371.409 58.0098Z" fill="#4285F4"/>
<path d="M393.887 44.9719C393.887 44.0154 393.116 43.2335 392.158 43.2335C391.206 43.2335 390.429 44.0154 390.429 44.9719C390.429 45.9284 391.206 46.7103 392.158 46.7103C393.116 46.7103 393.887 45.9284 393.887 44.9719Z" fill="#4285F4"/>
<path d="M416.362 31.9337C416.362 30.9703 415.586 30.1953 414.637 30.1953C413.68 30.1953 412.904 30.9703 412.904 31.9337C412.904 32.8902 413.68 33.6721 414.637 33.6721C415.586 33.6721 416.362 32.8902 416.362 31.9337Z" fill="#4285F4"/>
<path d="M393.887 71.0515C393.887 70.09 393.116 69.3096 392.158 69.3096C391.206 69.3096 390.429 70.09 390.429 71.0515C390.429 72.0061 391.206 72.7865 392.158 72.7865C393.116 72.7865 393.887 72.0061 393.887 71.0515Z" fill="#4285F4"/>
<path d="M416.362 58.0098C416.362 57.0534 415.586 56.2714 414.637 56.2714C413.68 56.2714 412.904 57.0534 412.904 58.0098C412.904 58.9733 413.68 59.7483 414.637 59.7483C415.586 59.7483 416.362 58.9733 416.362 58.0098Z" fill="#4285F4"/>
<path d="M437.973 44.9719C437.973 44.0154 437.196 43.2335 436.245 43.2335C435.286 43.2335 434.516 44.0154 434.516 44.9719C434.516 45.9284 435.286 46.7103 436.245 46.7103C437.196 46.7103 437.973 45.9284 437.973 44.9719Z" fill="#4285F4"/>
<path d="M437.973 71.0515C437.973 70.09 437.196 69.3096 436.245 69.3096C435.286 69.3096 434.516 70.09 434.516 71.0515C434.516 72.0061 435.286 72.7865 436.245 72.7865C437.196 72.7865 437.973 72.0061 437.973 71.0515Z" fill="#4285F4"/>
<path d="M458.721 58.0098C458.721 57.0534 457.943 56.2714 456.992 56.2714C456.033 56.2714 455.263 57.0534 455.263 58.0098C455.263 58.9733 456.033 59.7483 456.992 59.7483C457.943 59.7483 458.721 58.9733 458.721 58.0098Z" fill="#4285F4"/>
<path d="M482.06 71.0515C482.06 70.09 481.29 69.3096 480.331 69.3096C479.38 69.3096 478.603 70.09 478.603 71.0515C478.603 72.0061 479.38 72.7865 480.331 72.7865C481.29 72.7865 482.06 72.0061 482.06 71.0515Z" fill="#4285F4"/>
<path d="M63.661 6.72682C63.661 5.77034 62.8903 4.9884 61.9321 4.9884C60.9808 4.9884 60.2031 5.77034 60.2031 6.72682C60.2031 7.6833 60.9808 8.46524 61.9321 8.46524C62.8903 8.46524 63.661 7.6833 63.661 6.72682Z" fill="#4285F4"/>
<path d="M86.1376 19.7653C86.1376 18.8088 85.3599 18.0268 84.4086 18.0268C83.4504 18.0268 82.6797 18.8088 82.6797 19.7653C82.6797 20.7287 83.4504 21.5037 84.4086 21.5037C85.3599 21.5037 86.1376 20.7287 86.1376 19.7653Z" fill="#4285F4"/>
<path d="M107.749 6.72684C107.749 5.77036 106.971 4.98842 106.02 4.98842C105.062 4.98842 104.291 5.77036 104.291 6.72684C104.291 7.68332 105.062 8.46526 106.02 8.46526C106.971 8.46526 107.749 7.68332 107.749 6.72684Z" fill="#4285F4"/>
<path d="M107.749 31.9337C107.749 30.9703 106.971 30.1953 106.02 30.1953C105.062 30.1953 104.291 30.9703 104.291 31.9337C104.291 32.8902 105.062 33.6721 106.02 33.6721C106.971 33.6721 107.749 32.8902 107.749 31.9337Z" fill="#4285F4"/>
<path d="M130.224 19.765C130.224 18.8085 129.447 18.0266 128.496 18.0266C127.544 18.0266 126.767 18.8085 126.767 19.765C126.767 20.7285 127.544 21.5034 128.496 21.5034C129.447 21.5034 130.224 20.7285 130.224 19.765Z" fill="#4285F4"/>
<path d="M152.701 6.72684C152.701 5.77036 151.93 4.98842 150.972 4.98842C150.021 4.98842 149.243 5.77036 149.243 6.72684C149.243 7.68332 150.021 8.46526 150.972 8.46526C151.93 8.46526 152.701 7.68332 152.701 6.72684Z" fill="#4285F4"/>
<path d="M130.224 44.9719C130.224 44.0154 129.447 43.2335 128.496 43.2335C127.544 43.2335 126.767 44.0154 126.767 44.9719C126.767 45.9284 127.544 46.7103 128.496 46.7103C129.447 46.7103 130.224 45.9284 130.224 44.9719Z" fill="#4285F4"/>
<path d="M152.701 31.9337C152.701 30.9703 151.93 30.1953 150.972 30.1953C150.021 30.1953 149.243 30.9703 149.243 31.9337C149.243 32.8902 150.021 33.6721 150.972 33.6721C151.93 33.6721 152.701 32.8902 152.701 31.9337Z" fill="#4285F4"/>
<path d="M173.448 19.765C173.448 18.8085 172.677 18.0266 171.719 18.0266C170.768 18.0266 169.99 18.8085 169.99 19.765C169.99 20.7285 170.768 21.5034 171.719 21.5034C172.677 21.5034 173.448 20.7285 173.448 19.765Z" fill="#4285F4"/>
<path d="M195.058 6.72684C195.058 5.77036 194.282 4.98842 193.333 4.98842C192.377 4.98842 191.601 5.77036 191.601 6.72684C191.601 7.68332 192.377 8.46526 193.333 8.46526C194.282 8.46526 195.058 7.68332 195.058 6.72684Z" fill="#4285F4"/>
<path d="M152.701 58.0098C152.701 57.0534 151.93 56.2714 150.972 56.2714C150.021 56.2714 149.243 57.0534 149.243 58.0098C149.243 58.9733 150.021 59.7483 150.972 59.7483C151.93 59.7483 152.701 58.9733 152.701 58.0098Z" fill="#4285F4"/>
<path d="M173.448 44.9719C173.448 44.0154 172.677 43.2335 171.719 43.2335C170.768 43.2335 169.99 44.0154 169.99 44.9719C169.99 45.9284 170.768 46.7103 171.719 46.7103C172.677 46.7103 173.448 45.9284 173.448 44.9719Z" fill="#4285F4"/>
<path d="M195.058 31.9337C195.058 30.9703 194.282 30.1953 193.333 30.1953C192.377 30.1953 191.601 30.9703 191.601 31.9337C191.601 32.8902 192.377 33.6721 193.333 33.6721C194.282 33.6721 195.058 32.8902 195.058 31.9337Z" fill="#4285F4"/>
<path d="M217.535 19.765C217.535 18.8085 216.757 18.0266 215.806 18.0266C214.848 18.0266 214.077 18.8085 214.077 19.765C214.077 20.7285 214.848 21.5034 215.806 21.5034C216.757 21.5034 217.535 20.7285 217.535 19.765Z" fill="#4285F4"/>
<path d="M240.012 6.72684C240.012 5.77036 239.234 4.98842 238.283 4.98842C237.324 4.98842 236.554 5.77036 236.554 6.72684C236.554 7.68332 237.324 8.46526 238.283 8.46526C239.234 8.46526 240.012 7.68332 240.012 6.72684Z" fill="#4285F4"/>
<path d="M173.448 71.0518C173.448 70.0902 172.677 69.3099 171.719 69.3099C170.768 69.3099 169.99 70.0902 169.99 71.0518C169.99 72.0063 170.768 72.7867 171.719 72.7867C172.677 72.7867 173.448 72.0063 173.448 71.0518Z" fill="#4285F4"/>
<path d="M195.058 58.0098C195.058 57.0534 194.282 56.2714 193.333 56.2714C192.377 56.2714 191.601 57.0534 191.601 58.0098C191.601 58.9733 192.377 59.7483 193.333 59.7483C194.282 59.7483 195.058 58.9733 195.058 58.0098Z" fill="#4285F4"/>
<path d="M217.535 44.9719C217.535 44.0154 216.757 43.2335 215.806 43.2335C214.848 43.2335 214.077 44.0154 214.077 44.9719C214.077 45.9284 214.848 46.7103 215.806 46.7103C216.757 46.7103 217.535 45.9284 217.535 44.9719Z" fill="#4285F4"/>
<path d="M240.012 31.9337C240.012 30.9703 239.234 30.1953 238.283 30.1953C237.324 30.1953 236.554 30.9703 236.554 31.9337C236.554 32.8902 237.324 33.6721 238.283 33.6721C239.234 33.6721 240.012 32.8902 240.012 31.9337Z" fill="#4285F4"/>
<path d="M262.488 19.765C262.488 18.8085 261.717 18.0266 260.759 18.0266C259.808 18.0266 259.03 18.8085 259.03 19.765C259.03 20.7285 259.808 21.5034 260.759 21.5034C261.717 21.5034 262.488 20.7285 262.488 19.765Z" fill="#4285F4"/>
<path d="M284.963 6.72684C284.963 5.77036 284.192 4.98842 283.234 4.98842C282.283 4.98842 281.505 5.77036 281.505 6.72684C281.505 7.68332 282.283 8.46526 283.234 8.46526C284.192 8.46526 284.963 7.68332 284.963 6.72684Z" fill="#4285F4"/>
<path d="M217.535 71.0515C217.535 70.09 216.757 69.3096 215.806 69.3096C214.848 69.3096 214.077 70.09 214.077 71.0515C214.077 72.0061 214.848 72.7865 215.806 72.7865C216.757 72.7865 217.535 72.0061 217.535 71.0515Z" fill="#4285F4"/>
<path d="M240.012 58.0098C240.012 57.0534 239.234 56.2714 238.283 56.2714C237.324 56.2714 236.554 57.0534 236.554 58.0098C236.554 58.9733 237.324 59.7483 238.283 59.7483C239.234 59.7483 240.012 58.9733 240.012 58.0098Z" fill="#4285F4"/>
<path d="M262.488 44.9719C262.488 44.0154 261.717 43.2335 260.759 43.2335C259.808 43.2335 259.03 44.0154 259.03 44.9719C259.03 45.9284 259.808 46.7103 260.759 46.7103C261.717 46.7103 262.488 45.9284 262.488 44.9719Z" fill="#4285F4"/>
<path d="M284.963 31.9337C284.963 30.9703 284.192 30.1953 283.234 30.1953C282.283 30.1953 281.505 30.9703 281.505 31.9337C281.505 32.8902 282.283 33.6721 283.234 33.6721C284.192 33.6721 284.963 32.8902 284.963 31.9337Z" fill="#4285F4"/>
<path d="M305.711 19.765C305.711 18.8085 304.935 18.0266 303.978 18.0266C303.029 18.0266 302.253 18.8085 302.253 19.765C302.253 20.7285 303.029 21.5034 303.978 21.5034C304.935 21.5034 305.711 20.7285 305.711 19.765Z" fill="#4285F4"/>
<path d="M327.322 6.72684C327.322 5.77036 326.544 4.98842 325.593 4.98842C324.635 4.98842 323.864 5.77036 323.864 6.72684C323.864 7.68332 324.635 8.46526 325.593 8.46526C326.544 8.46526 327.322 7.68332 327.322 6.72684Z" fill="#4285F4"/>
<path d="M63.661 31.9337C63.661 30.9703 62.8903 30.1953 61.9321 30.1953C60.9808 30.1953 60.2031 30.9703 60.2031 31.9337C60.2031 32.8902 60.9808 33.6721 61.9321 33.6721C62.8903 33.6721 63.661 32.8902 63.661 31.9337Z" fill="#4285F4"/>
<path d="M63.661 58.0098C63.661 57.0534 62.8903 56.2714 61.9321 56.2714C60.9808 56.2714 60.2031 57.0534 60.2031 58.0098C60.2031 58.9733 60.9808 59.7483 61.9321 59.7483C62.8903 59.7483 63.661 58.9733 63.661 58.0098Z" fill="#4285F4"/>
<path d="M86.1376 44.9719C86.1376 44.0154 85.3599 43.2335 84.4086 43.2335C83.4504 43.2335 82.6797 44.0154 82.6797 44.9719C82.6797 45.9284 83.4504 46.7103 84.4086 46.7103C85.3599 46.7103 86.1376 45.9284 86.1376 44.9719Z" fill="#4285F4"/>
<path d="M86.1376 71.0518C86.1376 70.0902 85.3599 69.3099 84.4086 69.3099C83.4504 69.3099 82.6797 70.0902 82.6797 71.0518C82.6797 72.0063 83.4504 72.7867 84.4086 72.7867C85.3599 72.7867 86.1376 72.0063 86.1376 71.0518Z" fill="#4285F4"/>
<path d="M107.749 58.0098C107.749 57.0534 106.971 56.2714 106.02 56.2714C105.062 56.2714 104.291 57.0534 104.291 58.0098C104.291 58.9733 105.062 59.7483 106.02 59.7483C106.971 59.7483 107.749 58.9733 107.749 58.0098Z" fill="#4285F4"/>
<path d="M130.224 71.0515C130.224 70.09 129.447 69.3096 128.496 69.3096C127.544 69.3096 126.767 70.09 126.767 71.0515C126.767 72.0061 127.544 72.7865 128.496 72.7865C129.447 72.7865 130.224 72.0061 130.224 71.0515Z" fill="#4285F4"/>
</g>
</g>
</svg>
