<svg width="336" height="72" viewBox="0 0 336 72" fill="none" xmlns="http://www.w3.org/2000/svg">
<mask id="mask0_337_19943" style="mask-type:alpha" maskUnits="userSpaceOnUse" x="0" y="0" width="336" height="72">
<path d="M0 20C0 8.95431 8.95431 0 20 0H316C327.046 0 336 8.95431 336 20V72H0V20Z" fill="#D9D9D9"/>
</mask>
<g mask="url(#mask0_337_19943)">
<rect x="-550" width="1440" height="320" fill="#34A853" fill-opacity="0.04"/>
<g opacity="0.4">
<path d="M293.362 6.72684C293.362 5.77036 292.586 4.98842 291.637 4.98842C290.68 4.98842 289.904 5.77036 289.904 6.72684C289.904 7.68332 290.68 8.46526 291.637 8.46526C292.586 8.46526 293.362 7.68332 293.362 6.72684Z" fill="#34A853"/>
<path d="M314.973 19.7615C314.973 18.807 314.196 18.0266 313.245 18.0266C312.286 18.0266 311.516 18.807 311.516 19.7615C311.516 20.7231 312.286 21.5034 313.245 21.5034C314.196 21.5034 314.973 20.7231 314.973 19.7615Z" fill="#34A853"/>
<path d="M335.721 6.72684C335.721 5.77036 334.943 4.98842 333.992 4.98842C333.033 4.98842 332.263 5.77036 332.263 6.72684C332.263 7.68332 333.033 8.46526 333.992 8.46526C334.943 8.46526 335.721 7.68332 335.721 6.72684Z" fill="#34A853"/>
<path d="M335.721 31.9337C335.721 30.9703 334.943 30.1953 333.992 30.1953C333.033 30.1953 332.263 30.9703 332.263 31.9337C332.263 32.8902 333.033 33.6721 333.992 33.6721C334.943 33.6721 335.721 32.8902 335.721 31.9337Z" fill="#34A853"/>
<path d="M139.488 71.0515C139.488 70.09 138.717 69.3096 137.759 69.3096C136.808 69.3096 136.03 70.09 136.03 71.0515C136.03 72.0061 136.808 72.7865 137.759 72.7865C138.717 72.7865 139.488 72.0061 139.488 71.0515Z" fill="#34A853"/>
<path d="M161.963 58.0098C161.963 57.0534 161.192 56.2714 160.234 56.2714C159.283 56.2714 158.505 57.0534 158.505 58.0098C158.505 58.9733 159.283 59.7483 160.234 59.7483C161.192 59.7483 161.963 58.9733 161.963 58.0098Z" fill="#34A853"/>
<path d="M182.711 44.9719C182.711 44.0154 181.935 43.2335 180.978 43.2335C180.029 43.2335 179.253 44.0154 179.253 44.9719C179.253 45.9284 180.029 46.7103 180.978 46.7103C181.935 46.7103 182.711 45.9284 182.711 44.9719Z" fill="#34A853"/>
<path d="M204.322 31.9337C204.322 30.9703 203.544 30.1953 202.593 30.1953C201.635 30.1953 200.864 30.9703 200.864 31.9337C200.864 32.8902 201.635 33.6721 202.593 33.6721C203.544 33.6721 204.322 32.8902 204.322 31.9337Z" fill="#34A853"/>
<path d="M227.663 19.7615C227.663 18.807 226.892 18.0266 225.934 18.0266C224.983 18.0266 224.205 18.807 224.205 19.7615C224.205 20.7231 224.983 21.5034 225.934 21.5034C226.892 21.5034 227.663 20.7231 227.663 19.7615Z" fill="#34A853"/>
<path d="M248.409 6.72684C248.409 5.77036 247.638 4.98842 246.68 4.98842C245.729 4.98842 244.951 5.77036 244.951 6.72684C244.951 7.68332 245.729 8.46526 246.68 8.46526C247.638 8.46526 248.409 7.68332 248.409 6.72684Z" fill="#34A853"/>
<path d="M182.711 71.0515C182.711 70.09 181.935 69.3096 180.978 69.3096C180.029 69.3096 179.253 70.09 179.253 71.0515C179.253 72.0061 180.029 72.7865 180.978 72.7865C181.935 72.7865 182.711 72.0061 182.711 71.0515Z" fill="#34A853"/>
<path d="M204.322 58.0098C204.322 57.0534 203.544 56.2714 202.593 56.2714C201.635 56.2714 200.864 57.0534 200.864 58.0098C200.864 58.9733 201.635 59.7483 202.593 59.7483C203.544 59.7483 204.322 58.9733 204.322 58.0098Z" fill="#34A853"/>
<path d="M227.663 44.9719C227.663 44.0154 226.892 43.2335 225.934 43.2335C224.983 43.2335 224.205 44.0154 224.205 44.9719C224.205 45.9284 224.983 46.7103 225.934 46.7103C226.892 46.7103 227.663 45.9284 227.663 44.9719Z" fill="#34A853"/>
<path d="M248.409 31.9337C248.409 30.9703 247.638 30.1953 246.68 30.1953C245.729 30.1953 244.951 30.9703 244.951 31.9337C244.951 32.8902 245.729 33.6721 246.68 33.6721C247.638 33.6721 248.409 32.8902 248.409 31.9337Z" fill="#34A853"/>
<path d="M270.887 19.7615C270.887 18.807 270.116 18.0266 269.158 18.0266C268.206 18.0266 267.429 18.807 267.429 19.7615C267.429 20.7231 268.206 21.5034 269.158 21.5034C270.116 21.5034 270.887 20.7231 270.887 19.7615Z" fill="#34A853"/>
<path d="M227.663 71.0515C227.663 70.09 226.892 69.3096 225.934 69.3096C224.983 69.3096 224.205 70.09 224.205 71.0515C224.205 72.0061 224.983 72.7865 225.934 72.7865C226.892 72.7865 227.663 72.0061 227.663 71.0515Z" fill="#34A853"/>
<path d="M248.409 58.0098C248.409 57.0534 247.638 56.2714 246.68 56.2714C245.722 56.2714 244.951 57.0534 244.951 58.0098C244.951 58.9733 245.722 59.7483 246.68 59.7483C247.638 59.7483 248.409 58.9733 248.409 58.0098Z" fill="#34A853"/>
<path d="M270.887 44.9719C270.887 44.0154 270.116 43.2335 269.158 43.2335C268.206 43.2335 267.429 44.0154 267.429 44.9719C267.429 45.9284 268.206 46.7103 269.158 46.7103C270.116 46.7103 270.887 45.9284 270.887 44.9719Z" fill="#34A853"/>
<path d="M293.362 31.9337C293.362 30.9703 292.586 30.1953 291.637 30.1953C290.68 30.1953 289.904 30.9703 289.904 31.9337C289.904 32.8902 290.68 33.6721 291.637 33.6721C292.586 33.6721 293.362 32.8902 293.362 31.9337Z" fill="#34A853"/>
<path d="M270.887 71.0515C270.887 70.09 270.116 69.3096 269.158 69.3096C268.206 69.3096 267.429 70.09 267.429 71.0515C267.429 72.0061 268.206 72.7865 269.158 72.7865C270.116 72.7865 270.887 72.0061 270.887 71.0515Z" fill="#34A853"/>
<path d="M293.362 58.0098C293.362 57.0534 292.586 56.2714 291.637 56.2714C290.68 56.2714 289.904 57.0534 289.904 58.0098C289.904 58.9733 290.68 59.7483 291.637 59.7483C292.586 59.7483 293.362 58.9733 293.362 58.0098Z" fill="#34A853"/>
<path d="M314.973 44.9719C314.973 44.0154 314.196 43.2335 313.245 43.2335C312.286 43.2335 311.516 44.0154 311.516 44.9719C311.516 45.9284 312.286 46.7103 313.245 46.7103C314.196 46.7103 314.973 45.9284 314.973 44.9719Z" fill="#34A853"/>
<path d="M314.973 71.0515C314.973 70.09 314.196 69.3096 313.245 69.3096C312.286 69.3096 311.516 70.09 311.516 71.0515C311.516 72.0061 312.286 72.7865 313.245 72.7865C314.196 72.7865 314.973 72.0061 314.973 71.0515Z" fill="#34A853"/>
<path d="M335.721 58.0098C335.721 57.0534 334.943 56.2714 333.992 56.2714C333.033 56.2714 332.263 57.0534 332.263 58.0098C332.263 58.9733 333.033 59.7483 333.992 59.7483C334.943 59.7483 335.721 58.9733 335.721 58.0098Z" fill="#34A853"/>
<path d="M7.22447 19.765C7.22447 18.8085 6.4468 18.0266 5.49553 18.0266C4.54427 18.0266 3.7666 18.8085 3.7666 19.765C3.7666 20.7285 4.54427 21.5034 5.49553 21.5034C6.4468 21.5034 7.22447 20.7285 7.22447 19.765Z" fill="#34A853"/>
<path d="M29.701 6.72684C29.701 5.77036 28.9303 4.98842 27.9721 4.98842C27.0208 4.98842 26.2432 5.77036 26.2432 6.72684C26.2432 7.68332 27.0208 8.46526 27.9721 8.46526C28.9303 8.46526 29.701 7.68332 29.701 6.72684Z" fill="#34A853"/>
<path d="M7.22447 44.9719C7.22447 44.0154 6.4468 43.2335 5.49553 43.2335C4.54427 43.2335 3.7666 44.0154 3.7666 44.9719C3.7666 45.9284 4.54427 46.7103 5.49553 46.7103C6.4468 46.7103 7.22447 45.9284 7.22447 44.9719Z" fill="#34A853"/>
<path d="M29.701 31.9337C29.701 30.9703 28.9303 30.1953 27.9721 30.1953C27.0208 30.1953 26.2432 30.9703 26.2432 31.9337C26.2432 32.8902 27.0208 33.6721 27.9721 33.6721C28.9303 33.6721 29.701 32.8902 29.701 31.9337Z" fill="#34A853"/>
<path d="M50.4481 19.765C50.4481 18.8085 49.6774 18.0266 48.7192 18.0266C47.7679 18.0266 46.9902 18.8085 46.9902 19.765C46.9902 20.7285 47.7679 21.5034 48.7192 21.5034C49.6774 21.5034 50.4481 20.7285 50.4481 19.765Z" fill="#34A853"/>
<path d="M72.0585 6.72684C72.0585 5.77036 71.2823 4.98842 70.333 4.98842C69.3767 4.98842 68.6006 5.77036 68.6006 6.72684C68.6006 7.68332 69.3767 8.46526 70.333 8.46526C71.2823 8.46526 72.0585 7.68332 72.0585 6.72684Z" fill="#34A853"/>
<path d="M29.701 58.0098C29.701 57.0534 28.9303 56.2714 27.9721 56.2714C27.0208 56.2714 26.2432 57.0534 26.2432 58.0098C26.2432 58.9733 27.0208 59.7483 27.9721 59.7483C28.9303 59.7483 29.701 58.9733 29.701 58.0098Z" fill="#34A853"/>
<path d="M50.4481 44.9719C50.4481 44.0154 49.6774 43.2335 48.7192 43.2335C47.7679 43.2335 46.9902 44.0154 46.9902 44.9719C46.9902 45.9284 47.7679 46.7103 48.7192 46.7103C49.6774 46.7103 50.4481 45.9284 50.4481 44.9719Z" fill="#34A853"/>
<path d="M72.0585 31.9337C72.0585 30.9703 71.2823 30.1953 70.333 30.1953C69.3767 30.1953 68.6006 30.9703 68.6006 31.9337C68.6006 32.8902 69.3767 33.6721 70.333 33.6721C71.2823 33.6721 72.0585 32.8902 72.0585 31.9337Z" fill="#34A853"/>
<path d="M94.535 19.765C94.535 18.8085 93.7573 18.0266 92.8061 18.0266C91.8479 18.0266 91.0771 18.8085 91.0771 19.765C91.0771 20.7285 91.8479 21.5034 92.8061 21.5034C93.7573 21.5034 94.535 20.7285 94.535 19.765Z" fill="#34A853"/>
<path d="M117.012 6.72684C117.012 5.77036 116.234 4.98842 115.283 4.98842C114.324 4.98842 113.554 5.77036 113.554 6.72684C113.554 7.68332 114.324 8.46526 115.283 8.46526C116.234 8.46526 117.012 7.68332 117.012 6.72684Z" fill="#34A853"/>
<path d="M50.4481 71.0518C50.4481 70.0902 49.6774 69.3099 48.7192 69.3099C47.7679 69.3099 46.9902 70.0902 46.9902 71.0518C46.9902 72.0063 47.7679 72.7867 48.7192 72.7867C49.6774 72.7867 50.4481 72.0063 50.4481 71.0518Z" fill="#34A853"/>
<path d="M72.0585 58.0098C72.0585 57.0534 71.2823 56.2714 70.333 56.2714C69.3767 56.2714 68.6006 57.0534 68.6006 58.0098C68.6006 58.9733 69.3767 59.7483 70.333 59.7483C71.2823 59.7483 72.0585 58.9733 72.0585 58.0098Z" fill="#34A853"/>
<path d="M94.535 44.9719C94.535 44.0154 93.7573 43.2335 92.8061 43.2335C91.8479 43.2335 91.0771 44.0154 91.0771 44.9719C91.0771 45.9284 91.8479 46.7103 92.8061 46.7103C93.7573 46.7103 94.535 45.9284 94.535 44.9719Z" fill="#34A853"/>
<path d="M117.012 31.9337C117.012 30.9703 116.234 30.1953 115.283 30.1953C114.324 30.1953 113.554 30.9703 113.554 31.9337C113.554 32.8902 114.324 33.6721 115.283 33.6721C116.234 33.6721 117.012 32.8902 117.012 31.9337Z" fill="#34A853"/>
<path d="M139.488 19.765C139.488 18.8085 138.717 18.0266 137.759 18.0266C136.808 18.0266 136.03 18.8085 136.03 19.765C136.03 20.7285 136.808 21.5034 137.759 21.5034C138.717 21.5034 139.488 20.7285 139.488 19.765Z" fill="#34A853"/>
<path d="M161.963 6.72684C161.963 5.77036 161.192 4.98842 160.234 4.98842C159.283 4.98842 158.505 5.77036 158.505 6.72684C158.505 7.68332 159.283 8.46526 160.234 8.46526C161.192 8.46526 161.963 7.68332 161.963 6.72684Z" fill="#34A853"/>
<path d="M94.535 71.0515C94.535 70.09 93.7573 69.3096 92.8061 69.3096C91.8479 69.3096 91.0771 70.09 91.0771 71.0515C91.0771 72.0061 91.8479 72.7865 92.8061 72.7865C93.7573 72.7865 94.535 72.0061 94.535 71.0515Z" fill="#34A853"/>
<path d="M117.012 58.0098C117.012 57.0534 116.234 56.2714 115.283 56.2714C114.324 56.2714 113.554 57.0534 113.554 58.0098C113.554 58.9733 114.324 59.7483 115.283 59.7483C116.234 59.7483 117.012 58.9733 117.012 58.0098Z" fill="#34A853"/>
<path d="M139.488 44.9719C139.488 44.0154 138.717 43.2335 137.759 43.2335C136.808 43.2335 136.03 44.0154 136.03 44.9719C136.03 45.9284 136.808 46.7103 137.759 46.7103C138.717 46.7103 139.488 45.9284 139.488 44.9719Z" fill="#34A853"/>
<path d="M161.963 31.9337C161.963 30.9703 161.192 30.1953 160.234 30.1953C159.283 30.1953 158.505 30.9703 158.505 31.9337C158.505 32.8902 159.283 33.6721 160.234 33.6721C161.192 33.6721 161.963 32.8902 161.963 31.9337Z" fill="#34A853"/>
<path d="M182.711 19.765C182.711 18.8085 181.935 18.0266 180.978 18.0266C180.029 18.0266 179.253 18.8085 179.253 19.765C179.253 20.7285 180.029 21.5034 180.978 21.5034C181.935 21.5034 182.711 20.7285 182.711 19.765Z" fill="#34A853"/>
<path d="M204.322 6.72684C204.322 5.77036 203.544 4.98842 202.593 4.98842C201.635 4.98842 200.864 5.77036 200.864 6.72684C200.864 7.68332 201.635 8.46526 202.593 8.46526C203.544 8.46526 204.322 7.68332 204.322 6.72684Z" fill="#34A853"/>
<path d="M7.22447 71.0515C7.22447 70.09 6.4468 69.3096 5.49553 69.3096C4.54427 69.3096 3.7666 70.09 3.7666 71.0515C3.7666 72.0061 4.54427 72.7865 5.49553 72.7865C6.4468 72.7865 7.22447 72.0061 7.22447 71.0515Z" fill="#34A853"/>
</g>
</g>
</svg>
