<svg width="68" height="185" viewBox="0 0 68 185" fill="none" xmlns="http://www.w3.org/2000/svg">
<mask id="mask0_337_8281" style="mask-type:alpha" maskUnits="userSpaceOnUse" x="0" y="0" width="68" height="185">
<path d="M0 20C0 8.9543 8.95431 0 20 0H68V185H20C8.9543 185 0 176.046 0 165V20Z" fill="#D9D9D9"/>
</mask>
<g mask="url(#mask0_337_8281)">
<rect x="-193" y="-5" width="1440" height="320" fill="#EA4335" fill-opacity="0.04"/>
<g opacity="0.4">
<path d="M14.453 66.0515C14.453 65.09 13.6823 64.3096 12.724 64.3096C11.7728 64.3096 10.9951 65.09 10.9951 66.0515C10.9951 67.0061 11.7728 67.7865 12.724 67.7865C13.6823 67.7865 14.453 67.0061 14.453 66.0515Z" fill="#EA4335"/>
<path d="M36.9286 53.0098C36.9286 52.0533 36.1578 51.2714 35.1996 51.2714C34.2484 51.2714 33.4707 52.0533 33.4707 53.0098C33.4707 53.9732 34.2484 54.7482 35.1996 54.7482C36.1578 54.7482 36.9286 53.9732 36.9286 53.0098Z" fill="#EA4335"/>
<path d="M57.6756 39.9719C57.6756 39.0154 56.8995 38.2335 55.9432 38.2335C54.9939 38.2335 54.2178 39.0154 54.2178 39.9719C54.2178 40.9284 54.9939 41.7103 55.9432 41.7103C56.8995 41.7103 57.6756 40.9284 57.6756 39.9719Z" fill="#EA4335"/>
<path d="M14.453 91.2549C14.453 90.2984 13.6823 89.5165 12.724 89.5165C11.7728 89.5165 10.9951 90.2984 10.9951 91.2549C10.9951 92.2184 11.7728 92.9933 12.724 92.9933C13.6823 92.9933 14.453 92.2184 14.453 91.2549Z" fill="#EA4335"/>
<path d="M36.9286 78.2169C36.9286 77.2535 36.1578 76.4785 35.1996 76.4785C34.2484 76.4785 33.4707 77.2535 33.4707 78.2169C33.4707 79.1734 34.2484 79.9554 35.1996 79.9554C36.1578 79.9554 36.9286 79.1734 36.9286 78.2169Z" fill="#EA4335"/>
<path d="M57.6756 66.0515C57.6756 65.0899 56.8995 64.3096 55.9432 64.3096C54.9939 64.3096 54.2178 65.0899 54.2178 66.0515C54.2178 67.006 54.9939 67.7864 55.9432 67.7864C56.8995 67.7864 57.6756 67.006 57.6756 66.0515Z" fill="#EA4335"/>
<path d="M14.453 117.331C14.453 116.368 13.6823 115.593 12.724 115.593C11.7728 115.593 10.9951 116.368 10.9951 117.331C10.9951 118.288 11.7728 119.069 12.724 119.069C13.6823 119.069 14.453 118.288 14.453 117.331Z" fill="#EA4335"/>
<path d="M36.9286 104.293C36.9286 103.33 36.1578 102.555 35.1996 102.555C34.2484 102.555 33.4707 103.33 33.4707 104.293C33.4707 105.25 34.2484 106.032 35.1996 106.032C36.1578 106.032 36.9286 105.25 36.9286 104.293Z" fill="#EA4335"/>
<path d="M57.6756 91.2549C57.6756 90.2984 56.8995 89.5165 55.9432 89.5165C54.9939 89.5165 54.2178 90.2984 54.2178 91.2549C54.2178 92.2184 54.9939 92.9933 55.9432 92.9933C56.8995 92.9933 57.6756 92.2184 57.6756 91.2549Z" fill="#EA4335"/>
<path d="M36.9286 129.5C36.9286 128.544 36.1578 127.762 35.1996 127.762C34.2484 127.762 33.4707 128.544 33.4707 129.5C33.4707 130.463 34.2484 131.238 35.1996 131.238C36.1578 131.238 36.9286 130.463 36.9286 129.5Z" fill="#EA4335"/>
<path d="M57.6756 117.331C57.6756 116.368 56.8995 115.593 55.9432 115.593C54.9939 115.593 54.2178 116.368 54.2178 117.331C54.2178 118.288 54.9939 119.069 55.9432 119.069C56.8995 119.069 57.6756 118.288 57.6756 117.331Z" fill="#EA4335"/>
<path d="M57.6756 142.538C57.6756 141.582 56.8995 140.8 55.9432 140.8C54.9939 140.8 54.2178 141.582 54.2178 142.538C54.2178 143.501 54.9939 144.276 55.9432 144.276C56.8995 144.276 57.6756 143.501 57.6756 142.538Z" fill="#EA4335"/>
<path d="M14.453 14.765C14.453 13.8085 13.6823 13.0266 12.724 13.0266C11.7728 13.0266 10.9951 13.8085 10.9951 14.765C10.9951 15.7285 11.7728 16.5034 12.724 16.5034C13.6823 16.5034 14.453 15.7285 14.453 14.765Z" fill="#EA4335"/>
<path d="M36.9286 1.72682C36.9286 0.770343 36.1578 -0.0115967 35.1996 -0.0115967C34.2484 -0.0115967 33.4707 0.770343 33.4707 1.72682C33.4707 2.6833 34.2484 3.46524 35.1996 3.46524C36.1578 3.46524 36.9286 2.6833 36.9286 1.72682Z" fill="#EA4335"/>
<path d="M14.453 39.9719C14.453 39.0155 13.6823 38.2335 12.724 38.2335C11.7728 38.2335 10.9951 39.0155 10.9951 39.9719C10.9951 40.9284 11.7728 41.7104 12.724 41.7104C13.6823 41.7104 14.453 40.9284 14.453 39.9719Z" fill="#EA4335"/>
<path d="M36.9286 26.9337C36.9286 25.9703 36.1578 25.1953 35.1996 25.1953C34.2484 25.1953 33.4707 25.9703 33.4707 26.9337C33.4707 27.8902 34.2484 28.6722 35.1996 28.6722C36.1578 28.6722 36.9286 27.8902 36.9286 26.9337Z" fill="#EA4335"/>
<path d="M57.6756 14.765C57.6756 13.8085 56.8995 13.0266 55.9432 13.0266C54.9939 13.0266 54.2178 13.8085 54.2178 14.765C54.2178 15.7285 54.9939 16.5034 55.9432 16.5034C56.8995 16.5034 57.6756 15.7285 57.6756 14.765Z" fill="#EA4335"/>
<path d="M14.453 142.538C14.453 141.582 13.6823 140.8 12.724 140.8C11.7728 140.8 10.9951 141.582 10.9951 142.538C10.9951 143.501 11.7728 144.276 12.724 144.276C13.6823 144.276 14.453 143.501 14.453 142.538Z" fill="#EA4335"/>
<path d="M14.453 167.745C14.453 166.789 13.6823 166.007 12.724 166.007C11.7728 166.007 10.9951 166.789 10.9951 167.745C10.9951 168.709 11.7728 169.484 12.724 169.484C13.6823 169.484 14.453 168.709 14.453 167.745Z" fill="#EA4335"/>
<path d="M36.9286 155.576C36.9286 154.613 36.1578 153.838 35.1996 153.838C34.2484 153.838 33.4707 154.613 33.4707 155.576C33.4707 156.533 34.2484 157.314 35.1996 157.314C36.1578 157.314 36.9286 156.533 36.9286 155.576Z" fill="#EA4335"/>
<path d="M36.9286 180.78C36.9286 179.825 36.1578 179.045 35.1996 179.045C34.2484 179.045 33.4707 179.825 33.4707 180.78C33.4707 181.741 34.2484 182.522 35.1996 182.522C36.1578 182.522 36.9286 181.741 36.9286 180.78Z" fill="#EA4335"/>
<path d="M57.6756 167.745C57.6756 166.789 56.8995 166.007 55.9432 166.007C54.9939 166.007 54.2178 166.789 54.2178 167.745C54.2178 168.708 54.9939 169.483 55.9432 169.483C56.8995 169.483 57.6756 168.708 57.6756 167.745Z" fill="#EA4335"/>
</g>
</g>
</svg>
