<svg width="68" height="276" viewBox="0 0 68 276" fill="none" xmlns="http://www.w3.org/2000/svg">
<mask id="mask0_337_11613" style="mask-type:alpha" maskUnits="userSpaceOnUse" x="0" y="0" width="68" height="276">
<path d="M20 276C8.9543 276 -3.91405e-07 267.046 -8.74228e-07 256L-1.11901e-05 20C-1.16729e-05 8.95432 8.9543 -3.91405e-07 20 -8.74228e-07L68 -2.97238e-06L68 276L20 276Z" fill="#D9D9D9"/>
</mask>
<g mask="url(#mask0_337_11613)">
<rect x="-1" y="821" width="1440" height="320" transform="rotate(-90 -1 821)" fill="#4285F4" fill-opacity="0.04"/>
<g opacity="0.4">
<path d="M57.0099 109.037C56.0534 109.037 55.2715 109.808 55.2715 110.766C55.2715 111.717 56.0534 112.495 57.0099 112.495C57.9734 112.495 58.7483 111.717 58.7483 110.766C58.7483 109.808 57.9734 109.037 57.0099 109.037Z" fill="#4285F4"/>
<path d="M43.9718 88.289C43.0153 88.289 42.2334 89.0651 42.2334 90.0214C42.2334 90.9707 43.0153 91.7468 43.9718 91.7468C44.9283 91.7468 45.7102 90.9707 45.7102 90.0214C45.7102 89.0651 44.9283 88.289 43.9718 88.289Z" fill="#4285F4"/>
<path d="M30.9337 66.6779C29.9703 66.6779 29.1953 67.4555 29.1953 68.4068C29.1953 69.365 29.9703 70.1357 30.9337 70.1357C31.8902 70.1357 32.6722 69.365 32.6722 68.4068C32.6722 67.4555 31.8902 66.6779 30.9337 66.6779Z" fill="#4285F4"/>
<path d="M18.7613 43.3371C17.8067 43.3371 17.0264 44.1078 17.0264 45.066C17.0264 46.0172 17.8067 46.7949 18.7613 46.7949C19.7228 46.7949 20.5032 46.0172 20.5032 45.066C20.5032 44.1078 19.7228 43.3371 18.7613 43.3371Z" fill="#4285F4"/>
<path d="M5.7267 22.5905C4.77022 22.5905 3.98828 23.3612 3.98828 24.3194C3.98828 25.2707 4.77022 26.0483 5.7267 26.0483C6.68318 26.0483 7.46512 25.2707 7.46512 24.3194C7.46512 23.3612 6.68318 22.5905 5.7267 22.5905Z" fill="#4285F4"/>
<path d="M57.0099 66.6779C56.0534 66.6779 55.2715 67.4555 55.2715 68.4068C55.2715 69.365 56.0534 70.1357 57.0099 70.1357C57.9734 70.1357 58.7483 69.365 58.7483 68.4068C58.7483 67.4555 57.9734 66.6779 57.0099 66.6779Z" fill="#4285F4"/>
<path d="M43.9718 43.3371C43.0153 43.3371 42.2334 44.1078 42.2334 45.066C42.2334 46.0172 43.0153 46.7949 43.9718 46.7949C44.9283 46.7949 45.7102 46.0172 45.7102 45.066C45.7102 44.1078 44.9283 43.3371 43.9718 43.3371Z" fill="#4285F4"/>
<path d="M30.9337 22.5905C29.9703 22.5905 29.1953 23.3612 29.1953 24.3194C29.1953 25.2707 29.9703 26.0483 30.9337 26.0483C31.8902 26.0483 32.6722 25.2707 32.6722 24.3194C32.6722 23.3612 31.8902 22.5905 30.9337 22.5905Z" fill="#4285F4"/>
<path d="M18.7613 0.113424C17.8067 0.113424 17.0264 0.884154 17.0264 1.84236C17.0264 2.79362 17.8067 3.57129 18.7613 3.57129C19.7228 3.57129 20.5032 2.79362 20.5032 1.84236C20.5032 0.884154 19.7228 0.113424 18.7613 0.113424Z" fill="#4285F4"/>
<path d="M57.0099 22.5905C56.0534 22.5905 55.2715 23.3612 55.2715 24.3194C55.2715 25.2776 56.0534 26.0483 57.0099 26.0483C57.9734 26.0483 58.7483 25.2776 58.7483 24.3194C58.7483 23.3612 57.9734 22.5905 57.0099 22.5905Z" fill="#4285F4"/>
<path d="M43.9718 0.113424C43.0153 0.113424 42.2334 0.884154 42.2334 1.84236C42.2334 2.79362 43.0153 3.57129 43.9718 3.57129C44.9283 3.57129 45.7102 2.79362 45.7102 1.84236C45.7102 0.884154 44.9283 0.113424 43.9718 0.113424Z" fill="#4285F4"/>
<path d="M18.7648 263.776C17.8083 263.776 17.0264 264.553 17.0264 265.504C17.0264 266.456 17.8083 267.233 18.7648 267.233C19.7282 267.233 20.5032 266.456 20.5032 265.504C20.5032 264.553 19.7282 263.776 18.7648 263.776Z" fill="#4285F4"/>
<path d="M5.7267 241.299C4.77022 241.299 3.98828 242.07 3.98828 243.028C3.98828 243.979 4.77022 244.757 5.7267 244.757C6.68318 244.757 7.46512 243.979 7.46512 243.028C7.46512 242.07 6.68318 241.299 5.7267 241.299Z" fill="#4285F4"/>
<path d="M43.9718 263.776C43.0153 263.776 42.2334 264.553 42.2334 265.504C42.2334 266.456 43.0153 267.233 43.9718 267.233C44.9283 267.233 45.7102 266.456 45.7102 265.504C45.7102 264.553 44.9283 263.776 43.9718 263.776Z" fill="#4285F4"/>
<path d="M30.9337 241.299C29.9703 241.299 29.1953 242.07 29.1953 243.028C29.1953 243.979 29.9703 244.757 30.9337 244.757C31.8902 244.757 32.6722 243.979 32.6722 243.028C32.6722 242.07 31.8902 241.299 30.9337 241.299Z" fill="#4285F4"/>
<path d="M18.7648 220.552C17.8083 220.552 17.0264 221.323 17.0264 222.281C17.0264 223.233 17.8083 224.01 18.7648 224.01C19.7282 224.01 20.5032 223.233 20.5032 222.281C20.5032 221.323 19.7282 220.552 18.7648 220.552Z" fill="#4285F4"/>
<path d="M5.7267 198.941C4.77022 198.941 3.98828 199.717 3.98828 200.667C3.98828 201.623 4.77022 202.399 5.7267 202.399C6.68318 202.399 7.46512 201.623 7.46512 200.667C7.46512 199.717 6.68318 198.941 5.7267 198.941Z" fill="#4285F4"/>
<path d="M57.0099 241.299C56.0534 241.299 55.2715 242.07 55.2715 243.028C55.2715 243.979 56.0534 244.757 57.0099 244.757C57.9734 244.757 58.7483 243.979 58.7483 243.028C58.7483 242.07 57.9734 241.299 57.0099 241.299Z" fill="#4285F4"/>
<path d="M43.9718 220.552C43.0153 220.552 42.2334 221.323 42.2334 222.281C42.2334 223.233 43.0153 224.01 43.9718 224.01C44.9283 224.01 45.7102 223.233 45.7102 222.281C45.7102 221.323 44.9283 220.552 43.9718 220.552Z" fill="#4285F4"/>
<path d="M30.9337 198.941C29.9703 198.941 29.1953 199.717 29.1953 200.667C29.1953 201.623 29.9703 202.399 30.9337 202.399C31.8902 202.399 32.6722 201.623 32.6722 200.667C32.6722 199.717 31.8902 198.941 30.9337 198.941Z" fill="#4285F4"/>
<path d="M18.7648 176.465C17.8083 176.465 17.0264 177.242 17.0264 178.194C17.0264 179.152 17.8083 179.923 18.7648 179.923C19.7282 179.923 20.5032 179.152 20.5032 178.194C20.5032 177.242 19.7282 176.465 18.7648 176.465Z" fill="#4285F4"/>
<path d="M5.7267 153.989C4.77022 153.989 3.98828 154.766 3.98828 155.717C3.98828 156.676 4.77022 157.446 5.7267 157.446C6.68318 157.446 7.46512 156.676 7.46512 155.717C7.46512 154.766 6.68318 153.989 5.7267 153.989Z" fill="#4285F4"/>
<path d="M57.0099 198.941C56.0534 198.941 55.2715 199.717 55.2715 200.667C55.2715 201.623 56.0534 202.399 57.0099 202.399C57.9734 202.399 58.7483 201.623 58.7483 200.667C58.7483 199.717 57.9734 198.941 57.0099 198.941Z" fill="#4285F4"/>
<path d="M43.9718 176.465C43.0153 176.465 42.2334 177.242 42.2334 178.194C42.2334 179.152 43.0153 179.923 43.9718 179.923C44.9283 179.923 45.7102 179.152 45.7102 178.194C45.7102 177.242 44.9283 176.465 43.9718 176.465Z" fill="#4285F4"/>
<path d="M30.9337 153.989C29.9703 153.989 29.1953 154.766 29.1953 155.718C29.1953 156.676 29.9703 157.447 30.9337 157.447C31.8902 157.447 32.6722 156.676 32.6722 155.718C32.6722 154.766 31.8902 153.989 30.9337 153.989Z" fill="#4285F4"/>
<path d="M18.7648 131.512C17.8083 131.512 17.0264 132.283 17.0264 133.241C17.0264 134.192 17.8083 134.97 18.7648 134.97C19.7282 134.97 20.5032 134.192 20.5032 133.241C20.5032 132.283 19.7282 131.512 18.7648 131.512Z" fill="#4285F4"/>
<path d="M5.7267 109.037C4.77022 109.037 3.98828 109.808 3.98828 110.766C3.98828 111.717 4.77022 112.495 5.7267 112.495C6.68318 112.495 7.46512 111.717 7.46512 110.766C7.46512 109.808 6.68318 109.037 5.7267 109.037Z" fill="#4285F4"/>
<path d="M57.0099 153.989C56.0534 153.989 55.2715 154.766 55.2715 155.718C55.2715 156.676 56.0534 157.447 57.0099 157.447C57.9734 157.447 58.7483 156.676 58.7483 155.718C58.7483 154.766 57.9734 153.989 57.0099 153.989Z" fill="#4285F4"/>
<path d="M43.9718 131.512C43.0153 131.512 42.2334 132.283 42.2334 133.241C42.2334 134.192 43.0153 134.97 43.9718 134.97C44.9283 134.97 45.7102 134.192 45.7102 133.241C45.7102 132.283 44.9283 131.512 43.9718 131.512Z" fill="#4285F4"/>
<path d="M30.9337 109.037C29.9703 109.037 29.1953 109.808 29.1953 110.766C29.1953 111.717 29.9703 112.495 30.9337 112.495C31.8902 112.495 32.6722 111.717 32.6722 110.766C32.6722 109.808 31.8902 109.037 30.9337 109.037Z" fill="#4285F4"/>
<path d="M18.7648 88.289C17.8083 88.289 17.0264 89.0651 17.0264 90.0214C17.0264 90.9707 17.8083 91.7468 18.7648 91.7468C19.7282 91.7468 20.5032 90.9707 20.5032 90.0214C20.5032 89.0651 19.7282 88.289 18.7648 88.289Z" fill="#4285F4"/>
<path d="M5.7267 66.6778C4.77022 66.6778 3.98828 67.4554 3.98828 68.4067C3.98828 69.3649 4.77022 70.1356 5.7267 70.1356C6.68318 70.1356 7.46512 69.3649 7.46512 68.4067C7.46512 67.4554 6.68318 66.6778 5.7267 66.6778Z" fill="#4285F4"/>
</g>
</g>
</svg>
