<svg width="32" height="32" viewBox="0 0 32 32" fill="none" xmlns="http://www.w3.org/2000/svg">
<rect x="0.5" y="0.499939" width="31" height="31" rx="15.5" stroke="#656C73"/>
<path d="M24.1 9.00586C24.0234 8.99796 23.9461 8.99796 23.8694 9.00586H8.11941C8.01847 9.00742 7.91819 9.02256 7.82129 9.05086L15.9494 17.1452L24.1 9.00586Z" fill="#656C73"/>
<path d="M24.9325 9.7879L16.7425 17.9442C16.5317 18.1537 16.2466 18.2713 15.9494 18.2713C15.6522 18.2713 15.367 18.1537 15.1562 17.9442L7.03938 9.84978C7.01442 9.94149 7.00119 10.036 7 10.131V21.381C7 21.6794 7.11853 21.9655 7.3295 22.1765C7.54048 22.3875 7.82663 22.506 8.125 22.506H23.875C24.1734 22.506 24.4595 22.3875 24.6705 22.1765C24.8815 21.9655 25 21.6794 25 21.381V10.131C24.9955 10.0138 24.9727 9.89806 24.9325 9.7879ZM8.89563 21.381H8.11375V20.5767L12.2031 16.521L12.9963 17.3142L8.89563 21.381ZM23.8638 21.381H23.0763L18.9756 17.3142L19.7687 16.521L23.8581 20.5767L23.8638 21.381Z" fill="#656C73"/>
</svg>
