<svg width="264" height="264" viewBox="0 0 264 264" fill="none" xmlns="http://www.w3.org/2000/svg">
<path d="M259.003 120.235L143.732 4.98078C142.153 3.40173 140.28 2.14911 138.217 1.29449C136.154 0.439875 133.944 0 131.711 0C129.479 0 127.268 0.439875 125.205 1.29449C123.143 2.14911 121.269 3.40173 119.691 4.98078L95.7654 28.9062L126.126 59.2667C129.707 58.0442 133.559 57.853 137.243 58.7148C140.927 59.5766 144.295 61.4568 146.961 64.1408C149.628 66.8248 151.487 70.2044 152.325 73.894C153.163 77.5836 152.947 81.4345 151.701 85.0072L180.956 114.279C185.285 112.755 190.003 112.75 194.334 114.266C198.665 115.781 202.351 118.726 204.785 122.616C207.219 126.506 208.256 131.109 207.724 135.667C207.193 140.225 205.126 144.466 201.862 147.692C198.559 151.016 194.203 153.089 189.541 153.559C184.878 154.028 180.197 152.864 176.297 150.266C172.397 147.667 169.52 143.795 168.158 139.311C166.796 134.827 167.033 130.009 168.829 125.68L141.554 98.3889V170.215C145.699 172.267 149.017 175.678 150.952 179.879C152.888 184.081 153.326 188.819 152.192 193.304C151.057 197.788 148.421 201.749 144.72 204.525C141.02 207.302 136.48 208.726 131.857 208.561C127.234 208.396 122.808 206.651 119.315 203.618C115.822 200.585 113.475 196.446 112.664 191.892C111.852 187.338 112.627 182.643 114.857 178.59C117.088 174.538 120.64 171.372 124.921 169.621V97.1349C122.451 96.1227 120.206 94.6315 118.314 92.7474C116.423 90.8633 114.923 88.6234 113.902 86.157C112.88 83.6905 112.357 81.0463 112.362 78.3767C112.367 75.7071 112.901 73.0649 113.932 70.6024L84.0172 40.6709L4.98078 119.707C3.40173 121.286 2.14911 123.159 1.29449 125.222C0.439875 127.285 0 129.495 0 131.728C0 133.96 0.439875 136.171 1.29449 138.234C2.14911 140.296 3.40173 142.17 4.98078 143.748L120.252 259.019C121.83 260.598 123.704 261.851 125.766 262.706C127.829 263.56 130.04 264 132.272 264C134.505 264 136.715 263.56 138.778 262.706C140.841 261.851 142.714 260.598 144.293 259.019L259.019 144.293C260.598 142.714 261.851 140.841 262.706 138.778C263.56 136.716 264 134.505 264 132.272C264 130.04 263.56 127.829 262.706 125.767C261.851 123.704 260.598 121.83 259.019 120.252" fill="#4F7CF4"/>
</svg>
