<svg width="40" height="40" viewBox="0 0 40 40" fill="none" xmlns="http://www.w3.org/2000/svg">
<g filter="url(#filter0_d_437_1564)">
<rect x="4.5" y="0.499939" width="31" height="31" rx="15.5" stroke="#656C73"/>
<path d="M20 6.99994C17.5576 6.99994 17.2505 7.01119 16.2909 7.05394C15.3313 7.09894 14.6776 7.24969 14.105 7.47244C13.5041 7.69781 12.9599 8.05226 12.5109 8.51081C12.0523 8.95985 11.6979 9.50401 11.4725 10.1049C11.2497 10.6764 11.0979 11.3312 11.054 12.2874C11.0113 13.2493 11 13.5553 11 16.0011C11 18.4446 11.0113 18.7506 11.054 19.7102C11.099 20.6687 11.2497 21.3223 11.4725 21.8949C11.7031 22.4867 12.0103 22.9884 12.5109 23.4891C13.0104 23.9897 13.5121 24.2979 14.1039 24.5274C14.6776 24.7502 15.3301 24.9021 16.2886 24.9459C17.2494 24.9887 17.5554 24.9999 20 24.9999C22.4446 24.9999 22.7495 24.9887 23.7103 24.9459C24.6676 24.9009 25.3235 24.7502 25.8961 24.5274C26.4966 24.3019 27.0404 23.9475 27.4891 23.4891C27.9897 22.9884 28.2969 22.4867 28.5275 21.8949C28.7491 21.3223 28.901 20.6687 28.946 19.7102C28.9888 18.7506 29 18.4446 29 15.9999C29 13.5553 28.9888 13.2493 28.946 12.2886C28.901 11.3312 28.7491 10.6764 28.5275 10.1049C28.3021 9.50401 27.9477 8.95985 27.4891 8.51081C27.0401 8.05226 26.4959 7.69781 25.895 7.47244C25.3212 7.24969 24.6665 7.09781 23.7091 7.05394C22.7484 7.01119 22.4435 6.99994 19.9978 6.99994H20ZM19.1934 8.62219H20.0011C22.4041 8.62219 22.6887 8.63006 23.6371 8.67394C24.5146 8.71331 24.9916 8.86069 25.3089 8.98331C25.7285 9.14644 26.0289 9.34219 26.3439 9.65719C26.6589 9.97219 26.8535 10.2714 27.0166 10.6922C27.1404 11.0083 27.2866 11.4853 27.326 12.3628C27.3699 13.3112 27.3789 13.5958 27.3789 15.9977C27.3789 18.3996 27.3699 18.6853 27.326 19.6337C27.2866 20.5112 27.1392 20.9871 27.0166 21.3043C26.8713 21.6946 26.6411 22.0477 26.3427 22.3382C26.0277 22.6532 25.7285 22.8478 25.3078 23.0109C24.9928 23.1347 24.5157 23.2809 23.6371 23.3214C22.6887 23.3642 22.4041 23.3743 20.0011 23.3743C17.5981 23.3743 17.3124 23.3642 16.364 23.3214C15.4865 23.2809 15.0106 23.1347 14.6934 23.0109C14.3028 22.8661 13.9493 22.6363 13.6584 22.3382C13.3594 22.0475 13.1289 21.694 12.9834 21.3032C12.8607 20.9871 12.7134 20.5101 12.674 19.6326C12.6313 18.6842 12.6223 18.3996 12.6223 15.9954C12.6223 13.5913 12.6313 13.3089 12.674 12.3606C12.7145 11.4831 12.8608 11.0061 12.9845 10.6888C13.1476 10.2692 13.3434 9.96881 13.6584 9.65381C13.9734 9.33881 14.2726 9.14419 14.6934 8.98106C15.0106 8.85731 15.4865 8.71106 16.364 8.67056C17.1943 8.63231 17.516 8.62106 19.1934 8.61994V8.62219ZM24.8049 10.1162C24.663 10.1162 24.5226 10.1441 24.3916 10.1984C24.2605 10.2527 24.1415 10.3322 24.0412 10.4325C23.9409 10.5328 23.8614 10.6519 23.8071 10.7829C23.7528 10.9139 23.7249 11.0544 23.7249 11.1962C23.7249 11.338 23.7528 11.4785 23.8071 11.6095C23.8614 11.7405 23.9409 11.8596 24.0412 11.9599C24.1415 12.0602 24.2605 12.1397 24.3916 12.194C24.5226 12.2483 24.663 12.2762 24.8049 12.2762C25.0913 12.2762 25.366 12.1624 25.5686 11.9599C25.7711 11.7573 25.8849 11.4826 25.8849 11.1962C25.8849 10.9098 25.7711 10.6351 25.5686 10.4325C25.366 10.23 25.0913 10.1162 24.8049 10.1162ZM20.0011 11.3784C19.3881 11.3689 18.7793 11.4814 18.2101 11.7093C17.6409 11.9373 17.1228 12.2763 16.6859 12.7064C16.249 13.1366 15.902 13.6493 15.6652 14.2149C15.4284 14.7804 15.3064 15.3874 15.3064 16.0005C15.3064 16.6136 15.4284 17.2206 15.6652 17.7861C15.902 18.3517 16.249 18.8644 16.6859 19.2946C17.1228 19.7247 17.6409 20.0637 18.2101 20.2917C18.7793 20.5196 19.3881 20.6321 20.0011 20.6226C21.2145 20.6036 22.3717 20.1083 23.2231 19.2436C24.0745 18.3788 24.5516 17.214 24.5516 16.0005C24.5516 14.787 24.0745 13.6222 23.2231 12.7574C22.3717 11.8927 21.2145 11.3974 20.0011 11.3784ZM20.0011 12.9996C20.3951 12.9996 20.7853 13.0772 21.1493 13.228C21.5133 13.3787 21.8441 13.5997 22.1227 13.8784C22.4013 14.157 22.6223 14.4877 22.7731 14.8517C22.9239 15.2158 23.0015 15.6059 23.0015 15.9999C23.0015 16.394 22.9239 16.7841 22.7731 17.1481C22.6223 17.5122 22.4013 17.8429 22.1227 18.1215C21.8441 18.4001 21.5133 18.6211 21.1493 18.7719C20.7853 18.9227 20.3951 19.0003 20.0011 19.0003C19.2054 19.0003 18.4422 18.6842 17.8795 18.1215C17.3169 17.5588 17.0008 16.7957 17.0008 15.9999C17.0008 15.2042 17.3169 14.441 17.8795 13.8784C18.4422 13.3157 19.2054 12.9996 20.0011 12.9996Z" fill="#656C73"/>
</g>
<defs>
<filter id="filter0_d_437_1564" x="0" y="-6.10352e-05" width="40" height="40" filterUnits="userSpaceOnUse" color-interpolation-filters="sRGB">
<feFlood flood-opacity="0" result="BackgroundImageFix"/>
<feColorMatrix in="SourceAlpha" type="matrix" values="0 0 0 0 0 0 0 0 0 0 0 0 0 0 0 0 0 0 127 0" result="hardAlpha"/>
<feOffset dy="4"/>
<feGaussianBlur stdDeviation="2"/>
<feComposite in2="hardAlpha" operator="out"/>
<feColorMatrix type="matrix" values="0 0 0 0 0 0 0 0 0 0 0 0 0 0 0 0 0 0 0.25 0"/>
<feBlend mode="normal" in2="BackgroundImageFix" result="effect1_dropShadow_437_1564"/>
<feBlend mode="normal" in="SourceGraphic" in2="effect1_dropShadow_437_1564" result="shape"/>
</filter>
</defs>
</svg>
