<svg width="262" height="1661" viewBox="0 0 262 1661" fill="none" xmlns="http://www.w3.org/2000/svg">
<mask id="mask0_936_1352" style="mask-type:alpha" maskUnits="userSpaceOnUse" x="-239" y="0" width="501" height="1661">
<ellipse cx="250.5" cy="830.5" rx="250.5" ry="830.5" transform="matrix(-1 0 0 1 262 0)" fill="url(#paint0_radial_936_1352)"/>
</mask>
<g mask="url(#mask0_936_1352)">
<line y1="-1" x2="579.004" y2="-1" transform="matrix(4.36922e-08 1 1 -4.37306e-08 227.182 -1.20801)" stroke="#0053B5" stroke-opacity="0.2" stroke-width="2"/>
<line y1="-1" x2="579.004" y2="-1" transform="matrix(4.36922e-08 1 1 -4.37306e-08 111.434 -1.20801)" stroke="#0053B5" stroke-opacity="0.2" stroke-width="2"/>
<line y1="-1" x2="579.004" y2="-1" transform="matrix(4.36922e-08 1 1 -4.37306e-08 53.5571 -1.20801)" stroke="#0053B5" stroke-opacity="0.2" stroke-width="2"/>
<line y1="-1" x2="579.004" y2="-1" transform="matrix(4.36922e-08 1 1 -4.37306e-08 169.307 -1.20801)" stroke="#0053B5" stroke-opacity="0.2" stroke-width="2"/>
<line y1="-1" x2="578.75" y2="-1" transform="matrix(1 -8.74612e-08 -8.73844e-08 -1 53.5527 -1.20801)" stroke="#0053B5" stroke-opacity="0.2" stroke-width="2"/>
<line y1="-1" x2="578.75" y2="-1" transform="matrix(1 -8.74612e-08 -8.73844e-08 -1 53.5527 56.6924)" stroke="#0053B5" stroke-opacity="0.2" stroke-width="2"/>
<line y1="-1" x2="578.75" y2="-1" transform="matrix(1 -8.74612e-08 -8.73844e-08 -1 53.5527 114.592)" stroke="#0053B5" stroke-opacity="0.2" stroke-width="2"/>
<line y1="-1" x2="578.75" y2="-1" transform="matrix(1 -8.74612e-08 -8.73844e-08 -1 53.5527 172.492)" stroke="#0053B5" stroke-opacity="0.2" stroke-width="2"/>
<line y1="-1" x2="578.75" y2="-1" transform="matrix(1 -8.74612e-08 -8.73844e-08 -1 53.5527 230.393)" stroke="#0053B5" stroke-opacity="0.2" stroke-width="2"/>
<line y1="-1" x2="578.75" y2="-1" transform="matrix(1 -8.74612e-08 -8.73844e-08 -1 53.5527 288.293)" stroke="#0053B5" stroke-opacity="0.2" stroke-width="2"/>
<line y1="-1" x2="578.75" y2="-1" transform="matrix(1 -8.74612e-08 -8.73844e-08 -1 53.5527 346.194)" stroke="#0053B5" stroke-opacity="0.2" stroke-width="2"/>
<line y1="-1" x2="578.75" y2="-1" transform="matrix(1 -8.74612e-08 -8.73844e-08 -1 53.5527 404.094)" stroke="#0053B5" stroke-opacity="0.2" stroke-width="2"/>
<line y1="-1" x2="578.75" y2="-1" transform="matrix(1 -8.74612e-08 -8.73844e-08 -1 53.5527 519.895)" stroke="#0053B5" stroke-opacity="0.2" stroke-width="2"/>
<line y1="-1" x2="578.75" y2="-1" transform="matrix(1 -8.74612e-08 -8.73844e-08 -1 53.5527 577.795)" stroke="#0053B5" stroke-opacity="0.2" stroke-width="2"/>
<line y1="-1" x2="578.75" y2="-1" transform="matrix(1 -8.74612e-08 -8.73844e-08 -1 53.5527 461.994)" stroke="#0053B5" stroke-opacity="0.2" stroke-width="2"/>
<line y1="-1" x2="579.004" y2="-1" transform="matrix(4.36922e-08 1 1 -4.37306e-08 227.182 577.798)" stroke="#0053B5" stroke-opacity="0.2" stroke-width="2"/>
<line y1="-1" x2="579.004" y2="-1" transform="matrix(4.36922e-08 1 1 -4.37306e-08 111.434 577.798)" stroke="#0053B5" stroke-opacity="0.2" stroke-width="2"/>
<line y1="-1" x2="579.004" y2="-1" transform="matrix(4.36922e-08 1 1 -4.37306e-08 53.5571 577.798)" stroke="#0053B5" stroke-opacity="0.2" stroke-width="2"/>
<line y1="-1" x2="579.004" y2="-1" transform="matrix(4.36922e-08 1 1 -4.37306e-08 169.307 577.798)" stroke="#0053B5" stroke-opacity="0.2" stroke-width="2"/>
<line y1="-1" x2="578.75" y2="-1" transform="matrix(1 -8.74612e-08 -8.73844e-08 -1 53.5527 635.699)" stroke="#0053B5" stroke-opacity="0.2" stroke-width="2"/>
<line y1="-1" x2="578.75" y2="-1" transform="matrix(1 -8.74612e-08 -8.73844e-08 -1 53.5527 693.6)" stroke="#0053B5" stroke-opacity="0.2" stroke-width="2"/>
<line y1="-1" x2="578.75" y2="-1" transform="matrix(1 -8.74612e-08 -8.73844e-08 -1 53.5527 751.5)" stroke="#0053B5" stroke-opacity="0.2" stroke-width="2"/>
<line y1="-1" x2="578.75" y2="-1" transform="matrix(1 -8.74612e-08 -8.73844e-08 -1 53.5527 809.399)" stroke="#0053B5" stroke-opacity="0.2" stroke-width="2"/>
<line y1="-1" x2="578.75" y2="-1" transform="matrix(1 -8.74612e-08 -8.73844e-08 -1 53.5527 867.301)" stroke="#0053B5" stroke-opacity="0.2" stroke-width="2"/>
<line y1="-1" x2="578.75" y2="-1" transform="matrix(1 -8.74612e-08 -8.73844e-08 -1 53.5527 925.201)" stroke="#0053B5" stroke-opacity="0.2" stroke-width="2"/>
<line y1="-1" x2="578.75" y2="-1" transform="matrix(1 -8.74612e-08 -8.73844e-08 -1 53.5527 983.102)" stroke="#0053B5" stroke-opacity="0.2" stroke-width="2"/>
<line y1="-1" x2="578.75" y2="-1" transform="matrix(1 -8.74612e-08 -8.73844e-08 -1 53.5527 1098.9)" stroke="#0053B5" stroke-opacity="0.2" stroke-width="2"/>
<line y1="-1" x2="578.75" y2="-1" transform="matrix(1 -8.74612e-08 -8.73844e-08 -1 53.5527 1156.8)" stroke="#0053B5" stroke-opacity="0.2" stroke-width="2"/>
<line y1="-1" x2="578.75" y2="-1" transform="matrix(1 -8.74612e-08 -8.73844e-08 -1 53.5527 1041)" stroke="#0053B5" stroke-opacity="0.2" stroke-width="2"/>
<line y1="-1" x2="578.75" y2="-1" transform="matrix(1 -8.7442e-08 -8.74036e-08 -1 -525.171 635.701)" stroke="#0053B5" stroke-opacity="0.2" stroke-width="2"/>
<line y1="-1" x2="578.75" y2="-1" transform="matrix(1 -8.74612e-08 -8.73844e-08 -1 -525.171 693.601)" stroke="#0053B5" stroke-opacity="0.2" stroke-width="2"/>
<line y1="-1" x2="578.75" y2="-1" transform="matrix(1 -8.74612e-08 -8.73844e-08 -1 -525.171 751.5)" stroke="#0053B5" stroke-opacity="0.2" stroke-width="2"/>
<line y1="-1" x2="578.75" y2="-1" transform="matrix(1 -8.74612e-08 -8.73844e-08 -1 -525.171 809.401)" stroke="#0053B5" stroke-opacity="0.2" stroke-width="2"/>
<line y1="-1" x2="578.75" y2="-1" transform="matrix(1 -8.74612e-08 -8.73844e-08 -1 -525.171 867.302)" stroke="#0053B5" stroke-opacity="0.2" stroke-width="2"/>
<line y1="-1" x2="578.75" y2="-1" transform="matrix(1 -8.74612e-08 -8.73844e-08 -1 -525.171 925.202)" stroke="#0053B5" stroke-opacity="0.2" stroke-width="2"/>
<line y1="-1" x2="578.75" y2="-1" transform="matrix(1 -8.74612e-08 -8.73844e-08 -1 -525.171 983.103)" stroke="#0053B5" stroke-opacity="0.2" stroke-width="2"/>
<line y1="-1" x2="578.75" y2="-1" transform="matrix(1 -8.74612e-08 -8.73844e-08 -1 -525.171 1098.9)" stroke="#0053B5" stroke-opacity="0.2" stroke-width="2"/>
<line y1="-1" x2="578.75" y2="-1" transform="matrix(1 -8.74612e-08 -8.73844e-08 -1 -525.171 1156.8)" stroke="#0053B5" stroke-opacity="0.2" stroke-width="2"/>
<line y1="-1" x2="578.75" y2="-1" transform="matrix(1 -8.74612e-08 -8.73844e-08 -1 -525.171 1041)" stroke="#0053B5" stroke-opacity="0.2" stroke-width="2"/>
<line y1="-1" x2="579.004" y2="-1" transform="matrix(4.36922e-08 1 1 -4.37306e-08 227.182 1156.65)" stroke="#0053B5" stroke-opacity="0.2" stroke-width="2"/>
<line y1="-1" x2="579.004" y2="-1" transform="matrix(4.36922e-08 1 1 -4.37306e-08 111.434 1156.65)" stroke="#0053B5" stroke-opacity="0.2" stroke-width="2"/>
<line y1="-1" x2="579.004" y2="-1" transform="matrix(4.36922e-08 1 1 -4.37306e-08 53.5571 1156.65)" stroke="#0053B5" stroke-opacity="0.2" stroke-width="2"/>
<line y1="-1" x2="579.004" y2="-1" transform="matrix(4.36922e-08 1 1 -4.37306e-08 169.307 1156.65)" stroke="#0053B5" stroke-opacity="0.2" stroke-width="2"/>
<line y1="-1" x2="578.75" y2="-1" transform="matrix(1 -8.74612e-08 -8.73844e-08 -1 53.5527 1214.55)" stroke="#0053B5" stroke-opacity="0.2" stroke-width="2"/>
<line y1="-1" x2="578.75" y2="-1" transform="matrix(1 -8.74612e-08 -8.73844e-08 -1 53.5527 1272.45)" stroke="#0053B5" stroke-opacity="0.2" stroke-width="2"/>
<line y1="-1" x2="578.75" y2="-1" transform="matrix(1 -8.74612e-08 -8.73844e-08 -1 53.5527 1330.35)" stroke="#0053B5" stroke-opacity="0.2" stroke-width="2"/>
<line y1="-1" x2="578.75" y2="-1" transform="matrix(1 -8.74612e-08 -8.73844e-08 -1 53.5527 1388.25)" stroke="#0053B5" stroke-opacity="0.2" stroke-width="2"/>
<line y1="-1" x2="578.75" y2="-1" transform="matrix(1 -8.74612e-08 -8.73844e-08 -1 53.5527 1446.15)" stroke="#0053B5" stroke-opacity="0.2" stroke-width="2"/>
<line y1="-1" x2="578.75" y2="-1" transform="matrix(1 -8.74612e-08 -8.73844e-08 -1 53.5527 1504.05)" stroke="#0053B5" stroke-opacity="0.2" stroke-width="2"/>
<line y1="-1" x2="578.75" y2="-1" transform="matrix(1 -8.74612e-08 -8.73844e-08 -1 53.5527 1561.95)" stroke="#0053B5" stroke-opacity="0.2" stroke-width="2"/>
<line y1="-1" x2="578.75" y2="-1" transform="matrix(1 -8.74612e-08 -8.73844e-08 -1 53.5527 1619.85)" stroke="#0053B5" stroke-opacity="0.2" stroke-width="2"/>
<line y1="-1" x2="578.75" y2="-1" transform="matrix(1 -8.7442e-08 -8.74036e-08 -1 -525.171 1214.55)" stroke="#0053B5" stroke-opacity="0.2" stroke-width="2"/>
<line y1="-1" x2="578.75" y2="-1" transform="matrix(1 -8.74612e-08 -8.73844e-08 -1 -525.171 1272.45)" stroke="#0053B5" stroke-opacity="0.2" stroke-width="2"/>
<line y1="-1" x2="578.75" y2="-1" transform="matrix(1 -8.74612e-08 -8.73844e-08 -1 -525.171 1330.35)" stroke="#0053B5" stroke-opacity="0.2" stroke-width="2"/>
<line y1="-1" x2="578.75" y2="-1" transform="matrix(1 -8.74612e-08 -8.73844e-08 -1 -525.171 1388.25)" stroke="#0053B5" stroke-opacity="0.2" stroke-width="2"/>
<line y1="-1" x2="578.75" y2="-1" transform="matrix(1 -8.74612e-08 -8.73844e-08 -1 -525.171 1446.15)" stroke="#0053B5" stroke-opacity="0.2" stroke-width="2"/>
<line y1="-1" x2="578.75" y2="-1" transform="matrix(1 -8.74612e-08 -8.73844e-08 -1 -525.171 1504.05)" stroke="#0053B5" stroke-opacity="0.2" stroke-width="2"/>
<line y1="-1" x2="578.75" y2="-1" transform="matrix(1 -8.74612e-08 -8.73844e-08 -1 -525.171 1561.95)" stroke="#0053B5" stroke-opacity="0.2" stroke-width="2"/>
<line y1="-1" x2="578.75" y2="-1" transform="matrix(1 -8.74612e-08 -8.73844e-08 -1 -525.171 1619.85)" stroke="#0053B5" stroke-opacity="0.2" stroke-width="2"/>
<line y1="-1" x2="578.75" y2="-1" transform="matrix(1 -8.7442e-08 -8.74036e-08 -1 -525.171 -1.20703)" stroke="#0053B5" stroke-opacity="0.2" stroke-width="2"/>
<line y1="-1" x2="578.75" y2="-1" transform="matrix(1 -8.74612e-08 -8.73844e-08 -1 -525.171 56.6934)" stroke="#0053B5" stroke-opacity="0.2" stroke-width="2"/>
<line y1="-1" x2="578.75" y2="-1" transform="matrix(1 -8.74612e-08 -8.73844e-08 -1 -525.171 114.594)" stroke="#0053B5" stroke-opacity="0.2" stroke-width="2"/>
<line y1="-1" x2="578.75" y2="-1" transform="matrix(1 -8.74612e-08 -8.73844e-08 -1 -525.171 172.494)" stroke="#0053B5" stroke-opacity="0.2" stroke-width="2"/>
<line y1="-1" x2="578.75" y2="-1" transform="matrix(1 -8.74612e-08 -8.73844e-08 -1 -525.171 230.394)" stroke="#0053B5" stroke-opacity="0.2" stroke-width="2"/>
<line y1="-1" x2="578.75" y2="-1" transform="matrix(1 -8.74612e-08 -8.73844e-08 -1 -525.171 288.294)" stroke="#0053B5" stroke-opacity="0.2" stroke-width="2"/>
<line y1="-1" x2="578.75" y2="-1" transform="matrix(1 -8.74612e-08 -8.73844e-08 -1 -525.171 346.195)" stroke="#0053B5" stroke-opacity="0.2" stroke-width="2"/>
<line y1="-1" x2="578.75" y2="-1" transform="matrix(1 -8.74612e-08 -8.73844e-08 -1 -525.171 404.096)" stroke="#0053B5" stroke-opacity="0.2" stroke-width="2"/>
<line y1="-1" x2="578.75" y2="-1" transform="matrix(1 -8.74612e-08 -8.73844e-08 -1 -525.171 519.896)" stroke="#0053B5" stroke-opacity="0.2" stroke-width="2"/>
<line y1="-1" x2="578.75" y2="-1" transform="matrix(1 -8.74612e-08 -8.73844e-08 -1 -525.171 577.796)" stroke="#0053B5" stroke-opacity="0.2" stroke-width="2"/>
<line y1="-1" x2="578.75" y2="-1" transform="matrix(1 -8.74612e-08 -8.73844e-08 -1 -525.171 461.996)" stroke="#0053B5" stroke-opacity="0.2" stroke-width="2"/>
<rect width="58.1212" height="58.1212" transform="matrix(-1 -1.74846e-07 -1.74846e-07 1 52.0781 694.464)" fill="#FBBC04" fill-opacity="0.1"/>
<rect width="58.1212" height="58.1212" transform="matrix(-1 -1.74846e-07 -1.74846e-07 1 168.318 694.464)" fill="#FBBC04" fill-opacity="0.1"/>
<rect width="58.1212" height="58.1212" transform="matrix(-1 -1.74846e-07 -1.74846e-07 1 110.952 868.99)" fill="#EA4335" fill-opacity="0.1"/>
<rect width="58.1212" height="58.1212" transform="matrix(-1 -1.74846e-07 -1.74846e-07 1 110.952 985.017)" fill="#EA4335" fill-opacity="0.1"/>
<rect width="58.1212" height="58.1212" transform="matrix(-1 -1.74846e-07 -1.74846e-07 1 225.795 867.806)" fill="#EA4335" fill-opacity="0.1"/>
<rect width="58.1212" height="58.1212" transform="matrix(-1 -1.74846e-07 -1.74846e-07 1 168.318 752.585)" fill="#4285F4" fill-opacity="0.1"/>
<rect width="58.1212" height="58.1212" transform="matrix(-1 -1.74846e-07 -1.74846e-07 1 284.993 810.976)" fill="#4285F4" fill-opacity="0.1"/>
<rect width="58.1212" height="58.1212" transform="matrix(-1 -1.74846e-07 -1.74846e-07 1 52.9385 985.017)" fill="#4285F4" fill-opacity="0.1"/>
<rect width="58.1212" height="58.1212" transform="matrix(-1 -1.74846e-07 -1.74846e-07 1 226.442 752.585)" fill="#4285F4"/>
<rect width="58.1212" height="58.1212" transform="matrix(-1 -1.74846e-07 -1.74846e-07 1 284.562 694.464)" fill="#EA4335" fill-opacity="0.1"/>
<rect width="58.1212" height="58.1212" transform="matrix(-1 -1.74846e-07 -1.74846e-07 1 110.198 694.464)" fill="#FBBC04"/>
<rect width="58.1212" height="58.1212" transform="matrix(-1 -1.74846e-07 -1.74846e-07 1 168.965 925.819)" fill="#EA4335"/>
<rect width="58.1212" height="58.1212" transform="matrix(-1 -1.74846e-07 -1.74846e-07 1 52.0781 810.707)" fill="#34A853"/>
<rect width="58.1212" height="58.1212" transform="matrix(-1 -1.74846e-07 -1.74846e-07 1 52 579)" fill="#34A853"/>
<rect width="58.1212" height="58.1212" transform="matrix(-1 -1.74846e-07 -1.74846e-07 1 52.0781 868.828)" fill="#34A853" fill-opacity="0.1"/>
<rect width="58.1212" height="58.1212" transform="matrix(-1 -1.74846e-07 -1.74846e-07 1 51 521)" fill="#34A853" fill-opacity="0.1"/>
<rect width="58.1212" height="58.1212" transform="matrix(-1 -1.74846e-07 -1.74846e-07 1 109.768 810.976)" fill="#34A853" fill-opacity="0.1"/>
<rect width="58.1212" height="58.1212" transform="matrix(-1 -1.74846e-07 -1.74846e-07 1 110 579)" fill="#34A853" fill-opacity="0.1"/>
</g>
<defs>
<radialGradient id="paint0_radial_936_1352" cx="0" cy="0" r="1" gradientUnits="userSpaceOnUse" gradientTransform="translate(250.5 830.5) rotate(90) scale(830.5 250.5)">
<stop stop-color="white"/>
<stop offset="0.35" stop-color="white" stop-opacity="0.8"/>
<stop offset="1" stop-color="white" stop-opacity="0"/>
</radialGradient>
</defs>
</svg>
