<svg width="32" height="32" viewBox="0 0 32 32" fill="none" xmlns="http://www.w3.org/2000/svg">
<rect x="0.5" y="0.499939" width="31" height="31" rx="15.5" stroke="#656C73"/>
<path d="M22.2222 7.99994C22.6937 7.99994 23.1459 8.18724 23.4793 8.52064C23.8127 8.85404 24 9.30622 24 9.77772V22.2222C24 22.6937 23.8127 23.1458 23.4793 23.4792C23.1459 23.8126 22.6937 23.9999 22.2222 23.9999H9.77778C9.30628 23.9999 8.8541 23.8126 8.5207 23.4792C8.1873 23.1458 8 22.6937 8 22.2222V9.77772C8 9.30622 8.1873 8.85404 8.5207 8.52064C8.8541 8.18724 9.30628 7.99994 9.77778 7.99994H22.2222ZM21.7778 21.7777V17.0666C21.7778 16.2981 21.4725 15.561 20.929 15.0176C20.3856 14.4741 19.6485 14.1688 18.88 14.1688C18.1244 14.1688 17.2444 14.6311 16.8178 15.3244V14.3377H14.3378V21.7777H16.8178V17.3955C16.8178 16.7111 17.3689 16.1511 18.0533 16.1511C18.3834 16.1511 18.6999 16.2822 18.9333 16.5155C19.1667 16.7489 19.2978 17.0654 19.2978 17.3955V21.7777H21.7778ZM11.4489 12.9422C11.8449 12.9422 12.2248 12.7848 12.5048 12.5048C12.7849 12.2247 12.9422 11.8449 12.9422 11.4488C12.9422 10.6222 12.2756 9.94661 11.4489 9.94661C11.0505 9.94661 10.6684 10.1049 10.3867 10.3866C10.1049 10.6683 9.94667 11.0504 9.94667 11.4488C9.94667 12.2755 10.6222 12.9422 11.4489 12.9422ZM12.6844 21.7777V14.3377H10.2222V21.7777H12.6844Z" fill="#656C73"/>
</svg>
