<svg width="338" height="432" viewBox="0 0 338 432" fill="none" xmlns="http://www.w3.org/2000/svg">
<ellipse cx="299.673" cy="261.876" rx="45.6042" ry="45.2851" transform="rotate(60 299.673 261.876)" fill="#EA4335"/>
<rect x="182.498" y="374.443" width="46" height="46" transform="rotate(-135 182.498 374.443)" fill="#FBBC04"/>
<path d="M269.788 154.285L154.091 223.416L151.95 88.8715L269.788 154.285Z" fill="#4285F4"/>
<path d="M252.413 392.056L261.692 401.334L252.414 410.612C250.853 412.173 250.853 414.7 252.415 416.262C253.976 417.823 256.5 417.82 258.061 416.259L267.338 406.981L276.614 416.256C278.175 417.818 280.702 417.818 282.26 416.26C283.821 414.699 283.821 412.172 282.26 410.61L272.985 401.335L282.259 392.061C283.82 390.5 283.82 387.972 282.262 386.415C280.7 384.853 278.173 384.853 276.612 386.414L267.338 395.688L258.059 386.41C256.498 384.848 253.974 384.852 252.413 386.413C250.852 387.967 250.852 390.494 252.413 392.056Z" fill="#34A853"/>
<circle cx="286.684" cy="60.6836" r="16.5" transform="rotate(180 286.684 60.6836)" stroke="#FBBC04" stroke-width="6"/>
</svg>
