<svg width="122" height="719" viewBox="0 0 122 719" fill="none" xmlns="http://www.w3.org/2000/svg">
<path d="M62 659L62 471" stroke="#EA4335" stroke-width="2" stroke-linecap="round"/>
<path d="M36.5732 16.62C37.0132 16.18 37.8599 15.3333 39.1132 14.08C40.3799 12.8133 41.1932 11.9867 41.5532 11.6C42.0332 11.08 42.3599 10.6467 42.5332 10.3C42.7199 9.95333 42.8132 9.56 42.8132 9.12C42.8132 8.65333 42.6399 8.26 42.2932 7.94C41.9465 7.62 41.4865 7.46 40.9132 7.46C40.3532 7.46 39.8999 7.62 39.5532 7.94C39.2065 8.26 38.9599 8.66 38.8132 9.14L36.4532 8.16C36.5999 7.64 36.8665 7.14 37.2532 6.66C37.6532 6.16667 38.1665 5.76667 38.7932 5.46C39.4199 5.15333 40.1399 5 40.9532 5C41.8599 5 42.6532 5.18 43.3332 5.54C44.0132 5.88667 44.5399 6.36667 44.9132 6.98C45.2865 7.58 45.4732 8.25333 45.4732 9C45.4732 10.48 44.7532 11.9267 43.3132 13.34C42.7265 13.9133 41.6399 14.9933 40.0532 16.58L40.1132 16.7H45.6532V19H36.5732V16.62ZM53.3865 19.32C52.2398 19.32 51.2332 19.0133 50.3665 18.4C49.4998 17.7733 48.8265 16.92 48.3465 15.84C47.8798 14.7467 47.6465 13.52 47.6465 12.16C47.6465 10.8 47.8798 9.58 48.3465 8.5C48.8265 7.40667 49.4998 6.55333 50.3665 5.94C51.2332 5.31333 52.2398 5 53.3865 5C54.5332 5 55.5398 5.31333 56.4065 5.94C57.2732 6.55333 57.9398 7.40667 58.4065 8.5C58.8865 9.58 59.1265 10.8 59.1265 12.16C59.1265 13.52 58.8865 14.7467 58.4065 15.84C57.9398 16.92 57.2732 17.7733 56.4065 18.4C55.5398 19.0133 54.5332 19.32 53.3865 19.32ZM53.3865 16.86C54.0265 16.86 54.5798 16.66 55.0465 16.26C55.5265 15.8467 55.8865 15.2867 56.1265 14.58C56.3798 13.86 56.5065 13.0533 56.5065 12.16C56.5065 10.7733 56.2265 9.64667 55.6665 8.78C55.1065 7.9 54.3465 7.46 53.3865 7.46C52.4398 7.46 51.6865 7.9 51.1265 8.78C50.5665 9.66 50.2865 10.7867 50.2865 12.16C50.2865 13.0533 50.4065 13.86 50.6465 14.58C50.8998 15.2867 51.2598 15.8467 51.7265 16.26C52.2065 16.66 52.7598 16.86 53.3865 16.86ZM60.9873 16.62C61.4273 16.18 62.2739 15.3333 63.5273 14.08C64.7939 12.8133 65.6073 11.9867 65.9673 11.6C66.4473 11.08 66.7739 10.6467 66.9473 10.3C67.1339 9.95333 67.2273 9.56 67.2273 9.12C67.2273 8.65333 67.0539 8.26 66.7073 7.94C66.3606 7.62 65.9006 7.46 65.3273 7.46C64.7673 7.46 64.3139 7.62 63.9673 7.94C63.6206 8.26 63.3739 8.66 63.2273 9.14L60.8673 8.16C61.0139 7.64 61.2806 7.14 61.6673 6.66C62.0673 6.16667 62.5806 5.76667 63.2073 5.46C63.8339 5.15333 64.5539 5 65.3673 5C66.2739 5 67.0673 5.18 67.7473 5.54C68.4273 5.88667 68.9539 6.36667 69.3273 6.98C69.7006 7.58 69.8873 8.25333 69.8873 9C69.8873 10.48 69.1673 11.9267 67.7273 13.34C67.1406 13.9133 66.0539 14.9933 64.4673 16.58L64.5273 16.7H70.0673V19H60.9873V16.62ZM77.8005 19.32C76.6539 19.32 75.6472 19.0133 74.7805 18.4C73.9139 17.7733 73.2405 16.92 72.7605 15.84C72.2939 14.7467 72.0605 13.52 72.0605 12.16C72.0605 10.8 72.2939 9.58 72.7605 8.5C73.2405 7.40667 73.9139 6.55333 74.7805 5.94C75.6472 5.31333 76.6539 5 77.8005 5C78.9472 5 79.9539 5.31333 80.8205 5.94C81.6872 6.55333 82.3539 7.40667 82.8205 8.5C83.3005 9.58 83.5405 10.8 83.5405 12.16C83.5405 13.52 83.3005 14.7467 82.8205 15.84C82.3539 16.92 81.6872 17.7733 80.8205 18.4C79.9539 19.0133 78.9472 19.32 77.8005 19.32ZM77.8005 16.86C78.4405 16.86 78.9939 16.66 79.4605 16.26C79.9405 15.8467 80.3005 15.2867 80.5405 14.58C80.7939 13.86 80.9205 13.0533 80.9205 12.16C80.9205 10.7733 80.6405 9.64667 80.0805 8.78C79.5205 7.9 78.7605 7.46 77.8005 7.46C76.8539 7.46 76.1005 7.9 75.5405 8.78C74.9805 9.66 74.7005 10.7867 74.7005 12.16C74.7005 13.0533 74.8205 13.86 75.0605 14.58C75.3139 15.2867 75.6739 15.8467 76.1405 16.26C76.6205 16.66 77.1739 16.86 77.8005 16.86Z" fill="#EA4335"/>
<path d="M39.8974 234.62C40.3374 234.18 41.1841 233.333 42.4374 232.08C43.7041 230.813 44.5174 229.987 44.8774 229.6C45.3574 229.08 45.6841 228.647 45.8574 228.3C46.0441 227.953 46.1374 227.56 46.1374 227.12C46.1374 226.653 45.9641 226.26 45.6174 225.94C45.2708 225.62 44.8108 225.46 44.2374 225.46C43.6774 225.46 43.2241 225.62 42.8774 225.94C42.5308 226.26 42.2841 226.66 42.1374 227.14L39.7774 226.16C39.9241 225.64 40.1908 225.14 40.5774 224.66C40.9774 224.167 41.4908 223.767 42.1174 223.46C42.7441 223.153 43.4641 223 44.2774 223C45.1841 223 45.9774 223.18 46.6574 223.54C47.3374 223.887 47.8641 224.367 48.2374 224.98C48.6108 225.58 48.7974 226.253 48.7974 227C48.7974 228.48 48.0774 229.927 46.6374 231.34C46.0508 231.913 44.9641 232.993 43.3774 234.58L43.4374 234.7H48.9774V237H39.8974V234.62ZM56.7107 237.32C55.564 237.32 54.5574 237.013 53.6907 236.4C52.824 235.773 52.1507 234.92 51.6707 233.84C51.204 232.747 50.9707 231.52 50.9707 230.16C50.9707 228.8 51.204 227.58 51.6707 226.5C52.1507 225.407 52.824 224.553 53.6907 223.94C54.5574 223.313 55.564 223 56.7107 223C57.8574 223 58.864 223.313 59.7307 223.94C60.5974 224.553 61.264 225.407 61.7307 226.5C62.2107 227.58 62.4507 228.8 62.4507 230.16C62.4507 231.52 62.2107 232.747 61.7307 233.84C61.264 234.92 60.5974 235.773 59.7307 236.4C58.864 237.013 57.8574 237.32 56.7107 237.32ZM56.7107 234.86C57.3507 234.86 57.904 234.66 58.3707 234.26C58.8507 233.847 59.2107 233.287 59.4507 232.58C59.704 231.86 59.8307 231.053 59.8307 230.16C59.8307 228.773 59.5507 227.647 58.9907 226.78C58.4307 225.9 57.6707 225.46 56.7107 225.46C55.764 225.46 55.0107 225.9 54.4507 226.78C53.8907 227.66 53.6107 228.787 53.6107 230.16C53.6107 231.053 53.7307 231.86 53.9707 232.58C54.224 233.287 54.584 233.847 55.0507 234.26C55.5307 234.66 56.084 234.86 56.7107 234.86ZM64.3115 234.62C64.7515 234.18 65.5982 233.333 66.8515 232.08C68.1182 230.813 68.9315 229.987 69.2915 229.6C69.7715 229.08 70.0982 228.647 70.2715 228.3C70.4582 227.953 70.5515 227.56 70.5515 227.12C70.5515 226.653 70.3782 226.26 70.0315 225.94C69.6848 225.62 69.2248 225.46 68.6515 225.46C68.0915 225.46 67.6382 225.62 67.2915 225.94C66.9448 226.26 66.6982 226.66 66.5515 227.14L64.1915 226.16C64.3382 225.64 64.6048 225.14 64.9915 224.66C65.3915 224.167 65.9048 223.767 66.5315 223.46C67.1582 223.153 67.8782 223 68.6915 223C69.5982 223 70.3915 223.18 71.0715 223.54C71.7515 223.887 72.2782 224.367 72.6515 224.98C73.0248 225.58 73.2115 226.253 73.2115 227C73.2115 228.48 72.4915 229.927 71.0515 231.34C70.4648 231.913 69.3782 232.993 67.7915 234.58L67.8515 234.7H73.3915V237H64.3115V234.62ZM78.4895 226.74L76.4295 228.24L75.1095 226.22L79.1295 223.32H81.1095V237H78.4895V226.74Z" fill="#EA4335"/>
<path d="M38.7353 452.62C39.1753 452.18 40.022 451.333 41.2753 450.08C42.542 448.813 43.3553 447.987 43.7153 447.6C44.1953 447.08 44.522 446.647 44.6953 446.3C44.882 445.953 44.9753 445.56 44.9753 445.12C44.9753 444.653 44.802 444.26 44.4553 443.94C44.1086 443.62 43.6486 443.46 43.0753 443.46C42.5153 443.46 42.062 443.62 41.7153 443.94C41.3686 444.26 41.122 444.66 40.9753 445.14L38.6153 444.16C38.762 443.64 39.0286 443.14 39.4153 442.66C39.8153 442.167 40.3286 441.767 40.9553 441.46C41.582 441.153 42.302 441 43.1153 441C44.022 441 44.8153 441.18 45.4953 441.54C46.1753 441.887 46.702 442.367 47.0753 442.98C47.4486 443.58 47.6353 444.253 47.6353 445C47.6353 446.48 46.9153 447.927 45.4753 449.34C44.8886 449.913 43.802 450.993 42.2153 452.58L42.2753 452.7H47.8153V455H38.7353V452.62ZM55.5486 455.32C54.4019 455.32 53.3953 455.013 52.5286 454.4C51.6619 453.773 50.9886 452.92 50.5086 451.84C50.0419 450.747 49.8086 449.52 49.8086 448.16C49.8086 446.8 50.0419 445.58 50.5086 444.5C50.9886 443.407 51.6619 442.553 52.5286 441.94C53.3953 441.313 54.4019 441 55.5486 441C56.6953 441 57.7019 441.313 58.5686 441.94C59.4353 442.553 60.1019 443.407 60.5686 444.5C61.0486 445.58 61.2886 446.8 61.2886 448.16C61.2886 449.52 61.0486 450.747 60.5686 451.84C60.1019 452.92 59.4353 453.773 58.5686 454.4C57.7019 455.013 56.6953 455.32 55.5486 455.32ZM55.5486 452.86C56.1886 452.86 56.7419 452.66 57.2086 452.26C57.6886 451.847 58.0486 451.287 58.2886 450.58C58.5419 449.86 58.6686 449.053 58.6686 448.16C58.6686 446.773 58.3886 445.647 57.8286 444.78C57.2686 443.9 56.5086 443.46 55.5486 443.46C54.6019 443.46 53.8486 443.9 53.2886 444.78C52.7286 445.66 52.4486 446.787 52.4486 448.16C52.4486 449.053 52.5686 449.86 52.8086 450.58C53.0619 451.287 53.4219 451.847 53.8886 452.26C54.3686 452.66 54.9219 452.86 55.5486 452.86ZM63.1494 452.62C63.5894 452.18 64.436 451.333 65.6894 450.08C66.956 448.813 67.7694 447.987 68.1294 447.6C68.6094 447.08 68.936 446.647 69.1094 446.3C69.296 445.953 69.3894 445.56 69.3894 445.12C69.3894 444.653 69.216 444.26 68.8694 443.94C68.5227 443.62 68.0627 443.46 67.4894 443.46C66.9294 443.46 66.476 443.62 66.1294 443.94C65.7827 444.26 65.536 444.66 65.3894 445.14L63.0294 444.16C63.176 443.64 63.4427 443.14 63.8294 442.66C64.2294 442.167 64.7427 441.767 65.3694 441.46C65.996 441.153 66.716 441 67.5294 441C68.436 441 69.2294 441.18 69.9094 441.54C70.5894 441.887 71.116 442.367 71.4894 442.98C71.8627 443.58 72.0494 444.253 72.0494 445C72.0494 446.48 71.3294 447.927 69.8894 449.34C69.3027 449.913 68.216 450.993 66.6294 452.58L66.6894 452.7H72.2294V455H63.1494V452.62ZM74.2627 452.62C74.7027 452.18 75.5493 451.333 76.8027 450.08C78.0693 448.813 78.8827 447.987 79.2427 447.6C79.7227 447.08 80.0493 446.647 80.2227 446.3C80.4093 445.953 80.5027 445.56 80.5027 445.12C80.5027 444.653 80.3293 444.26 79.9827 443.94C79.636 443.62 79.176 443.46 78.6027 443.46C78.0427 443.46 77.5893 443.62 77.2427 443.94C76.896 444.26 76.6493 444.66 76.5027 445.14L74.1427 444.16C74.2893 443.64 74.556 443.14 74.9427 442.66C75.3427 442.167 75.856 441.767 76.4827 441.46C77.1093 441.153 77.8293 441 78.6427 441C79.5493 441 80.3427 441.18 81.0227 441.54C81.7027 441.887 82.2293 442.367 82.6027 442.98C82.976 443.58 83.1627 444.253 83.1627 445C83.1627 446.48 82.4427 447.927 81.0027 449.34C80.416 449.913 79.3293 450.993 77.7427 452.58L77.8027 452.7H83.3427V455H74.2627V452.62Z" fill="#EA4335"/>
<path d="M122 658C122 691.689 94.6894 719 61 719C27.3106 719 0 691.689 0 658C0 624.311 27.3106 597 61 597C94.6894 597 122 624.311 122 658Z" fill="#EA4335"/>
<path d="M39.04 653.62C39.48 653.18 40.3267 652.333 41.58 651.08C42.8467 649.813 43.66 648.987 44.02 648.6C44.5 648.08 44.8267 647.647 45 647.3C45.1867 646.953 45.28 646.56 45.28 646.12C45.28 645.653 45.1067 645.26 44.76 644.94C44.4133 644.62 43.9533 644.46 43.38 644.46C42.82 644.46 42.3667 644.62 42.02 644.94C41.6733 645.26 41.4267 645.66 41.28 646.14L38.92 645.16C39.0667 644.64 39.3333 644.14 39.72 643.66C40.12 643.167 40.6333 642.767 41.26 642.46C41.8867 642.153 42.6067 642 43.42 642C44.3267 642 45.12 642.18 45.8 642.54C46.48 642.887 47.0067 643.367 47.38 643.98C47.7533 644.58 47.94 645.253 47.94 646C47.94 647.48 47.22 648.927 45.78 650.34C45.1933 650.913 44.1067 651.993 42.52 653.58L42.58 653.7H48.12V656H39.04V653.62ZM55.8533 656.32C54.7066 656.32 53.6999 656.013 52.8333 655.4C51.9666 654.773 51.2933 653.92 50.8133 652.84C50.3466 651.747 50.1133 650.52 50.1133 649.16C50.1133 647.8 50.3466 646.58 50.8133 645.5C51.2933 644.407 51.9666 643.553 52.8333 642.94C53.6999 642.313 54.7066 642 55.8533 642C56.9999 642 58.0066 642.313 58.8733 642.94C59.7399 643.553 60.4066 644.407 60.8733 645.5C61.3533 646.58 61.5933 647.8 61.5933 649.16C61.5933 650.52 61.3533 651.747 60.8733 652.84C60.4066 653.92 59.7399 654.773 58.8733 655.4C58.0066 656.013 56.9999 656.32 55.8533 656.32ZM55.8533 653.86C56.4933 653.86 57.0466 653.66 57.5133 653.26C57.9933 652.847 58.3533 652.287 58.5933 651.58C58.8466 650.86 58.9733 650.053 58.9733 649.16C58.9733 647.773 58.6933 646.647 58.1333 645.78C57.5733 644.9 56.8133 644.46 55.8533 644.46C54.9066 644.46 54.1533 644.9 53.5933 645.78C53.0333 646.66 52.7533 647.787 52.7533 649.16C52.7533 650.053 52.8733 650.86 53.1133 651.58C53.3666 652.287 53.7266 652.847 54.1933 653.26C54.6733 653.66 55.2266 653.86 55.8533 653.86ZM63.4541 653.62C63.8941 653.18 64.7407 652.333 65.9941 651.08C67.2607 649.813 68.0741 648.987 68.4341 648.6C68.9141 648.08 69.2407 647.647 69.4141 647.3C69.6007 646.953 69.6941 646.56 69.6941 646.12C69.6941 645.653 69.5207 645.26 69.1741 644.94C68.8274 644.62 68.3674 644.46 67.7941 644.46C67.2341 644.46 66.7807 644.62 66.4341 644.94C66.0874 645.26 65.8407 645.66 65.6941 646.14L63.3341 645.16C63.4807 644.64 63.7474 644.14 64.1341 643.66C64.5341 643.167 65.0474 642.767 65.6741 642.46C66.3007 642.153 67.0207 642 67.8341 642C68.7407 642 69.5341 642.18 70.2141 642.54C70.8941 642.887 71.4207 643.367 71.7941 643.98C72.1674 644.58 72.3541 645.253 72.3541 646C72.3541 647.48 71.6341 648.927 70.1941 650.34C69.6074 650.913 68.5207 651.993 66.9341 653.58L66.9941 653.7H72.5341V656H63.4541V653.62ZM79.2273 656.32C78.0673 656.32 77.0407 656.013 76.1473 655.4C75.2673 654.787 74.6607 653.893 74.3273 652.72L76.8073 651.74C76.9673 652.393 77.254 652.9 77.6673 653.26C78.0807 653.607 78.6007 653.78 79.2273 653.78C79.8007 653.78 80.294 653.607 80.7073 653.26C81.134 652.913 81.3473 652.473 81.3473 651.94C81.3473 651.367 81.1207 650.913 80.6673 650.58C80.2273 650.233 79.6273 650.06 78.8673 650.06H77.6873V647.68H78.7673C79.354 647.68 79.8473 647.533 80.2473 647.24C80.6607 646.947 80.8673 646.52 80.8673 645.96C80.8673 645.507 80.7007 645.133 80.3673 644.84C80.034 644.547 79.6073 644.4 79.0873 644.4C78.5407 644.4 78.1007 644.547 77.7673 644.84C77.434 645.133 77.2007 645.5 77.0673 645.94L74.6873 644.96C74.9673 644.16 75.4807 643.467 76.2273 642.88C76.9873 642.293 77.9473 642 79.1073 642C79.9607 642 80.7207 642.16 81.3873 642.48C82.0673 642.8 82.594 643.24 82.9673 643.8C83.3407 644.347 83.5273 644.967 83.5273 645.66C83.5273 646.393 83.354 647.02 83.0073 647.54C82.674 648.06 82.2673 648.44 81.7873 648.68V648.84C82.454 649.107 82.994 649.527 83.4073 650.1C83.8207 650.673 84.0273 651.367 84.0273 652.18C84.0273 652.967 83.8273 653.673 83.4273 654.3C83.0273 654.927 82.4607 655.42 81.7273 655.78C81.0073 656.14 80.174 656.32 79.2273 656.32Z" fill="#FAFAFA"/>
<path d="M38.052 675.192C37.22 675.192 36.46 674.996 35.772 674.604C35.084 674.204 34.54 673.664 34.14 672.984C33.748 672.296 33.552 671.536 33.552 670.704C33.552 669.872 33.748 669.116 34.14 668.436C34.54 667.748 35.084 667.208 35.772 666.816C36.46 666.416 37.22 666.216 38.052 666.216C39.348 666.216 40.42 666.684 41.268 667.62L40.128 668.724C39.576 668.076 38.888 667.752 38.064 667.752C37.528 667.752 37.04 667.876 36.6 668.124C36.16 668.364 35.812 668.708 35.556 669.156C35.308 669.604 35.184 670.12 35.184 670.704C35.184 671.288 35.308 671.804 35.556 672.252C35.812 672.7 36.16 673.048 36.6 673.296C37.04 673.536 37.528 673.656 38.064 673.656C38.968 673.656 39.724 673.28 40.332 672.528L41.484 673.62C41.06 674.132 40.556 674.524 39.972 674.796C39.396 675.06 38.756 675.192 38.052 675.192ZM46.164 675.192C45.492 675.192 44.904 675.048 44.4 674.76C43.904 674.472 43.516 674.056 43.236 673.512C42.964 672.968 42.828 672.324 42.828 671.58V666.408H44.436V671.676C44.436 672.268 44.584 672.748 44.88 673.116C45.184 673.476 45.612 673.656 46.164 673.656C46.716 673.656 47.14 673.476 47.436 673.116C47.74 672.748 47.892 672.268 47.892 671.676V666.408H49.5V671.58C49.5 672.292 49.364 672.92 49.092 673.464C48.82 674.008 48.432 674.432 47.928 674.736C47.424 675.04 46.836 675.192 46.164 675.192ZM51.316 666.408H54.448C55.008 666.408 55.504 666.524 55.936 666.756C56.376 666.988 56.716 667.312 56.956 667.728C57.196 668.136 57.316 668.6 57.316 669.12C57.316 669.672 57.14 670.164 56.788 670.596C56.444 671.02 56.008 671.328 55.48 671.52L55.468 671.604L57.772 674.904V675H55.912L53.692 671.772H52.936V675H51.316V666.408ZM54.436 670.284C54.804 670.284 55.104 670.172 55.336 669.948C55.568 669.724 55.684 669.44 55.684 669.096C55.684 668.768 55.572 668.488 55.348 668.256C55.132 668.024 54.836 667.908 54.46 667.908H52.936V670.284H54.436ZM58.9215 666.408H62.0535C62.6135 666.408 63.1095 666.524 63.5415 666.756C63.9815 666.988 64.3215 667.312 64.5615 667.728C64.8015 668.136 64.9215 668.6 64.9215 669.12C64.9215 669.672 64.7455 670.164 64.3935 670.596C64.0495 671.02 63.6135 671.328 63.0855 671.52L63.0735 671.604L65.3775 674.904V675H63.5175L61.2975 671.772H60.5415V675H58.9215V666.408ZM62.0415 670.284C62.4095 670.284 62.7095 670.172 62.9415 669.948C63.1735 669.724 63.2895 669.44 63.2895 669.096C63.2895 668.768 63.1775 668.488 62.9535 668.256C62.7375 668.024 62.4415 667.908 62.0655 667.908H60.5415V670.284H62.0415ZM66.527 666.408H71.975V667.944H68.147V669.936H71.591V671.472H68.147V673.464H71.975V675H66.527V666.408ZM73.6403 666.408H75.5243L78.9803 672.168H79.0763L78.9803 670.512V666.408H80.5883V675H78.8843L75.2363 668.916H75.1403L75.2363 670.572V675H73.6403V666.408ZM84.2865 667.944H81.8865V666.408H88.3065V667.944H85.9065V675H84.2865V667.944Z" fill="#FAFAFA"/>
<path d="M62 426L62 253" stroke="#EA4335" stroke-width="2" stroke-linecap="round"/>
<path d="M62 208L62 35" stroke="#EA4335" stroke-width="2" stroke-linecap="round"/>
</svg>
