<svg width="384" height="483" viewBox="0 0 384 483" fill="none" xmlns="http://www.w3.org/2000/svg">
<ellipse cx="83.5102" cy="184.307" rx="45.6042" ry="45.2851" transform="rotate(-120 83.5102 184.307)" fill="#EA4335"/>
<rect x="200.687" y="71.7408" width="46" height="46" transform="rotate(45 200.687 71.7408)" fill="#FBBC04"/>
<path d="M113.396 291.898L229.093 222.767L231.234 357.312L113.396 291.898Z" fill="#4285F4"/>
<circle cx="96.5002" cy="385.5" r="16.5" stroke="#FBBC04" stroke-width="6"/>
<path d="M130.771 54.1279L121.492 44.8493L130.77 35.5718C132.331 34.0105 132.331 31.4833 130.769 29.9219C129.208 28.3604 126.684 28.3637 125.123 29.925L115.845 39.2025L106.57 29.9274C105.009 28.366 102.482 28.3658 100.924 29.9236C99.3626 31.4848 99.3627 34.0121 100.924 35.5735L110.199 44.8486L100.925 54.1227C99.3639 55.6839 99.3641 58.2111 100.922 59.7691C102.484 61.3305 105.011 61.3307 106.572 59.7694L115.846 50.4954L125.125 59.774C126.686 61.3354 129.21 61.332 130.771 59.7708C132.332 58.2164 132.332 55.6893 130.771 54.1279Z" fill="#34A853"/>
</svg>
