<svg width="483" height="350" viewBox="0 0 483 350" fill="none" xmlns="http://www.w3.org/2000/svg">
<g filter="url(#filter0_d_755_5224)">
<g filter="url(#filter1_d_755_5224)">
<rect x="246" y="257" width="191" height="61" rx="30.5" fill="white"/>
</g>
<path d="M272.624 275.088H280.688C282.139 275.088 283.461 275.397 284.656 276.016C285.851 276.613 286.789 277.467 287.472 278.576C288.155 279.664 288.496 280.912 288.496 282.32C288.496 283.728 288.155 284.987 287.472 286.096C286.789 287.205 285.851 288.069 284.656 288.688C283.461 289.285 282.139 289.584 280.688 289.584H276.944V298H272.624V275.088ZM280.816 285.488C281.883 285.488 282.715 285.179 283.312 284.56C283.931 283.941 284.24 283.195 284.24 282.32C284.24 281.445 283.931 280.709 283.312 280.112C282.715 279.493 281.883 279.184 280.816 279.184H276.944V285.488H280.816ZM297.155 298.512C295.192 298.512 293.699 297.904 292.675 296.688C291.651 295.472 291.139 293.776 291.139 291.6V281.68H295.331V291.088C295.331 292.197 295.597 293.072 296.131 293.712C296.664 294.331 297.368 294.64 298.243 294.64C299.437 294.64 300.387 294.203 301.091 293.328C301.795 292.453 302.147 291.344 302.147 290V281.68H306.339V298H302.403V295.952H302.147C301.656 296.741 300.963 297.371 300.067 297.84C299.192 298.288 298.221 298.512 297.155 298.512ZM310.423 281.68H314.359V283.856H314.615C315.02 283.088 315.65 282.459 316.503 281.968C317.356 281.456 318.295 281.2 319.319 281.2C320.066 281.2 320.748 281.317 321.367 281.552V285.744C320.791 285.531 320.3 285.381 319.895 285.296C319.511 285.189 319.095 285.136 318.647 285.136C317.41 285.136 316.428 285.584 315.703 286.48C314.978 287.376 314.615 288.507 314.615 289.872V298H310.423V281.68ZM323.951 281.68H327.887V283.664H328.143C328.591 282.96 329.242 282.373 330.095 281.904C330.949 281.413 331.93 281.168 333.039 281.168C334.511 281.168 335.845 281.541 337.039 282.288C338.255 283.013 339.205 284.037 339.887 285.36C340.57 286.683 340.911 288.176 340.911 289.84C340.911 291.525 340.57 293.029 339.887 294.352C339.205 295.653 338.255 296.677 337.039 297.424C335.845 298.149 334.511 298.512 333.039 298.512C331.93 298.512 330.938 298.277 330.063 297.808C329.21 297.339 328.57 296.752 328.143 296.048H327.887L328.143 298.352V304.912H323.951V281.68ZM332.303 294.64C333.093 294.64 333.829 294.437 334.511 294.032C335.194 293.627 335.738 293.061 336.143 292.336C336.549 291.611 336.751 290.779 336.751 289.84C336.751 288.901 336.549 288.069 336.143 287.344C335.738 286.619 335.194 286.064 334.511 285.68C333.829 285.275 333.093 285.072 332.303 285.072C331.535 285.072 330.81 285.275 330.127 285.68C329.445 286.064 328.901 286.619 328.495 287.344C328.09 288.069 327.887 288.901 327.887 289.84C327.887 290.779 328.09 291.611 328.495 292.336C328.901 293.061 329.445 293.627 330.127 294.032C330.81 294.437 331.535 294.64 332.303 294.64ZM351.95 298.512C350.264 298.512 348.76 298.139 347.438 297.392C346.115 296.624 345.08 295.589 344.334 294.288C343.608 292.965 343.246 291.483 343.246 289.84C343.246 288.219 343.608 286.747 344.334 285.424C345.08 284.101 346.115 283.067 347.438 282.32C348.76 281.552 350.264 281.168 351.95 281.168C353.614 281.168 355.107 281.552 356.43 282.32C357.752 283.067 358.776 284.101 359.502 285.424C360.248 286.747 360.622 288.219 360.622 289.84C360.622 291.483 360.248 292.965 359.502 294.288C358.776 295.589 357.752 296.624 356.43 297.392C355.107 298.139 353.614 298.512 351.95 298.512ZM351.95 294.64C352.76 294.64 353.507 294.448 354.19 294.064C354.872 293.68 355.416 293.125 355.822 292.4C356.227 291.675 356.43 290.821 356.43 289.84C356.43 288.88 356.227 288.037 355.822 287.312C355.416 286.587 354.872 286.032 354.19 285.648C353.507 285.264 352.76 285.072 351.95 285.072C351.139 285.072 350.392 285.264 349.71 285.648C349.027 286.032 348.472 286.587 348.046 287.312C347.64 288.037 347.438 288.88 347.438 289.84C347.438 290.8 347.64 291.653 348.046 292.4C348.472 293.125 349.027 293.68 349.71 294.064C350.392 294.448 351.139 294.64 351.95 294.64ZM369.881 298.512C367.897 298.512 366.286 298.107 365.049 297.296C363.833 296.485 362.98 295.429 362.489 294.128L366.233 292.496C366.574 293.264 367.054 293.851 367.673 294.256C368.313 294.64 369.049 294.832 369.881 294.832C370.649 294.832 371.289 294.715 371.801 294.48C372.313 294.224 372.569 293.819 372.569 293.264C372.569 292.731 372.334 292.336 371.865 292.08C371.396 291.803 370.692 291.557 369.753 291.344L367.833 290.928C366.51 290.608 365.412 290.032 364.537 289.2C363.662 288.347 363.225 287.291 363.225 286.032C363.225 285.093 363.502 284.251 364.057 283.504C364.633 282.757 365.401 282.181 366.361 281.776C367.342 281.371 368.42 281.168 369.593 281.168C372.964 281.168 375.214 282.352 376.345 284.72L372.761 286.288C372.121 285.136 371.097 284.56 369.689 284.56C368.964 284.56 368.388 284.699 367.961 284.976C367.534 285.232 367.321 285.563 367.321 285.968C367.321 286.736 368.046 287.312 369.497 287.696L371.897 288.272C373.518 288.677 374.734 289.296 375.545 290.128C376.377 290.96 376.793 291.984 376.793 293.2C376.793 294.245 376.484 295.173 375.865 295.984C375.268 296.773 374.436 297.392 373.369 297.84C372.324 298.288 371.161 298.512 369.881 298.512ZM387.634 298.512C386.012 298.512 384.551 298.139 383.25 297.392C381.948 296.645 380.924 295.621 380.178 294.32C379.452 292.997 379.09 291.515 379.09 289.872C379.09 288.315 379.452 286.875 380.178 285.552C380.903 284.208 381.906 283.141 383.186 282.352C384.466 281.563 385.895 281.168 387.474 281.168C389.159 281.168 390.61 281.531 391.826 282.256C393.042 282.981 393.959 283.973 394.578 285.232C395.218 286.491 395.538 287.888 395.538 289.424C395.538 289.915 395.506 290.384 395.442 290.832H383.186C383.399 292.133 383.911 293.125 384.722 293.808C385.554 294.469 386.546 294.8 387.698 294.8C388.658 294.8 389.479 294.597 390.162 294.192C390.866 293.765 391.42 293.2 391.826 292.496L395.218 294.16C393.554 297.061 391.026 298.512 387.634 298.512ZM391.506 287.856C391.463 287.344 391.271 286.843 390.93 286.352C390.61 285.84 390.151 285.424 389.554 285.104C388.978 284.763 388.295 284.592 387.506 284.592C386.503 284.592 385.639 284.891 384.914 285.488C384.21 286.064 383.698 286.853 383.378 287.856H391.506ZM402.991 289.072C402.991 288.048 403.204 287.163 403.631 286.416C404.079 285.669 404.847 284.816 405.935 283.856C406.575 283.28 407.033 282.779 407.311 282.352C407.609 281.925 407.759 281.435 407.759 280.88C407.759 280.219 407.513 279.664 407.023 279.216C406.532 278.747 405.881 278.512 405.071 278.512C404.217 278.512 403.513 278.768 402.959 279.28C402.425 279.771 402.041 280.389 401.807 281.136L398.127 279.6C398.532 278.235 399.321 277.061 400.495 276.08C401.689 275.077 403.183 274.576 404.975 274.576C406.319 274.576 407.513 274.843 408.559 275.376C409.604 275.909 410.415 276.645 410.991 277.584C411.588 278.501 411.887 279.525 411.887 280.656C411.887 281.765 411.652 282.715 411.183 283.504C410.713 284.293 410.02 285.125 409.103 286C408.377 286.683 407.876 287.269 407.599 287.76C407.343 288.251 407.215 288.869 407.215 289.616V290.128H402.991V289.072ZM405.071 298.192C404.303 298.192 403.641 297.925 403.087 297.392C402.553 296.837 402.287 296.176 402.287 295.408C402.287 294.64 402.553 293.989 403.087 293.456C403.641 292.923 404.303 292.656 405.071 292.656C405.839 292.656 406.489 292.923 407.023 293.456C407.556 293.989 407.823 294.64 407.823 295.408C407.823 296.176 407.556 296.837 407.023 297.392C406.489 297.925 405.839 298.192 405.071 298.192Z" fill="#34A853"/>
<g filter="url(#filter2_d_755_5224)">
<rect x="232" y="120" width="241" height="79" rx="39.5" fill="white"/>
</g>
<path d="M262.936 140.632H275.032C277.208 140.632 279.192 141.096 280.984 142.024C282.776 142.92 284.184 144.2 285.208 145.864C286.232 147.496 286.744 149.368 286.744 151.48C286.744 153.592 286.232 155.48 285.208 157.144C284.184 158.808 282.776 160.104 280.984 161.032C279.192 161.928 277.208 162.376 275.032 162.376H269.416V175H262.936V140.632ZM275.224 156.232C276.824 156.232 278.072 155.768 278.968 154.84C279.896 153.912 280.36 152.792 280.36 151.48C280.36 150.168 279.896 149.064 278.968 148.168C278.072 147.24 276.824 146.776 275.224 146.776H269.416V156.232H275.224ZM297.919 175.768C295.327 175.768 293.199 175.016 291.535 173.512C289.871 171.976 289.039 169.976 289.039 167.512C289.039 165.88 289.471 164.44 290.335 163.192C291.199 161.944 292.383 160.984 293.887 160.312C295.391 159.64 297.055 159.304 298.879 159.304C301.407 159.304 303.567 159.672 305.359 160.408V159.352C305.359 158.008 304.847 156.92 303.823 156.088C302.831 155.256 301.487 154.84 299.791 154.84C298.639 154.84 297.519 155.112 296.431 155.656C295.375 156.168 294.495 156.856 293.791 157.72L289.759 154.552C290.943 153.016 292.431 151.832 294.223 151C296.015 150.168 297.967 149.752 300.079 149.752C303.823 149.752 306.671 150.616 308.623 152.344C310.575 154.072 311.551 156.6 311.551 159.928V175H305.359V172.504H304.975C304.239 173.464 303.263 174.248 302.047 174.856C300.863 175.464 299.487 175.768 297.919 175.768ZM299.407 170.872C301.231 170.872 302.671 170.296 303.727 169.144C304.815 167.96 305.359 166.584 305.359 165.016C303.727 164.248 302.015 163.864 300.223 163.864C296.959 163.864 295.327 165.08 295.327 167.512C295.327 168.504 295.679 169.32 296.383 169.96C297.087 170.568 298.095 170.872 299.407 170.872ZM317.338 150.52H323.242V153.784H323.626C324.266 152.6 325.242 151.656 326.554 150.952C327.866 150.216 329.274 149.848 330.778 149.848C331.866 149.848 332.634 149.944 333.082 150.136V156.28C332.282 155.96 331.29 155.8 330.106 155.8C328.122 155.8 326.538 156.44 325.354 157.72C324.202 159 323.626 160.744 323.626 162.952V175H317.338V150.52ZM348.73 175.384C347.514 175.384 346.394 175.208 345.37 174.856C344.346 174.472 343.514 173.96 342.874 173.32C341.37 171.88 340.618 169.832 340.618 167.176V155.896H336.346V150.52H340.618V143.608H346.906V150.52H352.906V155.896H346.906V166.024C346.906 167.272 347.178 168.168 347.722 168.712C348.17 169.224 348.938 169.48 350.026 169.48C350.634 169.48 351.13 169.4 351.514 169.24C351.93 169.08 352.458 168.808 353.098 168.424V174.568C351.722 175.112 350.266 175.384 348.73 175.384ZM361.905 147.832C360.785 147.832 359.825 147.432 359.025 146.632C358.225 145.832 357.825 144.872 357.825 143.752C357.825 142.632 358.225 141.688 359.025 140.92C359.825 140.12 360.785 139.72 361.905 139.72C363.025 139.72 363.969 140.12 364.737 140.92C365.537 141.688 365.937 142.632 365.937 143.752C365.937 144.872 365.537 145.832 364.737 146.632C363.969 147.432 363.025 147.832 361.905 147.832ZM358.737 150.52H365.025V175H358.737V150.52ZM382.857 175.768C380.425 175.768 378.233 175.208 376.281 174.088C374.329 172.968 372.793 171.432 371.673 169.48C370.585 167.496 370.041 165.272 370.041 162.808C370.041 160.472 370.585 158.312 371.673 156.328C372.761 154.312 374.265 152.712 376.185 151.528C378.105 150.344 380.249 149.752 382.617 149.752C385.145 149.752 387.321 150.296 389.145 151.384C390.969 152.472 392.345 153.96 393.273 155.848C394.233 157.736 394.713 159.832 394.713 162.136C394.713 162.872 394.665 163.576 394.569 164.248H376.185C376.505 166.2 377.273 167.688 378.489 168.712C379.737 169.704 381.225 170.2 382.953 170.2C384.393 170.2 385.625 169.896 386.649 169.288C387.705 168.648 388.537 167.8 389.145 166.744L394.233 169.24C391.737 173.592 387.945 175.768 382.857 175.768ZM388.665 159.784C388.601 159.016 388.313 158.264 387.801 157.528C387.321 156.76 386.633 156.136 385.737 155.656C384.873 155.144 383.849 154.888 382.665 154.888C381.161 154.888 379.865 155.336 378.777 156.232C377.721 157.096 376.953 158.28 376.473 159.784H388.665ZM409.103 175.768C406.127 175.768 403.711 175.16 401.855 173.944C400.031 172.728 398.751 171.144 398.015 169.192L403.631 166.744C404.143 167.896 404.863 168.776 405.791 169.384C406.751 169.96 407.855 170.248 409.103 170.248C410.255 170.248 411.215 170.072 411.983 169.72C412.751 169.336 413.135 168.728 413.135 167.896C413.135 167.096 412.783 166.504 412.079 166.12C411.375 165.704 410.319 165.336 408.911 165.016L406.031 164.392C404.047 163.912 402.399 163.048 401.087 161.8C399.775 160.52 399.119 158.936 399.119 157.048C399.119 155.64 399.535 154.376 400.367 153.256C401.231 152.136 402.383 151.272 403.823 150.664C405.295 150.056 406.911 149.752 408.671 149.752C413.727 149.752 417.103 151.528 418.799 155.08L413.423 157.432C412.463 155.704 410.927 154.84 408.815 154.84C407.727 154.84 406.863 155.048 406.223 155.464C405.583 155.848 405.263 156.344 405.263 156.952C405.263 158.104 406.351 158.968 408.527 159.544L412.127 160.408C414.559 161.016 416.383 161.944 417.599 163.192C418.847 164.44 419.471 165.976 419.471 167.8C419.471 169.368 419.007 170.76 418.079 171.976C417.183 173.16 415.935 174.088 414.335 174.76C412.767 175.432 411.023 175.768 409.103 175.768ZM430.361 161.608C430.361 160.072 430.681 158.744 431.321 157.624C431.993 156.504 433.145 155.224 434.777 153.784C435.737 152.92 436.425 152.168 436.841 151.528C437.289 150.888 437.513 150.152 437.513 149.32C437.513 148.328 437.145 147.496 436.409 146.824C435.673 146.12 434.697 145.768 433.481 145.768C432.201 145.768 431.145 146.152 430.313 146.92C429.513 147.656 428.937 148.584 428.585 149.704L423.065 147.4C423.673 145.352 424.857 143.592 426.617 142.12C428.409 140.616 430.649 139.864 433.337 139.864C435.353 139.864 437.145 140.264 438.713 141.064C440.281 141.864 441.497 142.968 442.361 144.376C443.257 145.752 443.705 147.288 443.705 148.984C443.705 150.648 443.353 152.072 442.649 153.256C441.945 154.44 440.905 155.688 439.529 157C438.441 158.024 437.689 158.904 437.273 159.64C436.889 160.376 436.697 161.304 436.697 162.424V163.192H430.361V161.608ZM433.481 175.288C432.329 175.288 431.337 174.888 430.505 174.088C429.705 173.256 429.305 172.264 429.305 171.112C429.305 169.96 429.705 168.984 430.505 168.184C431.337 167.384 432.329 166.984 433.481 166.984C434.633 166.984 435.609 167.384 436.409 168.184C437.209 168.984 437.609 169.96 437.609 171.112C437.609 172.264 437.209 173.256 436.409 174.088C435.609 174.888 434.633 175.288 433.481 175.288Z" fill="#4285F4"/>
<g filter="url(#filter3_d_755_5224)">
<rect x="44" y="87" width="175" height="40" rx="20" fill="white"/>
</g>
<path d="M58.34 99.68H61.34L63.3 107.72L63.54 109.22H63.7L64.02 107.72L66.54 99.68H69.2L71.66 107.72L71.98 109.18H72.14L72.38 107.72L74.32 99.68H77.32L73.62 114H70.72L68.28 105.36L67.96 103.82H67.8L67.48 105.36L64.92 114H62.14L58.34 99.68ZM78.9675 99.68H81.5875V103.3L81.4275 105.08H81.5875C81.8808 104.6 82.3075 104.213 82.8675 103.92C83.4275 103.627 84.0342 103.48 84.6875 103.48C85.9275 103.48 86.8742 103.853 87.5275 104.6C88.1942 105.333 88.5275 106.353 88.5275 107.66V114H85.9075V107.98C85.9075 107.327 85.7275 106.82 85.3675 106.46C85.0208 106.1 84.5542 105.92 83.9675 105.92C83.2742 105.92 82.7008 106.2 82.2475 106.76C81.8075 107.32 81.5875 108.007 81.5875 108.82V114H78.9675V99.68ZM95.8788 114.32C94.8254 114.32 93.8854 114.087 93.0588 113.62C92.2321 113.14 91.5854 112.493 91.1188 111.68C90.6654 110.853 90.4388 109.927 90.4388 108.9C90.4388 107.887 90.6654 106.967 91.1188 106.14C91.5854 105.313 92.2321 104.667 93.0588 104.2C93.8854 103.72 94.8254 103.48 95.8788 103.48C96.9188 103.48 97.8521 103.72 98.6788 104.2C99.5054 104.667 100.145 105.313 100.599 106.14C101.065 106.967 101.299 107.887 101.299 108.9C101.299 109.927 101.065 110.853 100.599 111.68C100.145 112.493 99.5054 113.14 98.6788 113.62C97.8521 114.087 96.9188 114.32 95.8788 114.32ZM95.8788 111.9C96.3854 111.9 96.8521 111.78 97.2788 111.54C97.7054 111.3 98.0454 110.953 98.2988 110.5C98.5521 110.047 98.6788 109.513 98.6788 108.9C98.6788 108.3 98.5521 107.773 98.2988 107.32C98.0454 106.867 97.7054 106.52 97.2788 106.28C96.8521 106.04 96.3854 105.92 95.8788 105.92C95.3721 105.92 94.9054 106.04 94.4788 106.28C94.0521 106.52 93.7054 106.867 93.4388 107.32C93.1854 107.773 93.0588 108.3 93.0588 108.9C93.0588 109.5 93.1854 110.033 93.4388 110.5C93.7054 110.953 94.0521 111.3 94.4788 111.54C94.9054 111.78 95.3721 111.9 95.8788 111.9ZM109.471 102.68C109.004 102.68 108.604 102.513 108.271 102.18C107.938 101.847 107.771 101.447 107.771 100.98C107.771 100.513 107.938 100.12 108.271 99.8C108.604 99.4667 109.004 99.3 109.471 99.3C109.938 99.3 110.331 99.4667 110.651 99.8C110.984 100.12 111.151 100.513 111.151 100.98C111.151 101.447 110.984 101.847 110.651 102.18C110.331 102.513 109.938 102.68 109.471 102.68ZM108.151 103.8H110.771V114H108.151V103.8ZM117.398 114.32C116.158 114.32 115.152 114.067 114.378 113.56C113.618 113.053 113.085 112.393 112.778 111.58L115.118 110.56C115.332 111.04 115.632 111.407 116.018 111.66C116.418 111.9 116.878 112.02 117.398 112.02C117.878 112.02 118.278 111.947 118.598 111.8C118.918 111.64 119.078 111.387 119.078 111.04C119.078 110.707 118.932 110.46 118.638 110.3C118.345 110.127 117.905 109.973 117.318 109.84L116.118 109.58C115.292 109.38 114.605 109.02 114.058 108.5C113.512 107.967 113.238 107.307 113.238 106.52C113.238 105.933 113.412 105.407 113.758 104.94C114.118 104.473 114.598 104.113 115.198 103.86C115.812 103.607 116.485 103.48 117.218 103.48C119.325 103.48 120.732 104.22 121.438 105.7L119.198 106.68C118.798 105.96 118.158 105.6 117.278 105.6C116.825 105.6 116.465 105.687 116.198 105.86C115.932 106.02 115.798 106.227 115.798 106.48C115.798 106.96 116.252 107.32 117.158 107.56L118.658 107.92C119.672 108.173 120.432 108.56 120.938 109.08C121.458 109.6 121.718 110.24 121.718 111C121.718 111.653 121.525 112.233 121.138 112.74C120.765 113.233 120.245 113.62 119.578 113.9C118.925 114.18 118.198 114.32 117.398 114.32ZM133.983 114.32C133.29 114.32 132.67 114.173 132.123 113.88C131.59 113.587 131.19 113.22 130.923 112.78H130.763V114H128.303V99.68H130.923V103.6L130.763 105.04H130.923C131.203 104.6 131.61 104.233 132.143 103.94C132.677 103.633 133.29 103.48 133.983 103.48C134.903 103.48 135.737 103.713 136.483 104.18C137.243 104.633 137.837 105.273 138.263 106.1C138.69 106.927 138.903 107.86 138.903 108.9C138.903 109.953 138.69 110.893 138.263 111.72C137.837 112.533 137.243 113.173 136.483 113.64C135.737 114.093 134.903 114.32 133.983 114.32ZM133.523 111.9C134.017 111.9 134.477 111.773 134.903 111.52C135.33 111.267 135.67 110.913 135.923 110.46C136.177 110.007 136.303 109.487 136.303 108.9C136.303 108.313 136.177 107.793 135.923 107.34C135.67 106.887 135.33 106.54 134.903 106.3C134.477 106.047 134.017 105.92 133.523 105.92C133.043 105.92 132.59 106.047 132.163 106.3C131.737 106.54 131.397 106.887 131.143 107.34C130.89 107.793 130.763 108.313 130.763 108.9C130.763 109.487 130.89 110.007 131.143 110.46C131.397 110.913 131.737 111.267 132.163 111.52C132.59 111.773 133.043 111.9 133.523 111.9ZM145.701 114.32C144.687 114.32 143.774 114.087 142.961 113.62C142.147 113.153 141.507 112.513 141.041 111.7C140.587 110.873 140.361 109.947 140.361 108.92C140.361 107.947 140.587 107.047 141.041 106.22C141.494 105.38 142.121 104.713 142.921 104.22C143.721 103.727 144.614 103.48 145.601 103.48C146.654 103.48 147.561 103.707 148.321 104.16C149.081 104.613 149.654 105.233 150.041 106.02C150.441 106.807 150.641 107.68 150.641 108.64C150.641 108.947 150.621 109.24 150.581 109.52H142.921C143.054 110.333 143.374 110.953 143.881 111.38C144.401 111.793 145.021 112 145.741 112C146.341 112 146.854 111.873 147.281 111.62C147.721 111.353 148.067 111 148.321 110.56L150.441 111.6C149.401 113.413 147.821 114.32 145.701 114.32ZM148.121 107.66C148.094 107.34 147.974 107.027 147.761 106.72C147.561 106.4 147.274 106.14 146.901 105.94C146.541 105.727 146.114 105.62 145.621 105.62C144.994 105.62 144.454 105.807 144.001 106.18C143.561 106.54 143.241 107.033 143.041 107.66H148.121ZM152.659 99.68H155.279V103.3L155.119 105.08H155.279C155.572 104.6 155.999 104.213 156.559 103.92C157.119 103.627 157.726 103.48 158.379 103.48C159.619 103.48 160.566 103.853 161.219 104.6C161.886 105.333 162.219 106.353 162.219 107.66V114H159.599V107.98C159.599 107.327 159.419 106.82 159.059 106.46C158.712 106.1 158.246 105.92 157.659 105.92C156.966 105.92 156.392 106.2 155.939 106.76C155.499 107.32 155.279 108.007 155.279 108.82V114H152.659V99.68ZM166.17 102.68C165.703 102.68 165.303 102.513 164.97 102.18C164.637 101.847 164.47 101.447 164.47 100.98C164.47 100.513 164.637 100.12 164.97 99.8C165.303 99.4667 165.703 99.3 166.17 99.3C166.637 99.3 167.03 99.4667 167.35 99.8C167.683 100.12 167.85 100.513 167.85 100.98C167.85 101.447 167.683 101.847 167.35 102.18C167.03 102.513 166.637 102.68 166.17 102.68ZM164.85 103.8H167.47V114H164.85V103.8ZM170.218 103.8H172.678V105.08H172.838C173.144 104.587 173.578 104.2 174.138 103.92C174.698 103.627 175.304 103.48 175.958 103.48C177.184 103.48 178.118 103.853 178.758 104.6C179.398 105.347 179.718 106.367 179.718 107.66V114H177.098V107.98C177.098 107.327 176.931 106.82 176.598 106.46C176.264 106.1 175.798 105.92 175.198 105.92C174.491 105.92 173.918 106.193 173.478 106.74C173.051 107.287 172.838 107.973 172.838 108.8V114H170.218V103.8ZM186.57 114.32C185.65 114.32 184.81 114.093 184.05 113.64C183.303 113.173 182.71 112.533 182.27 111.72C181.843 110.893 181.63 109.953 181.63 108.9C181.63 107.86 181.843 106.927 182.27 106.1C182.71 105.273 183.303 104.633 184.05 104.18C184.81 103.713 185.65 103.48 186.57 103.48C187.263 103.48 187.877 103.633 188.41 103.94C188.943 104.233 189.35 104.6 189.63 105.04H189.79L189.63 103.6V99.68H192.23V114H189.79V112.78H189.63C189.363 113.22 188.957 113.587 188.41 113.88C187.877 114.173 187.263 114.32 186.57 114.32ZM187.01 111.9C187.503 111.9 187.963 111.773 188.39 111.52C188.817 111.267 189.157 110.913 189.41 110.46C189.663 110.007 189.79 109.487 189.79 108.9C189.79 108.313 189.663 107.793 189.41 107.34C189.157 106.887 188.817 106.54 188.39 106.3C187.963 106.047 187.503 105.92 187.01 105.92C186.53 105.92 186.077 106.047 185.65 106.3C185.223 106.54 184.883 106.887 184.63 107.34C184.377 107.793 184.25 108.313 184.25 108.9C184.25 109.487 184.377 110.007 184.63 110.46C184.883 110.913 185.223 111.267 185.65 111.52C186.077 111.773 186.53 111.9 187.01 111.9ZM197.447 108.42C197.447 107.78 197.581 107.227 197.847 106.76C198.127 106.293 198.607 105.76 199.287 105.16C199.687 104.8 199.974 104.487 200.147 104.22C200.334 103.953 200.427 103.647 200.427 103.3C200.427 102.887 200.274 102.54 199.967 102.26C199.661 101.967 199.254 101.82 198.747 101.82C198.214 101.82 197.774 101.98 197.427 102.3C197.094 102.607 196.854 102.993 196.707 103.46L194.407 102.5C194.661 101.647 195.154 100.913 195.887 100.3C196.634 99.6733 197.567 99.36 198.687 99.36C199.527 99.36 200.274 99.5267 200.927 99.86C201.581 100.193 202.087 100.653 202.447 101.24C202.821 101.813 203.007 102.453 203.007 103.16C203.007 103.853 202.861 104.447 202.567 104.94C202.274 105.433 201.841 105.953 201.267 106.5C200.814 106.927 200.501 107.293 200.327 107.6C200.167 107.907 200.087 108.293 200.087 108.76V109.08H197.447V108.42ZM198.747 114.12C198.267 114.12 197.854 113.953 197.507 113.62C197.174 113.273 197.007 112.86 197.007 112.38C197.007 111.9 197.174 111.493 197.507 111.16C197.854 110.827 198.267 110.66 198.747 110.66C199.227 110.66 199.634 110.827 199.967 111.16C200.301 111.493 200.467 111.9 200.467 112.38C200.467 112.86 200.301 113.273 199.967 113.62C199.634 113.953 199.227 114.12 198.747 114.12Z" fill="#FBBC04"/>
<g filter="url(#filter4_d_755_5224)">
<rect x="53" y="190" width="139" height="36" rx="18" fill="white"/>
</g>
<path d="M69.64 199.68H75.24C76.04 199.68 76.7733 199.847 77.44 200.18C78.12 200.513 78.6533 200.967 79.04 201.54C79.4267 202.113 79.62 202.74 79.62 203.42C79.62 204.14 79.44 204.767 79.08 205.3C78.7333 205.82 78.2733 206.22 77.7 206.5V206.66C78.4467 206.927 79.04 207.353 79.48 207.94C79.92 208.513 80.14 209.207 80.14 210.02C80.14 210.807 79.9267 211.507 79.5 212.12C79.0867 212.72 78.52 213.187 77.8 213.52C77.0933 213.84 76.3067 214 75.44 214H69.64V199.68ZM75.04 205.52C75.6267 205.52 76.0933 205.36 76.44 205.04C76.8 204.707 76.98 204.293 76.98 203.8C76.98 203.32 76.8067 202.92 76.46 202.6C76.1267 202.267 75.68 202.1 75.12 202.1H72.34V205.52H75.04ZM75.34 211.54C75.9933 211.54 76.5 211.373 76.86 211.04C77.2333 210.693 77.42 210.247 77.42 209.7C77.42 209.153 77.2333 208.707 76.86 208.36C76.4867 208.013 75.9533 207.84 75.26 207.84H72.34V211.54H75.34ZM87.1092 214.32C86.0559 214.32 85.1159 214.087 84.2892 213.62C83.4626 213.14 82.8159 212.493 82.3492 211.68C81.8959 210.853 81.6692 209.927 81.6692 208.9C81.6692 207.887 81.8959 206.967 82.3492 206.14C82.8159 205.313 83.4626 204.667 84.2892 204.2C85.1159 203.72 86.0559 203.48 87.1092 203.48C88.1492 203.48 89.0826 203.72 89.9092 204.2C90.7359 204.667 91.3759 205.313 91.8292 206.14C92.2959 206.967 92.5292 207.887 92.5292 208.9C92.5292 209.927 92.2959 210.853 91.8292 211.68C91.3759 212.493 90.7359 213.14 89.9092 213.62C89.0826 214.087 88.1492 214.32 87.1092 214.32ZM87.1092 211.9C87.6159 211.9 88.0826 211.78 88.5092 211.54C88.9359 211.3 89.2759 210.953 89.5292 210.5C89.7826 210.047 89.9092 209.513 89.9092 208.9C89.9092 208.3 89.7826 207.773 89.5292 207.32C89.2759 206.867 88.9359 206.52 88.5092 206.28C88.0826 206.04 87.6159 205.92 87.1092 205.92C86.6026 205.92 86.1359 206.04 85.7092 206.28C85.2826 206.52 84.9359 206.867 84.6692 207.32C84.4159 207.773 84.2892 208.3 84.2892 208.9C84.2892 209.5 84.4159 210.033 84.6692 210.5C84.9359 210.953 85.2826 211.3 85.7092 211.54C86.1359 211.78 86.6026 211.9 87.1092 211.9ZM99.4139 214.32C98.3606 214.32 97.4206 214.087 96.5939 213.62C95.7672 213.14 95.1206 212.493 94.6539 211.68C94.2006 210.853 93.9739 209.927 93.9739 208.9C93.9739 207.887 94.2006 206.967 94.6539 206.14C95.1206 205.313 95.7672 204.667 96.5939 204.2C97.4206 203.72 98.3606 203.48 99.4139 203.48C100.454 203.48 101.387 203.72 102.214 204.2C103.041 204.667 103.681 205.313 104.134 206.14C104.601 206.967 104.834 207.887 104.834 208.9C104.834 209.927 104.601 210.853 104.134 211.68C103.681 212.493 103.041 213.14 102.214 213.62C101.387 214.087 100.454 214.32 99.4139 214.32ZM99.4139 211.9C99.9206 211.9 100.387 211.78 100.814 211.54C101.241 211.3 101.581 210.953 101.834 210.5C102.087 210.047 102.214 209.513 102.214 208.9C102.214 208.3 102.087 207.773 101.834 207.32C101.581 206.867 101.241 206.52 100.814 206.28C100.387 206.04 99.9206 205.92 99.4139 205.92C98.9072 205.92 98.4406 206.04 98.0139 206.28C97.5872 206.52 97.2406 206.867 96.9739 207.32C96.7206 207.773 96.5939 208.3 96.5939 208.9C96.5939 209.5 96.7206 210.033 96.9739 210.5C97.2406 210.953 97.5872 211.3 98.0139 211.54C98.4406 211.78 98.9072 211.9 99.4139 211.9ZM110.986 214.16C110.479 214.16 110.012 214.087 109.586 213.94C109.159 213.78 108.812 213.567 108.546 213.3C107.919 212.7 107.606 211.847 107.606 210.74V206.04H105.826V203.8H107.606V200.92H110.226V203.8H112.726V206.04H110.226V210.26C110.226 210.78 110.339 211.153 110.566 211.38C110.752 211.593 111.072 211.7 111.526 211.7C111.779 211.7 111.986 211.667 112.146 211.6C112.319 211.533 112.539 211.42 112.806 211.26V213.82C112.232 214.047 111.626 214.16 110.986 214.16ZM119.353 214.32C118.327 214.32 117.407 214.093 116.593 213.64C115.78 213.173 115.14 212.527 114.673 211.7C114.22 210.873 113.993 209.94 113.993 208.9C113.993 207.86 114.22 206.933 114.673 206.12C115.14 205.293 115.78 204.647 116.593 204.18C117.407 203.713 118.327 203.48 119.353 203.48C120.487 203.48 121.46 203.727 122.273 204.22C123.087 204.7 123.673 205.387 124.033 206.28L121.633 207.28C121.207 206.373 120.447 205.92 119.353 205.92C118.553 205.92 117.893 206.193 117.373 206.74C116.867 207.287 116.613 208.007 116.613 208.9C116.613 209.807 116.867 210.533 117.373 211.08C117.893 211.627 118.553 211.9 119.353 211.9C120.46 211.9 121.26 211.42 121.753 210.46L124.133 211.5C123.693 212.393 123.067 213.087 122.253 213.58C121.44 214.073 120.473 214.32 119.353 214.32ZM129.041 214.32C127.961 214.32 127.074 214.007 126.381 213.38C125.687 212.74 125.341 211.907 125.341 210.88C125.341 210.2 125.521 209.6 125.881 209.08C126.241 208.56 126.734 208.16 127.361 207.88C127.987 207.6 128.681 207.46 129.441 207.46C130.494 207.46 131.394 207.613 132.141 207.92V207.48C132.141 206.92 131.927 206.467 131.501 206.12C131.087 205.773 130.527 205.6 129.821 205.6C129.341 205.6 128.874 205.713 128.421 205.94C127.981 206.153 127.614 206.44 127.321 206.8L125.641 205.48C126.134 204.84 126.754 204.347 127.501 204C128.247 203.653 129.061 203.48 129.941 203.48C131.501 203.48 132.687 203.84 133.501 204.56C134.314 205.28 134.721 206.333 134.721 207.72V214H132.141V212.96H131.981C131.674 213.36 131.267 213.687 130.761 213.94C130.267 214.193 129.694 214.32 129.041 214.32ZM129.661 212.28C130.421 212.28 131.021 212.04 131.461 211.56C131.914 211.067 132.141 210.493 132.141 209.84C131.461 209.52 130.747 209.36 130.001 209.36C128.641 209.36 127.961 209.867 127.961 210.88C127.961 211.293 128.107 211.633 128.401 211.9C128.694 212.153 129.114 212.28 129.661 212.28ZM137.132 203.8H139.592V205.08H139.752C140.072 204.587 140.498 204.2 141.032 203.92C141.578 203.627 142.185 203.48 142.852 203.48C143.572 203.48 144.198 203.653 144.732 204C145.265 204.333 145.645 204.76 145.872 205.28C146.205 204.747 146.658 204.313 147.232 203.98C147.818 203.647 148.505 203.48 149.292 203.48C150.452 203.48 151.332 203.84 151.932 204.56C152.545 205.267 152.852 206.227 152.852 207.44V214H150.252V207.92C150.252 207.28 150.098 206.787 149.792 206.44C149.498 206.093 149.085 205.92 148.552 205.92C147.872 205.92 147.325 206.193 146.912 206.74C146.512 207.273 146.312 207.98 146.312 208.86V214H143.692V207.92C143.692 207.28 143.532 206.787 143.212 206.44C142.905 206.093 142.465 205.92 141.892 205.92C141.252 205.92 140.732 206.193 140.332 206.74C139.945 207.273 139.752 207.98 139.752 208.86V214H137.132V203.8ZM155.274 203.8H157.734V205.04H157.894C158.174 204.6 158.581 204.233 159.114 203.94C159.648 203.633 160.261 203.48 160.954 203.48C161.874 203.48 162.708 203.713 163.454 204.18C164.214 204.633 164.808 205.273 165.234 206.1C165.661 206.927 165.874 207.86 165.874 208.9C165.874 209.953 165.661 210.893 165.234 211.72C164.808 212.533 164.214 213.173 163.454 213.64C162.708 214.093 161.874 214.32 160.954 214.32C160.261 214.32 159.641 214.173 159.094 213.88C158.561 213.587 158.161 213.22 157.894 212.78H157.734L157.894 214.22V218.32H155.274V203.8ZM160.494 211.9C160.988 211.9 161.448 211.773 161.874 211.52C162.301 211.267 162.641 210.913 162.894 210.46C163.148 210.007 163.274 209.487 163.274 208.9C163.274 208.313 163.148 207.793 162.894 207.34C162.641 206.887 162.301 206.54 161.874 206.3C161.448 206.047 160.988 205.92 160.494 205.92C160.014 205.92 159.561 206.047 159.134 206.3C158.708 206.54 158.368 206.887 158.114 207.34C157.861 207.793 157.734 208.313 157.734 208.9C157.734 209.487 157.861 210.007 158.114 210.46C158.368 210.913 158.708 211.267 159.134 211.52C159.561 211.773 160.014 211.9 160.494 211.9ZM171.676 214.32C170.436 214.32 169.429 214.067 168.656 213.56C167.896 213.053 167.362 212.393 167.056 211.58L169.396 210.56C169.609 211.04 169.909 211.407 170.296 211.66C170.696 211.9 171.156 212.02 171.676 212.02C172.156 212.02 172.556 211.947 172.876 211.8C173.196 211.64 173.356 211.387 173.356 211.04C173.356 210.707 173.209 210.46 172.916 210.3C172.622 210.127 172.182 209.973 171.596 209.84L170.396 209.58C169.569 209.38 168.882 209.02 168.336 208.5C167.789 207.967 167.516 207.307 167.516 206.52C167.516 205.933 167.689 205.407 168.036 204.94C168.396 204.473 168.876 204.113 169.476 203.86C170.089 203.607 170.762 203.48 171.496 203.48C173.602 203.48 175.009 204.22 175.716 205.7L173.476 206.68C173.076 205.96 172.436 205.6 171.556 205.6C171.102 205.6 170.742 205.687 170.476 205.86C170.209 206.02 170.076 206.227 170.076 206.48C170.076 206.96 170.529 207.32 171.436 207.56L172.936 207.92C173.949 208.173 174.709 208.56 175.216 209.08C175.736 209.6 175.996 210.24 175.996 211C175.996 211.653 175.802 212.233 175.416 212.74C175.042 213.233 174.522 213.62 173.856 213.9C173.202 214.18 172.476 214.32 171.676 214.32Z" fill="#4285F4"/>
<g filter="url(#filter5_d_755_5224)">
<rect x="98" y="50" width="87" height="40" rx="20" fill="white"/>
</g>
<path d="M115.64 62.68H118.34V68.4H124.36V62.68H127.06V77H124.36V70.96H118.34V77H115.64V62.68ZM134.867 77.32C133.814 77.32 132.874 77.0867 132.047 76.62C131.22 76.14 130.574 75.4933 130.107 74.68C129.654 73.8533 129.427 72.9267 129.427 71.9C129.427 70.8867 129.654 69.9667 130.107 69.14C130.574 68.3133 131.22 67.6667 132.047 67.2C132.874 66.72 133.814 66.48 134.867 66.48C135.907 66.48 136.84 66.72 137.667 67.2C138.494 67.6667 139.134 68.3133 139.587 69.14C140.054 69.9667 140.287 70.8867 140.287 71.9C140.287 72.9267 140.054 73.8533 139.587 74.68C139.134 75.4933 138.494 76.14 137.667 76.62C136.84 77.0867 135.907 77.32 134.867 77.32ZM134.867 74.9C135.374 74.9 135.84 74.78 136.267 74.54C136.694 74.3 137.034 73.9533 137.287 73.5C137.54 73.0467 137.667 72.5133 137.667 71.9C137.667 71.3 137.54 70.7733 137.287 70.32C137.034 69.8667 136.694 69.52 136.267 69.28C135.84 69.04 135.374 68.92 134.867 68.92C134.36 68.92 133.894 69.04 133.467 69.28C133.04 69.52 132.694 69.8667 132.427 70.32C132.174 70.7733 132.047 71.3 132.047 71.9C132.047 72.5 132.174 73.0333 132.427 73.5C132.694 73.9533 133.04 74.3 133.467 74.54C133.894 74.78 134.36 74.9 134.867 74.9ZM140.956 66.8H143.896L145.656 73.42H145.796L147.836 66.8H150.516L152.556 73.42H152.696L154.456 66.8H157.356L154.096 77H151.276L149.196 70.4H149.056L146.996 77H144.196L140.956 66.8ZM161.397 71.42C161.397 70.78 161.53 70.2267 161.797 69.76C162.077 69.2933 162.557 68.76 163.237 68.16C163.637 67.8 163.923 67.4867 164.097 67.22C164.283 66.9533 164.377 66.6467 164.377 66.3C164.377 65.8867 164.223 65.54 163.917 65.26C163.61 64.9667 163.203 64.82 162.697 64.82C162.163 64.82 161.723 64.98 161.377 65.3C161.043 65.6067 160.803 65.9933 160.657 66.46L158.357 65.5C158.61 64.6467 159.103 63.9133 159.837 63.3C160.583 62.6733 161.517 62.36 162.637 62.36C163.477 62.36 164.223 62.5267 164.877 62.86C165.53 63.1933 166.037 63.6533 166.397 64.24C166.77 64.8133 166.957 65.4533 166.957 66.16C166.957 66.8533 166.81 67.4467 166.517 67.94C166.223 68.4333 165.79 68.9533 165.217 69.5C164.763 69.9267 164.45 70.2933 164.277 70.6C164.117 70.9067 164.037 71.2933 164.037 71.76V72.08H161.397V71.42ZM162.697 77.12C162.217 77.12 161.803 76.9533 161.457 76.62C161.123 76.2733 160.957 75.86 160.957 75.38C160.957 74.9 161.123 74.4933 161.457 74.16C161.803 73.8267 162.217 73.66 162.697 73.66C163.177 73.66 163.583 73.8267 163.917 74.16C164.25 74.4933 164.417 74.9 164.417 75.38C164.417 75.86 164.25 76.2733 163.917 76.62C163.583 76.9533 163.177 77.12 162.697 77.12Z" fill="#4285F4"/>
<g filter="url(#filter6_d_755_5224)">
<rect x="107" y="245" width="211" height="91" rx="45.5" fill="white"/>
</g>
<path d="M156.896 313.024C153.269 313.024 150.091 312.043 147.36 310.08C144.672 308.075 142.795 305.365 141.728 301.952L149.664 298.688C150.219 300.693 151.115 302.229 152.352 303.296C153.589 304.32 155.104 304.832 156.896 304.832C158.859 304.832 160.395 304.192 161.504 302.912C162.656 301.632 163.232 299.84 163.232 297.536V266.176H171.872V297.472C171.872 300.8 171.211 303.637 169.888 305.984C168.565 308.288 166.773 310.037 164.512 311.232C162.251 312.427 159.712 313.024 156.896 313.024ZM195.462 313.024C192.091 313.024 189.083 312.277 186.438 310.784C183.793 309.248 181.723 307.179 180.23 304.576C178.779 301.931 178.054 298.965 178.054 295.68C178.054 292.437 178.779 289.493 180.23 286.848C181.723 284.203 183.793 282.133 186.438 280.64C189.083 279.104 192.091 278.336 195.462 278.336C198.79 278.336 201.777 279.104 204.422 280.64C207.067 282.133 209.115 284.203 210.566 286.848C212.059 289.493 212.806 292.437 212.806 295.68C212.806 298.965 212.059 301.931 210.566 304.576C209.115 307.179 207.067 309.248 204.422 310.784C201.777 312.277 198.79 313.024 195.462 313.024ZM195.462 305.28C197.083 305.28 198.577 304.896 199.942 304.128C201.307 303.36 202.395 302.251 203.206 300.8C204.017 299.349 204.422 297.643 204.422 295.68C204.422 293.76 204.017 292.075 203.206 290.624C202.395 289.173 201.307 288.064 199.942 287.296C198.577 286.528 197.083 286.144 195.462 286.144C193.841 286.144 192.347 286.528 190.982 287.296C189.617 288.064 188.507 289.173 187.654 290.624C186.843 292.075 186.438 293.76 186.438 295.68C186.438 297.6 186.843 299.307 187.654 300.8C188.507 302.251 189.617 303.36 190.982 304.128C192.347 304.896 193.841 305.28 195.462 305.28ZM237.085 313.024C234.866 313.024 232.882 312.555 231.133 311.616C229.426 310.677 228.146 309.504 227.293 308.096H226.781V312H218.909V266.176H227.293V278.72L226.781 283.328H227.293C228.189 281.92 229.49 280.747 231.197 279.808C232.903 278.827 234.866 278.336 237.085 278.336C240.029 278.336 242.695 279.083 245.085 280.576C247.517 282.027 249.415 284.075 250.781 286.72C252.146 289.365 252.829 292.352 252.829 295.68C252.829 299.051 252.146 302.059 250.781 304.704C249.415 307.307 247.517 309.355 245.085 310.848C242.695 312.299 240.029 313.024 237.085 313.024ZM235.613 305.28C237.191 305.28 238.663 304.875 240.029 304.064C241.394 303.253 242.482 302.123 243.293 300.672C244.103 299.221 244.509 297.557 244.509 295.68C244.509 293.803 244.103 292.139 243.293 290.688C242.482 289.237 241.394 288.128 240.029 287.36C238.663 286.549 237.191 286.144 235.613 286.144C234.077 286.144 232.626 286.549 231.26 287.36C229.895 288.128 228.807 289.237 227.997 290.688C227.186 292.139 226.781 293.803 226.781 295.68C226.781 297.557 227.186 299.221 227.997 300.672C228.807 302.123 229.895 303.253 231.26 304.064C232.626 304.875 234.077 305.28 235.613 305.28ZM262.982 294.144C262.982 292.096 263.408 290.325 264.262 288.832C265.158 287.339 266.694 285.632 268.87 283.712C270.15 282.56 271.067 281.557 271.622 280.704C272.219 279.851 272.518 278.869 272.518 277.76C272.518 276.437 272.027 275.328 271.046 274.432C270.064 273.493 268.763 273.024 267.142 273.024C265.435 273.024 264.027 273.536 262.918 274.56C261.851 275.541 261.083 276.779 260.614 278.272L253.254 275.2C254.064 272.469 255.643 270.123 257.99 268.16C260.379 266.155 263.366 265.152 266.95 265.152C269.638 265.152 272.027 265.685 274.118 266.752C276.208 267.819 277.83 269.291 278.982 271.168C280.176 273.003 280.774 275.051 280.774 277.312C280.774 279.531 280.304 281.429 279.366 283.008C278.427 284.587 277.04 286.251 275.206 288C273.755 289.365 272.752 290.539 272.198 291.52C271.686 292.501 271.43 293.739 271.43 295.232V296.256H262.982V294.144ZM267.142 312.384C265.606 312.384 264.283 311.851 263.174 310.784C262.107 309.675 261.574 308.352 261.574 306.816C261.574 305.28 262.107 303.979 263.174 302.912C264.283 301.845 265.606 301.312 267.142 301.312C268.678 301.312 269.979 301.845 271.046 302.912C272.112 303.979 272.646 305.28 272.646 306.816C272.646 308.352 272.112 309.675 271.046 310.784C269.979 311.851 268.678 312.384 267.142 312.384Z" fill="#4285F4"/>
<g filter="url(#filter7_d_755_5224)">
<rect x="140" y="195" width="315" height="59" rx="29.5" fill="white"/>
</g>
<path d="M170.612 211.224H176.012L179.54 225.696L179.972 228.396H180.26L180.836 225.696L185.372 211.224H190.16L194.588 225.696L195.164 228.324H195.452L195.884 225.696L199.376 211.224H204.776L198.116 237H192.896L188.504 221.448L187.928 218.676H187.64L187.064 221.448L182.456 237H177.452L170.612 211.224ZM207.742 211.224H212.458V217.74L212.17 220.944H212.458C212.986 220.08 213.754 219.384 214.762 218.856C215.77 218.328 216.862 218.064 218.038 218.064C220.27 218.064 221.974 218.736 223.15 220.08C224.35 221.4 224.95 223.236 224.95 225.588V237H220.234V226.164C220.234 224.988 219.91 224.076 219.262 223.428C218.638 222.78 217.798 222.456 216.742 222.456C215.494 222.456 214.462 222.96 213.646 223.968C212.854 224.976 212.458 226.212 212.458 227.676V237H207.742V211.224ZM238.002 237.576C236.178 237.576 234.534 237.156 233.07 236.316C231.606 235.476 230.454 234.324 229.614 232.86C228.798 231.372 228.39 229.704 228.39 227.856C228.39 226.104 228.798 224.484 229.614 222.996C230.43 221.484 231.558 220.284 232.998 219.396C234.438 218.508 236.046 218.064 237.822 218.064C239.718 218.064 241.35 218.472 242.718 219.288C244.086 220.104 245.118 221.22 245.814 222.636C246.534 224.052 246.894 225.624 246.894 227.352C246.894 227.904 246.858 228.432 246.786 228.936H232.998C233.238 230.4 233.814 231.516 234.726 232.284C235.662 233.028 236.778 233.4 238.074 233.4C239.154 233.4 240.078 233.172 240.846 232.716C241.638 232.236 242.262 231.6 242.718 230.808L246.534 232.68C244.662 235.944 241.818 237.576 238.002 237.576ZM242.358 225.588C242.31 225.012 242.094 224.448 241.71 223.896C241.35 223.32 240.834 222.852 240.162 222.492C239.514 222.108 238.746 221.916 237.858 221.916C236.73 221.916 235.758 222.252 234.942 222.924C234.15 223.572 233.574 224.46 233.214 225.588H242.358ZM250.527 218.64H254.955V220.944H255.243C255.795 220.056 256.575 219.36 257.583 218.856C258.591 218.328 259.683 218.064 260.859 218.064C263.067 218.064 264.747 218.736 265.899 220.08C267.051 221.424 267.627 223.26 267.627 225.588V237H262.911V226.164C262.911 224.988 262.611 224.076 262.011 223.428C261.411 222.78 260.571 222.456 259.491 222.456C258.219 222.456 257.187 222.948 256.395 223.932C255.627 224.916 255.243 226.152 255.243 227.64V237H250.527V218.64ZM287.499 237.576C285.267 237.576 283.455 237.12 282.063 236.208C280.695 235.296 279.735 234.108 279.183 232.644L283.395 230.808C283.779 231.672 284.319 232.332 285.015 232.788C285.735 233.22 286.563 233.436 287.499 233.436C288.363 233.436 289.083 233.304 289.659 233.04C290.235 232.752 290.523 232.296 290.523 231.672C290.523 231.072 290.259 230.628 289.731 230.34C289.203 230.028 288.411 229.752 287.355 229.512L285.195 229.044C283.707 228.684 282.471 228.036 281.487 227.1C280.503 226.14 280.011 224.952 280.011 223.536C280.011 222.48 280.323 221.532 280.947 220.692C281.595 219.852 282.459 219.204 283.539 218.748C284.643 218.292 285.855 218.064 287.175 218.064C290.967 218.064 293.499 219.396 294.771 222.06L290.739 223.824C290.019 222.528 288.867 221.88 287.283 221.88C286.467 221.88 285.819 222.036 285.339 222.348C284.859 222.636 284.619 223.008 284.619 223.464C284.619 224.328 285.435 224.976 287.067 225.408L289.767 226.056C291.591 226.512 292.959 227.208 293.871 228.144C294.807 229.08 295.275 230.232 295.275 231.6C295.275 232.776 294.927 233.82 294.231 234.732C293.559 235.62 292.623 236.316 291.423 236.82C290.247 237.324 288.939 237.576 287.499 237.576ZM306.507 237.288C305.595 237.288 304.755 237.156 303.987 236.892C303.219 236.604 302.595 236.22 302.115 235.74C300.987 234.66 300.423 233.124 300.423 231.132V222.672H297.219V218.64H300.423V213.456H305.139V218.64H309.639V222.672H305.139V230.268C305.139 231.204 305.343 231.876 305.751 232.284C306.087 232.668 306.663 232.86 307.479 232.86C307.935 232.86 308.307 232.8 308.595 232.68C308.907 232.56 309.303 232.356 309.783 232.068V236.676C308.751 237.084 307.659 237.288 306.507 237.288ZM318.826 237.576C316.882 237.576 315.286 237.012 314.038 235.884C312.79 234.732 312.166 233.232 312.166 231.384C312.166 230.16 312.49 229.08 313.138 228.144C313.786 227.208 314.674 226.488 315.802 225.984C316.93 225.48 318.178 225.228 319.546 225.228C321.442 225.228 323.062 225.504 324.406 226.056V225.264C324.406 224.256 324.022 223.44 323.254 222.816C322.51 222.192 321.502 221.88 320.23 221.88C319.366 221.88 318.526 222.084 317.71 222.492C316.918 222.876 316.258 223.392 315.73 224.04L312.706 221.664C313.594 220.512 314.71 219.624 316.054 219C317.398 218.376 318.862 218.064 320.446 218.064C323.254 218.064 325.39 218.712 326.854 220.008C328.318 221.304 329.05 223.2 329.05 225.696V237H324.406V235.128H324.118C323.566 235.848 322.834 236.436 321.922 236.892C321.034 237.348 320.002 237.576 318.826 237.576ZM319.942 233.904C321.31 233.904 322.39 233.472 323.182 232.608C323.998 231.72 324.406 230.688 324.406 229.512C323.182 228.936 321.898 228.648 320.554 228.648C318.106 228.648 316.882 229.56 316.882 231.384C316.882 232.128 317.146 232.74 317.674 233.22C318.202 233.676 318.958 233.904 319.942 233.904ZM333.39 218.64H337.818V221.088H338.106C338.586 220.2 339.318 219.492 340.302 218.964C341.286 218.412 342.342 218.136 343.47 218.136C344.286 218.136 344.862 218.208 345.198 218.352V222.96C344.598 222.72 343.854 222.6 342.966 222.6C341.478 222.6 340.29 223.08 339.402 224.04C338.538 225 338.106 226.308 338.106 227.964V237H333.39V218.64ZM356.934 237.288C356.022 237.288 355.182 237.156 354.414 236.892C353.646 236.604 353.022 236.22 352.542 235.74C351.414 234.66 350.85 233.124 350.85 231.132V222.672H347.646V218.64H350.85V213.456H355.566V218.64H360.066V222.672H355.566V230.268C355.566 231.204 355.77 231.876 356.178 232.284C356.514 232.668 357.09 232.86 357.906 232.86C358.362 232.86 358.734 232.8 359.022 232.68C359.334 232.56 359.73 232.356 360.21 232.068V236.676C359.178 237.084 358.086 237.288 356.934 237.288ZM371.947 237.576C370.123 237.576 368.479 237.156 367.015 236.316C365.551 235.476 364.399 234.324 363.559 232.86C362.743 231.372 362.335 229.704 362.335 227.856C362.335 226.104 362.743 224.484 363.559 222.996C364.375 221.484 365.503 220.284 366.943 219.396C368.383 218.508 369.991 218.064 371.767 218.064C373.663 218.064 375.295 218.472 376.663 219.288C378.031 220.104 379.063 221.22 379.759 222.636C380.479 224.052 380.839 225.624 380.839 227.352C380.839 227.904 380.803 228.432 380.731 228.936H366.943C367.183 230.4 367.759 231.516 368.671 232.284C369.607 233.028 370.723 233.4 372.019 233.4C373.099 233.4 374.023 233.172 374.791 232.716C375.583 232.236 376.207 231.6 376.663 230.808L380.479 232.68C378.607 235.944 375.763 237.576 371.947 237.576ZM376.303 225.588C376.255 225.012 376.039 224.448 375.655 223.896C375.295 223.32 374.779 222.852 374.107 222.492C373.459 222.108 372.691 221.916 371.803 221.916C370.675 221.916 369.703 222.252 368.887 222.924C368.095 223.572 367.519 224.46 367.159 225.588H376.303ZM392.532 237.576C390.876 237.576 389.364 237.168 387.996 236.352C386.652 235.512 385.584 234.36 384.792 232.896C384.024 231.408 383.64 229.716 383.64 227.82C383.64 225.948 384.024 224.268 384.792 222.78C385.584 221.292 386.652 220.14 387.996 219.324C389.364 218.484 390.876 218.064 392.532 218.064C393.78 218.064 394.884 218.34 395.844 218.892C396.804 219.42 397.536 220.08 398.04 220.872H398.328L398.04 218.28V211.224H402.72V237H398.328V234.804H398.04C397.56 235.596 396.828 236.256 395.844 236.784C394.884 237.312 393.78 237.576 392.532 237.576ZM393.324 233.22C394.212 233.22 395.04 232.992 395.808 232.536C396.576 232.08 397.188 231.444 397.644 230.628C398.1 229.812 398.328 228.876 398.328 227.82C398.328 226.764 398.1 225.828 397.644 225.012C397.188 224.196 396.576 223.572 395.808 223.14C395.04 222.684 394.212 222.456 393.324 222.456C392.46 222.456 391.644 222.684 390.876 223.14C390.108 223.572 389.496 224.196 389.04 225.012C388.584 225.828 388.356 226.764 388.356 227.82C388.356 228.876 388.584 229.812 389.04 230.628C389.496 231.444 390.108 232.08 390.876 232.536C391.644 232.992 392.46 233.22 393.324 233.22ZM412.111 226.956C412.111 225.804 412.351 224.808 412.831 223.968C413.335 223.128 414.199 222.168 415.423 221.088C416.143 220.44 416.659 219.876 416.971 219.396C417.307 218.916 417.475 218.364 417.475 217.74C417.475 216.996 417.199 216.372 416.647 215.868C416.095 215.34 415.363 215.076 414.451 215.076C413.491 215.076 412.699 215.364 412.075 215.94C411.475 216.492 411.043 217.188 410.779 218.028L406.639 216.3C407.095 214.764 407.983 213.444 409.303 212.34C410.647 211.212 412.327 210.648 414.343 210.648C415.855 210.648 417.199 210.948 418.375 211.548C419.551 212.148 420.463 212.976 421.111 214.032C421.783 215.064 422.119 216.216 422.119 217.488C422.119 218.736 421.855 219.804 421.327 220.692C420.799 221.58 420.019 222.516 418.987 223.5C418.171 224.268 417.607 224.928 417.295 225.48C417.007 226.032 416.863 226.728 416.863 227.568V228.144H412.111V226.956ZM414.451 237.216C413.587 237.216 412.843 236.916 412.219 236.316C411.619 235.692 411.319 234.948 411.319 234.084C411.319 233.22 411.619 232.488 412.219 231.888C412.843 231.288 413.587 230.988 414.451 230.988C415.315 230.988 416.047 231.288 416.647 231.888C417.247 232.488 417.547 233.22 417.547 234.084C417.547 234.948 417.247 235.692 416.647 236.316C416.047 236.916 415.315 237.216 414.451 237.216Z" fill="#FBBC04"/>
<g filter="url(#filter8_d_755_5224)">
<rect x="10" y="124" width="173" height="70" rx="35" fill="white"/>
</g>
<path d="M37.936 140.632H59.728V146.776H44.416V155.128H58.192V161.272H44.416V175H37.936V140.632ZM72.4821 175.768C69.5381 175.768 67.2981 174.856 65.7621 173.032C64.2261 171.208 63.4581 168.664 63.4581 165.4V150.52H69.7461V164.632C69.7461 166.296 70.1461 167.608 70.9461 168.568C71.7461 169.496 72.8021 169.96 74.1141 169.96C75.9061 169.96 77.3301 169.304 78.3861 167.992C79.4421 166.68 79.9701 165.016 79.9701 163V150.52H86.2581V175H80.3541V171.928H79.9701C79.2341 173.112 78.1941 174.056 76.8501 174.76C75.5381 175.432 74.0821 175.768 72.4821 175.768ZM92.3845 150.52H98.2885V153.592H98.6725C99.4085 152.408 100.449 151.48 101.793 150.808C103.137 150.104 104.593 149.752 106.161 149.752C109.105 149.752 111.345 150.648 112.881 152.44C114.417 154.232 115.185 156.68 115.185 159.784V175H108.897V160.552C108.897 158.984 108.497 157.768 107.697 156.904C106.897 156.04 105.777 155.608 104.337 155.608C102.641 155.608 101.265 156.264 100.209 157.576C99.1845 158.888 98.6725 160.536 98.6725 162.52V175H92.3845V150.52ZM126.517 161.608C126.517 160.072 126.837 158.744 127.477 157.624C128.149 156.504 129.301 155.224 130.933 153.784C131.893 152.92 132.581 152.168 132.997 151.528C133.445 150.888 133.669 150.152 133.669 149.32C133.669 148.328 133.301 147.496 132.565 146.824C131.829 146.12 130.853 145.768 129.637 145.768C128.357 145.768 127.301 146.152 126.469 146.92C125.669 147.656 125.093 148.584 124.741 149.704L119.221 147.4C119.829 145.352 121.013 143.592 122.773 142.12C124.565 140.616 126.805 139.864 129.493 139.864C131.509 139.864 133.301 140.264 134.869 141.064C136.437 141.864 137.653 142.968 138.517 144.376C139.413 145.752 139.861 147.288 139.861 148.984C139.861 150.648 139.509 152.072 138.805 153.256C138.101 154.44 137.061 155.688 135.685 157C134.597 158.024 133.845 158.904 133.429 159.64C133.045 160.376 132.853 161.304 132.853 162.424V163.192H126.517V161.608ZM129.637 175.288C128.485 175.288 127.493 174.888 126.661 174.088C125.861 173.256 125.461 172.264 125.461 171.112C125.461 169.96 125.861 168.984 126.661 168.184C127.493 167.384 128.485 166.984 129.637 166.984C130.789 166.984 131.765 167.384 132.565 168.184C133.365 168.984 133.765 169.96 133.765 171.112C133.765 172.264 133.365 173.256 132.565 174.088C131.765 174.888 130.789 175.288 129.637 175.288Z" fill="#EA4335"/>
<g filter="url(#filter9_d_755_5224)">
<rect x="205" y="11" width="211" height="79" rx="39.5" fill="white"/>
</g>
<path d="M252.352 66.768C249.056 66.768 246.016 66 243.232 64.464C240.48 62.896 238.288 60.752 236.656 58.032C235.024 55.28 234.208 52.208 234.208 48.816C234.208 45.424 235.024 42.368 236.656 39.648C238.288 36.896 240.48 34.752 243.232 33.216C246.016 31.648 249.056 30.864 252.352 30.864C255.04 30.864 257.488 31.344 259.696 32.304C261.936 33.232 263.856 34.56 265.456 36.288L260.992 40.656C259.84 39.44 258.56 38.528 257.152 37.92C255.776 37.312 254.16 37.008 252.304 37.008C250.192 37.008 248.256 37.504 246.496 38.496C244.736 39.456 243.328 40.848 242.272 42.672C241.248 44.464 240.736 46.512 240.736 48.816C240.736 51.12 241.264 53.184 242.32 55.008C243.376 56.8 244.784 58.192 246.544 59.184C248.336 60.144 250.288 60.624 252.4 60.624C255.6 60.624 258.224 59.68 260.272 57.792C260.912 57.216 261.472 56.48 261.952 55.584C262.432 54.688 262.784 53.712 263.008 52.656H252.208V47.136H269.056C269.28 48.032 269.392 49.04 269.392 50.16C269.392 52.432 269.04 54.544 268.336 56.496C267.664 58.448 266.624 60.16 265.216 61.632C263.68 63.296 261.824 64.576 259.648 65.472C257.472 66.336 255.04 66.768 252.352 66.768ZM286.206 66.768C283.678 66.768 281.422 66.208 279.438 65.088C277.454 63.936 275.902 62.384 274.782 60.432C273.694 58.448 273.15 56.224 273.15 53.76C273.15 51.328 273.694 49.12 274.782 47.136C275.902 45.152 277.454 43.6 279.438 42.48C281.422 41.328 283.678 40.752 286.206 40.752C288.702 40.752 290.942 41.328 292.926 42.48C294.91 43.6 296.446 45.152 297.534 47.136C298.654 49.12 299.214 51.328 299.214 53.76C299.214 56.224 298.654 58.448 297.534 60.432C296.446 62.384 294.91 63.936 292.926 65.088C290.942 66.208 288.702 66.768 286.206 66.768ZM286.206 60.96C287.422 60.96 288.542 60.672 289.566 60.096C290.59 59.52 291.406 58.688 292.014 57.6C292.622 56.512 292.926 55.232 292.926 53.76C292.926 52.32 292.622 51.056 292.014 49.968C291.406 48.88 290.59 48.048 289.566 47.472C288.542 46.896 287.422 46.608 286.206 46.608C284.99 46.608 283.87 46.896 282.846 47.472C281.822 48.048 280.99 48.88 280.35 49.968C279.742 51.056 279.438 52.32 279.438 53.76C279.438 55.2 279.742 56.48 280.35 57.6C280.99 58.688 281.822 59.52 282.846 60.096C283.87 60.672 284.99 60.96 286.206 60.96ZM311.513 66.768C308.921 66.768 306.793 66.016 305.129 64.512C303.465 62.976 302.633 60.976 302.633 58.512C302.633 56.88 303.065 55.44 303.929 54.192C304.793 52.944 305.977 51.984 307.481 51.312C308.985 50.64 310.649 50.304 312.473 50.304C315.001 50.304 317.161 50.672 318.953 51.408V50.352C318.953 49.008 318.441 47.92 317.417 47.088C316.425 46.256 315.081 45.84 313.385 45.84C312.233 45.84 311.113 46.112 310.025 46.656C308.969 47.168 308.089 47.856 307.385 48.72L303.353 45.552C304.537 44.016 306.025 42.832 307.817 42C309.609 41.168 311.561 40.752 313.673 40.752C317.417 40.752 320.265 41.616 322.217 43.344C324.169 45.072 325.145 47.6 325.145 50.928V66H318.953V63.504H318.569C317.833 64.464 316.857 65.248 315.641 65.856C314.457 66.464 313.081 66.768 311.513 66.768ZM313.001 61.872C314.825 61.872 316.265 61.296 317.321 60.144C318.409 58.96 318.953 57.584 318.953 56.016C317.321 55.248 315.609 54.864 313.817 54.864C310.553 54.864 308.921 56.08 308.921 58.512C308.921 59.504 309.273 60.32 309.977 60.96C310.681 61.568 311.689 61.872 313.001 61.872ZM330.931 31.632H337.219V66H330.931V31.632ZM352.478 66.768C349.502 66.768 347.086 66.16 345.23 64.944C343.406 63.728 342.126 62.144 341.39 60.192L347.006 57.744C347.518 58.896 348.238 59.776 349.166 60.384C350.126 60.96 351.23 61.248 352.478 61.248C353.63 61.248 354.59 61.072 355.358 60.72C356.126 60.336 356.51 59.728 356.51 58.896C356.51 58.096 356.158 57.504 355.454 57.12C354.75 56.704 353.694 56.336 352.286 56.016L349.406 55.392C347.422 54.912 345.774 54.048 344.462 52.8C343.15 51.52 342.494 49.936 342.494 48.048C342.494 46.64 342.91 45.376 343.742 44.256C344.606 43.136 345.758 42.272 347.198 41.664C348.67 41.056 350.286 40.752 352.046 40.752C357.102 40.752 360.478 42.528 362.174 46.08L356.798 48.432C355.838 46.704 354.302 45.84 352.19 45.84C351.102 45.84 350.238 46.048 349.598 46.464C348.958 46.848 348.638 47.344 348.638 47.952C348.638 49.104 349.726 49.968 351.902 50.544L355.502 51.408C357.934 52.016 359.758 52.944 360.974 54.192C362.222 55.44 362.846 56.976 362.846 58.8C362.846 60.368 362.382 61.76 361.454 62.976C360.558 64.16 359.31 65.088 357.71 65.76C356.142 66.432 354.398 66.768 352.478 66.768ZM373.736 52.608C373.736 51.072 374.056 49.744 374.696 48.624C375.368 47.504 376.52 46.224 378.152 44.784C379.112 43.92 379.8 43.168 380.216 42.528C380.664 41.888 380.888 41.152 380.888 40.32C380.888 39.328 380.52 38.496 379.784 37.824C379.048 37.12 378.072 36.768 376.856 36.768C375.576 36.768 374.52 37.152 373.688 37.92C372.888 38.656 372.312 39.584 371.96 40.704L366.44 38.4C367.048 36.352 368.232 34.592 369.992 33.12C371.784 31.616 374.024 30.864 376.712 30.864C378.728 30.864 380.52 31.264 382.088 32.064C383.656 32.864 384.872 33.968 385.736 35.376C386.632 36.752 387.08 38.288 387.08 39.984C387.08 41.648 386.728 43.072 386.024 44.256C385.32 45.44 384.28 46.688 382.904 48C381.816 49.024 381.064 49.904 380.648 50.64C380.264 51.376 380.072 52.304 380.072 53.424V54.192H373.736V52.608ZM376.856 66.288C375.704 66.288 374.712 65.888 373.88 65.088C373.08 64.256 372.68 63.264 372.68 62.112C372.68 60.96 373.08 59.984 373.88 59.184C374.712 58.384 375.704 57.984 376.856 57.984C378.008 57.984 378.984 58.384 379.784 59.184C380.584 59.984 380.984 60.96 380.984 62.112C380.984 63.264 380.584 64.256 379.784 65.088C378.984 65.888 378.008 66.288 376.856 66.288Z" fill="#EA4335"/>
<g filter="url(#filter10_b_755_5224)">
<circle cx="250" cy="165" r="127" transform="rotate(180 250 165)" fill="white" fill-opacity="0.8"/>
<circle cx="250" cy="165" r="128" transform="rotate(180 250 165)" stroke="url(#paint0_linear_755_5224)" stroke-width="2"/>
</g>
<path d="M212.818 165.351L235.991 152.209C238.612 150.722 240.526 148.27 241.312 145.394C242.097 142.517 241.69 139.451 240.18 136.87C238.67 134.289 236.181 132.405 233.26 131.631C230.338 130.857 227.225 131.258 224.604 132.745L184.712 155.494L212.818 165.351Z" fill="#EA4335"/>
<path d="M230.298 199.1C232.805 199.101 235.243 198.287 237.233 196.784C239.222 195.281 240.652 193.174 241.301 190.789C241.95 188.403 241.782 185.874 240.822 183.593C239.861 181.312 238.163 179.406 235.991 178.173L196.099 155.388C193.478 153.901 190.365 153.5 187.443 154.274C184.522 155.047 182.033 156.932 180.523 159.513C179.013 162.094 178.606 165.16 179.391 168.036C180.177 170.913 182.091 173.364 184.712 174.851L224.604 197.6C226.33 198.597 228.297 199.115 230.298 199.1Z" fill="#4285F4"/>
<path d="M270.116 199.101C272.116 199.106 274.081 198.589 275.81 197.601L315.702 174.852L287.923 164.888L264.386 178.28C262.264 179.538 260.616 181.443 259.693 183.706C258.769 185.969 258.62 188.467 259.268 190.821C259.916 193.175 261.325 195.257 263.283 196.751C265.241 198.245 267.64 199.07 270.116 199.101Z" fill="#FBBC04"/>
<path d="M310.12 176.458C312.624 176.444 315.054 175.619 317.035 174.112C319.017 172.604 320.441 170.498 321.088 168.115C321.735 165.733 321.569 163.208 320.616 160.927C319.663 158.647 317.976 156.738 315.814 155.495L275.812 132.746C274.512 131.935 273.059 131.391 271.54 131.147C270.021 130.903 268.467 130.963 266.973 131.325C265.478 131.687 264.073 132.343 262.842 133.253C261.611 134.163 260.58 135.308 259.81 136.62C259.04 137.932 258.547 139.384 258.36 140.889C258.174 142.393 258.299 143.919 258.726 145.375C259.154 146.831 259.876 148.187 260.849 149.361C261.822 150.536 263.026 151.504 264.389 152.209L304.281 174.958C306.016 175.934 307.977 176.451 309.975 176.458" fill="#34A853"/>
<g filter="url(#filter11_d_755_5224)">
<path d="M382 261C382 285.301 362.301 305 338 305C313.699 305 294 285.301 294 261C294 236.699 313.699 217 338 217C362.301 217 382 236.699 382 261Z" fill="white"/>
</g>
<path d="M333.544 268.144C333.544 266.096 333.971 264.325 334.824 262.832C335.72 261.339 337.256 259.632 339.432 257.712C340.712 256.56 341.629 255.557 342.184 254.704C342.781 253.851 343.08 252.869 343.08 251.76C343.08 250.437 342.589 249.328 341.608 248.432C340.627 247.493 339.325 247.024 337.704 247.024C335.997 247.024 334.589 247.536 333.48 248.56C332.413 249.541 331.645 250.779 331.176 252.272L323.816 249.2C324.627 246.469 326.205 244.123 328.552 242.16C330.941 240.155 333.928 239.152 337.512 239.152C340.2 239.152 342.589 239.685 344.68 240.752C346.771 241.819 348.392 243.291 349.544 245.168C350.739 247.003 351.336 249.051 351.336 251.312C351.336 253.531 350.867 255.429 349.928 257.008C348.989 258.587 347.603 260.251 345.768 262C344.317 263.365 343.315 264.539 342.76 265.52C342.248 266.501 341.992 267.739 341.992 269.232V270.256H333.544V268.144ZM337.704 286.384C336.168 286.384 334.845 285.851 333.736 284.784C332.669 283.675 332.136 282.352 332.136 280.816C332.136 279.28 332.669 277.979 333.736 276.912C334.845 275.845 336.168 275.312 337.704 275.312C339.24 275.312 340.541 275.845 341.608 276.912C342.675 277.979 343.208 279.28 343.208 280.816C343.208 282.352 342.675 283.675 341.608 284.784C340.541 285.851 339.24 286.384 337.704 286.384Z" fill="#EA4335"/>
<g filter="url(#filter12_d_755_5224)">
<rect x="143" y="21" width="107" height="40" rx="20" fill="white"/>
</g>
<path d="M160.64 33.68H169.72V36.24H163.34V39.56H169.08V42.12H163.34V45.44H169.72V48H160.64V33.68ZM170.605 37.8H173.585L176.165 44.44H176.325L178.945 37.8H181.885L177.525 48H174.925L170.605 37.8ZM187.794 48.32C186.781 48.32 185.868 48.0867 185.054 47.62C184.241 47.1533 183.601 46.5133 183.134 45.7C182.681 44.8733 182.454 43.9467 182.454 42.92C182.454 41.9467 182.681 41.0467 183.134 40.22C183.588 39.38 184.214 38.7133 185.014 38.22C185.814 37.7267 186.708 37.48 187.694 37.48C188.748 37.48 189.654 37.7067 190.414 38.16C191.174 38.6133 191.748 39.2333 192.134 40.02C192.534 40.8067 192.734 41.68 192.734 42.64C192.734 42.9467 192.714 43.24 192.674 43.52H185.014C185.148 44.3333 185.468 44.9533 185.974 45.38C186.494 45.7933 187.114 46 187.834 46C188.434 46 188.948 45.8733 189.374 45.62C189.814 45.3533 190.161 45 190.414 44.56L192.534 45.6C191.494 47.4133 189.914 48.32 187.794 48.32ZM190.214 41.66C190.188 41.34 190.068 41.0267 189.854 40.72C189.654 40.4 189.368 40.14 188.994 39.94C188.634 39.7267 188.208 39.62 187.714 39.62C187.088 39.62 186.548 39.8067 186.094 40.18C185.654 40.54 185.334 41.0333 185.134 41.66H190.214ZM194.753 37.8H197.213V39.08H197.373C197.679 38.5867 198.113 38.2 198.673 37.92C199.233 37.6267 199.839 37.48 200.493 37.48C201.719 37.48 202.653 37.8533 203.293 38.6C203.933 39.3467 204.253 40.3667 204.253 41.66V48H201.633V41.98C201.633 41.3267 201.466 40.82 201.133 40.46C200.799 40.1 200.333 39.92 199.733 39.92C199.026 39.92 198.453 40.1933 198.013 40.74C197.586 41.2867 197.373 41.9733 197.373 42.8V48H194.753V37.8ZM210.658 48.16C210.151 48.16 209.684 48.0867 209.258 47.94C208.831 47.78 208.484 47.5667 208.218 47.3C207.591 46.7 207.278 45.8467 207.278 44.74V40.04H205.498V37.8H207.278V34.92H209.898V37.8H212.398V40.04H209.898V44.26C209.898 44.78 210.011 45.1533 210.238 45.38C210.424 45.5933 210.744 45.7 211.198 45.7C211.451 45.7 211.658 45.6667 211.818 45.6C211.991 45.5333 212.211 45.42 212.478 45.26V47.82C211.904 48.0467 211.298 48.16 210.658 48.16ZM218.652 48.32C217.412 48.32 216.406 48.0667 215.632 47.56C214.872 47.0533 214.339 46.3933 214.032 45.58L216.372 44.56C216.586 45.04 216.886 45.4067 217.272 45.66C217.672 45.9 218.132 46.02 218.652 46.02C219.132 46.02 219.532 45.9467 219.852 45.8C220.172 45.64 220.332 45.3867 220.332 45.04C220.332 44.7067 220.186 44.46 219.892 44.3C219.599 44.1267 219.159 43.9733 218.572 43.84L217.372 43.58C216.546 43.38 215.859 43.02 215.312 42.5C214.766 41.9667 214.492 41.3067 214.492 40.52C214.492 39.9333 214.666 39.4067 215.012 38.94C215.372 38.4733 215.852 38.1133 216.452 37.86C217.066 37.6067 217.739 37.48 218.472 37.48C220.579 37.48 221.986 38.22 222.692 39.7L220.452 40.68C220.052 39.96 219.412 39.6 218.532 39.6C218.079 39.6 217.719 39.6867 217.452 39.86C217.186 40.02 217.052 40.2267 217.052 40.48C217.052 40.96 217.506 41.32 218.412 41.56L219.912 41.92C220.926 42.1733 221.686 42.56 222.192 43.08C222.712 43.6 222.972 44.24 222.972 45C222.972 45.6533 222.779 46.2333 222.392 46.74C222.019 47.2333 221.499 47.62 220.832 47.9C220.179 48.18 219.452 48.32 218.652 48.32ZM227.51 42.42C227.51 41.78 227.643 41.2267 227.91 40.76C228.19 40.2933 228.67 39.76 229.35 39.16C229.75 38.8 230.037 38.4867 230.21 38.22C230.397 37.9533 230.49 37.6467 230.49 37.3C230.49 36.8867 230.337 36.54 230.03 36.26C229.723 35.9667 229.317 35.82 228.81 35.82C228.277 35.82 227.837 35.98 227.49 36.3C227.157 36.6067 226.917 36.9933 226.77 37.46L224.47 36.5C224.723 35.6467 225.217 34.9133 225.95 34.3C226.697 33.6733 227.63 33.36 228.75 33.36C229.59 33.36 230.337 33.5267 230.99 33.86C231.643 34.1933 232.15 34.6533 232.51 35.24C232.883 35.8133 233.07 36.4533 233.07 37.16C233.07 37.8533 232.923 38.4467 232.63 38.94C232.337 39.4333 231.903 39.9533 231.33 40.5C230.877 40.9267 230.563 41.2933 230.39 41.6C230.23 41.9067 230.15 42.2933 230.15 42.76V43.08H227.51V42.42ZM228.81 48.12C228.33 48.12 227.917 47.9533 227.57 47.62C227.237 47.2733 227.07 46.86 227.07 46.38C227.07 45.9 227.237 45.4933 227.57 45.16C227.917 44.8267 228.33 44.66 228.81 44.66C229.29 44.66 229.697 44.8267 230.03 45.16C230.363 45.4933 230.53 45.9 230.53 46.38C230.53 46.86 230.363 47.2733 230.03 47.62C229.697 47.9533 229.29 48.12 228.81 48.12Z" fill="#34A853"/>
<g filter="url(#filter13_d_755_5224)">
<rect x="68" y="225" width="129" height="42" rx="21" fill="white"/>
</g>
<path d="M94.104 254.384C92.44 254.384 90.92 253.992 89.544 253.208C88.168 252.408 87.08 251.328 86.28 249.968C85.496 248.592 85.104 247.072 85.104 245.408C85.104 243.744 85.496 242.232 86.28 240.872C87.08 239.496 88.168 238.416 89.544 237.632C90.92 236.832 92.44 236.432 94.104 236.432C96.696 236.432 98.84 237.368 100.536 239.24L98.256 241.448C97.152 240.152 95.776 239.504 94.128 239.504C93.056 239.504 92.08 239.752 91.2 240.248C90.32 240.728 89.624 241.416 89.112 242.312C88.616 243.208 88.368 244.24 88.368 245.408C88.368 246.576 88.616 247.608 89.112 248.504C89.624 249.4 90.32 250.096 91.2 250.592C92.08 251.072 93.056 251.312 94.128 251.312C95.936 251.312 97.448 250.56 98.664 249.056L100.968 251.24C100.12 252.264 99.112 253.048 97.944 253.592C96.792 254.12 95.512 254.384 94.104 254.384ZM108.923 254.384C107.659 254.384 106.531 254.104 105.539 253.544C104.547 252.968 103.771 252.192 103.211 251.216C102.667 250.224 102.395 249.112 102.395 247.88C102.395 246.664 102.667 245.56 103.211 244.568C103.771 243.576 104.547 242.8 105.539 242.24C106.531 241.664 107.659 241.376 108.923 241.376C110.171 241.376 111.291 241.664 112.283 242.24C113.275 242.8 114.043 243.576 114.587 244.568C115.147 245.56 115.427 246.664 115.427 247.88C115.427 249.112 115.147 250.224 114.587 251.216C114.043 252.192 113.275 252.968 112.283 253.544C111.291 254.104 110.171 254.384 108.923 254.384ZM108.923 251.48C109.531 251.48 110.091 251.336 110.603 251.048C111.115 250.76 111.523 250.344 111.827 249.8C112.131 249.256 112.283 248.616 112.283 247.88C112.283 247.16 112.131 246.528 111.827 245.984C111.523 245.44 111.115 245.024 110.603 244.736C110.091 244.448 109.531 244.304 108.923 244.304C108.315 244.304 107.755 244.448 107.243 244.736C106.731 245.024 106.315 245.44 105.995 245.984C105.691 246.528 105.539 247.16 105.539 247.88C105.539 248.6 105.691 249.24 105.995 249.8C106.315 250.344 106.731 250.76 107.243 251.048C107.755 251.336 108.315 251.48 108.923 251.48ZM123.089 254.384C121.985 254.384 120.977 254.112 120.065 253.568C119.169 253.008 118.457 252.24 117.929 251.264C117.417 250.272 117.161 249.144 117.161 247.88C117.161 246.632 117.417 245.512 117.929 244.52C118.457 243.528 119.169 242.76 120.065 242.216C120.977 241.656 121.985 241.376 123.089 241.376C123.921 241.376 124.657 241.56 125.297 241.928C125.937 242.28 126.425 242.72 126.761 243.248H126.953L126.761 241.52V236.816H129.881V254H126.953V252.536H126.761C126.441 253.064 125.953 253.504 125.297 253.856C124.657 254.208 123.921 254.384 123.089 254.384ZM123.617 251.48C124.209 251.48 124.761 251.328 125.273 251.024C125.785 250.72 126.193 250.296 126.497 249.752C126.801 249.208 126.953 248.584 126.953 247.88C126.953 247.176 126.801 246.552 126.497 246.008C126.193 245.464 125.785 245.048 125.273 244.76C124.761 244.456 124.209 244.304 123.617 244.304C123.041 244.304 122.497 244.456 121.985 244.76C121.473 245.048 121.065 245.464 120.761 246.008C120.457 246.552 120.305 247.176 120.305 247.88C120.305 248.584 120.457 249.208 120.761 249.752C121.065 250.296 121.473 250.72 121.985 251.024C122.497 251.328 123.041 251.48 123.617 251.48ZM134.75 240.416C134.19 240.416 133.71 240.216 133.31 239.816C132.91 239.416 132.71 238.936 132.71 238.376C132.71 237.816 132.91 237.344 133.31 236.96C133.71 236.56 134.19 236.36 134.75 236.36C135.31 236.36 135.782 236.56 136.166 236.96C136.566 237.344 136.766 237.816 136.766 238.376C136.766 238.936 136.566 239.416 136.166 239.816C135.782 240.216 135.31 240.416 134.75 240.416ZM133.166 241.76H136.31V254H133.166V241.76ZM139.606 241.76H142.558V243.296H142.75C143.118 242.704 143.638 242.24 144.31 241.904C144.982 241.552 145.71 241.376 146.494 241.376C147.966 241.376 149.086 241.824 149.854 242.72C150.622 243.616 151.006 244.84 151.006 246.392V254H147.862V246.776C147.862 245.992 147.662 245.384 147.262 244.952C146.862 244.52 146.302 244.304 145.582 244.304C144.734 244.304 144.046 244.632 143.518 245.288C143.006 245.944 142.75 246.768 142.75 247.76V254H139.606V241.76ZM159.496 259.568C157.944 259.568 156.656 259.216 155.632 258.512C154.608 257.824 153.92 256.992 153.568 256.016L156.52 254.816C156.776 255.424 157.168 255.904 157.696 256.256C158.224 256.608 158.824 256.784 159.496 256.784C160.488 256.784 161.272 256.48 161.848 255.872C162.44 255.264 162.736 254.4 162.736 253.28V252.32H162.544C162.16 252.864 161.656 253.28 161.032 253.568C160.408 253.856 159.696 254 158.896 254C157.888 254 156.944 253.744 156.064 253.232C155.2 252.704 154.504 251.968 153.976 251.024C153.448 250.064 153.184 248.952 153.184 247.688C153.184 246.424 153.448 245.32 153.976 244.376C154.504 243.416 155.2 242.68 156.064 242.168C156.944 241.64 157.888 241.376 158.896 241.376C159.696 241.376 160.408 241.52 161.032 241.808C161.656 242.096 162.16 242.512 162.544 243.056H162.736V241.76H165.76V253.16C165.76 254.472 165.504 255.608 164.992 256.568C164.48 257.528 163.752 258.264 162.808 258.776C161.864 259.304 160.76 259.568 159.496 259.568ZM159.544 251.144C160.424 251.144 161.176 250.84 161.8 250.232C162.424 249.608 162.736 248.76 162.736 247.688C162.736 246.584 162.424 245.736 161.8 245.144C161.192 244.536 160.44 244.232 159.544 244.232C158.648 244.232 157.888 244.536 157.264 245.144C156.64 245.752 156.328 246.6 156.328 247.688C156.328 248.776 156.64 249.624 157.264 250.232C157.888 250.84 158.648 251.144 159.544 251.144ZM172.001 247.304C172.001 246.536 172.161 245.872 172.481 245.312C172.817 244.752 173.393 244.112 174.209 243.392C174.689 242.96 175.033 242.584 175.241 242.264C175.465 241.944 175.577 241.576 175.577 241.16C175.577 240.664 175.393 240.248 175.025 239.912C174.657 239.56 174.169 239.384 173.561 239.384C172.921 239.384 172.393 239.576 171.977 239.96C171.577 240.328 171.289 240.792 171.113 241.352L168.353 240.2C168.657 239.176 169.249 238.296 170.129 237.56C171.025 236.808 172.145 236.432 173.489 236.432C174.497 236.432 175.393 236.632 176.177 237.032C176.961 237.432 177.569 237.984 178.001 238.688C178.449 239.376 178.673 240.144 178.673 240.992C178.673 241.824 178.497 242.536 178.145 243.128C177.793 243.72 177.273 244.344 176.585 245C176.041 245.512 175.665 245.952 175.457 246.32C175.265 246.688 175.169 247.152 175.169 247.712V248.096H172.001V247.304ZM173.561 254.144C172.985 254.144 172.489 253.944 172.073 253.544C171.673 253.128 171.473 252.632 171.473 252.056C171.473 251.48 171.673 250.992 172.073 250.592C172.489 250.192 172.985 249.992 173.561 249.992C174.137 249.992 174.625 250.192 175.025 250.592C175.425 250.992 175.625 251.48 175.625 252.056C175.625 252.632 175.425 253.128 175.025 253.544C174.625 253.944 174.137 254.144 173.561 254.144Z" fill="#34A853"/>
<g filter="url(#filter14_d_755_5224)">
<rect x="296" y="88" width="135" height="37" rx="18.5" fill="white"/>
</g>
<path d="M312.28 98.68H315.2L318.16 107.32L318.68 109.14H318.84L319.4 107.32L322.48 98.68H325.4L320.18 113H317.34L312.28 98.68ZM330.54 113.32C329.527 113.32 328.614 113.087 327.8 112.62C326.987 112.153 326.347 111.513 325.88 110.7C325.427 109.873 325.2 108.947 325.2 107.92C325.2 106.947 325.427 106.047 325.88 105.22C326.334 104.38 326.96 103.713 327.76 103.22C328.56 102.727 329.454 102.48 330.44 102.48C331.494 102.48 332.4 102.707 333.16 103.16C333.92 103.613 334.494 104.233 334.88 105.02C335.28 105.807 335.48 106.68 335.48 107.64C335.48 107.947 335.46 108.24 335.42 108.52H327.76C327.894 109.333 328.214 109.953 328.72 110.38C329.24 110.793 329.86 111 330.58 111C331.18 111 331.694 110.873 332.12 110.62C332.56 110.353 332.907 110 333.16 109.56L335.28 110.6C334.24 112.413 332.66 113.32 330.54 113.32ZM332.96 106.66C332.934 106.34 332.814 106.027 332.6 105.72C332.4 105.4 332.114 105.14 331.74 104.94C331.38 104.727 330.954 104.62 330.46 104.62C329.834 104.62 329.294 104.807 328.84 105.18C328.4 105.54 328.08 106.033 327.88 106.66H332.96ZM337.499 102.8H339.959V104.16H340.119C340.372 103.68 340.765 103.287 341.299 102.98C341.832 102.66 342.419 102.5 343.059 102.5C343.525 102.5 343.952 102.573 344.339 102.72V105.34C343.979 105.207 343.672 105.113 343.419 105.06C343.179 104.993 342.919 104.96 342.639 104.96C341.865 104.96 341.252 105.24 340.799 105.8C340.345 106.36 340.119 107.067 340.119 107.92V113H337.499V102.8ZM349.663 112.52L345.363 102.8H348.343L350.983 109.14H351.143L353.683 102.8H356.603L350.303 117.32H347.483L349.663 112.52ZM362.733 98.68H365.353V102.3L365.193 104.08H365.353C365.646 103.6 366.073 103.213 366.633 102.92C367.193 102.627 367.8 102.48 368.453 102.48C369.693 102.48 370.64 102.853 371.293 103.6C371.96 104.333 372.293 105.353 372.293 106.66V113H369.673V106.98C369.673 106.327 369.493 105.82 369.133 105.46C368.786 105.1 368.32 104.92 367.733 104.92C367.04 104.92 366.466 105.2 366.013 105.76C365.573 106.32 365.353 107.007 365.353 107.82V113H362.733V98.68ZM377.787 113.32C376.707 113.32 375.82 113.007 375.127 112.38C374.433 111.74 374.087 110.907 374.087 109.88C374.087 109.2 374.267 108.6 374.627 108.08C374.987 107.56 375.48 107.16 376.107 106.88C376.733 106.6 377.427 106.46 378.187 106.46C379.24 106.46 380.14 106.613 380.887 106.92V106.48C380.887 105.92 380.673 105.467 380.247 105.12C379.833 104.773 379.273 104.6 378.567 104.6C378.087 104.6 377.62 104.713 377.167 104.94C376.727 105.153 376.36 105.44 376.067 105.8L374.387 104.48C374.88 103.84 375.5 103.347 376.247 103C376.993 102.653 377.807 102.48 378.687 102.48C380.247 102.48 381.433 102.84 382.247 103.56C383.06 104.28 383.467 105.333 383.467 106.72V113H380.887V111.96H380.727C380.42 112.36 380.013 112.687 379.507 112.94C379.013 113.193 378.44 113.32 377.787 113.32ZM378.407 111.28C379.167 111.28 379.767 111.04 380.207 110.56C380.66 110.067 380.887 109.493 380.887 108.84C380.207 108.52 379.493 108.36 378.747 108.36C377.387 108.36 376.707 108.867 376.707 109.88C376.707 110.293 376.853 110.633 377.147 110.9C377.44 111.153 377.86 111.28 378.407 111.28ZM385.878 102.8H388.338V104.16H388.498C388.751 103.68 389.144 103.287 389.678 102.98C390.211 102.66 390.798 102.5 391.438 102.5C391.904 102.5 392.331 102.573 392.718 102.72V105.34C392.358 105.207 392.051 105.113 391.798 105.06C391.558 104.993 391.298 104.96 391.018 104.96C390.244 104.96 389.631 105.24 389.178 105.8C388.724 106.36 388.498 107.067 388.498 107.92V113H385.878V102.8ZM398.187 113.32C397.267 113.32 396.427 113.093 395.667 112.64C394.921 112.173 394.327 111.533 393.887 110.72C393.461 109.893 393.247 108.953 393.247 107.9C393.247 106.86 393.461 105.927 393.887 105.1C394.327 104.273 394.921 103.633 395.667 103.18C396.427 102.713 397.267 102.48 398.187 102.48C398.881 102.48 399.494 102.633 400.027 102.94C400.561 103.233 400.967 103.6 401.247 104.04H401.407L401.247 102.6V98.68H403.847V113H401.407V111.78H401.247C400.981 112.22 400.574 112.587 400.027 112.88C399.494 113.173 398.881 113.32 398.187 113.32ZM398.627 110.9C399.121 110.9 399.581 110.773 400.007 110.52C400.434 110.267 400.774 109.913 401.027 109.46C401.281 109.007 401.407 108.487 401.407 107.9C401.407 107.313 401.281 106.793 401.027 106.34C400.774 105.887 400.434 105.54 400.007 105.3C399.581 105.047 399.121 104.92 398.627 104.92C398.147 104.92 397.694 105.047 397.267 105.3C396.841 105.54 396.501 105.887 396.247 106.34C395.994 106.793 395.867 107.313 395.867 107.9C395.867 108.487 395.994 109.007 396.247 109.46C396.501 109.913 396.841 110.267 397.267 110.52C397.694 110.773 398.147 110.9 398.627 110.9ZM409.065 107.42C409.065 106.78 409.198 106.227 409.465 105.76C409.745 105.293 410.225 104.76 410.905 104.16C411.305 103.8 411.591 103.487 411.765 103.22C411.951 102.953 412.045 102.647 412.045 102.3C412.045 101.887 411.891 101.54 411.585 101.26C411.278 100.967 410.871 100.82 410.365 100.82C409.831 100.82 409.391 100.98 409.045 101.3C408.711 101.607 408.471 101.993 408.325 102.46L406.025 101.5C406.278 100.647 406.771 99.9133 407.505 99.3C408.251 98.6733 409.185 98.36 410.305 98.36C411.145 98.36 411.891 98.5267 412.545 98.86C413.198 99.1933 413.705 99.6533 414.065 100.24C414.438 100.813 414.625 101.453 414.625 102.16C414.625 102.853 414.478 103.447 414.185 103.94C413.891 104.433 413.458 104.953 412.885 105.5C412.431 105.927 412.118 106.293 411.945 106.6C411.785 106.907 411.705 107.293 411.705 107.76V108.08H409.065V107.42ZM410.365 113.12C409.885 113.12 409.471 112.953 409.125 112.62C408.791 112.273 408.625 111.86 408.625 111.38C408.625 110.9 408.791 110.493 409.125 110.16C409.471 109.827 409.885 109.66 410.365 109.66C410.845 109.66 411.251 109.827 411.585 110.16C411.918 110.493 412.085 110.9 412.085 111.38C412.085 111.86 411.918 112.273 411.585 112.62C411.251 112.953 410.845 113.12 410.365 113.12Z" fill="#FBBC04"/>
</g>
<defs>
<filter id="filter0_d_755_5224" x="6" y="0" width="471" height="344" filterUnits="userSpaceOnUse" color-interpolation-filters="sRGB">
<feFlood flood-opacity="0" result="BackgroundImageFix"/>
<feColorMatrix in="SourceAlpha" type="matrix" values="0 0 0 0 0 0 0 0 0 0 0 0 0 0 0 0 0 0 127 0" result="hardAlpha"/>
<feOffset dy="4"/>
<feGaussianBlur stdDeviation="2"/>
<feComposite in2="hardAlpha" operator="out"/>
<feColorMatrix type="matrix" values="0 0 0 0 0 0 0 0 0 0 0 0 0 0 0 0 0 0 0.25 0"/>
<feBlend mode="normal" in2="BackgroundImageFix" result="effect1_dropShadow_755_5224"/>
<feBlend mode="normal" in="SourceGraphic" in2="effect1_dropShadow_755_5224" result="shape"/>
</filter>
<filter id="filter1_d_755_5224" x="236" y="251" width="211" height="81" filterUnits="userSpaceOnUse" color-interpolation-filters="sRGB">
<feFlood flood-opacity="0" result="BackgroundImageFix"/>
<feColorMatrix in="SourceAlpha" type="matrix" values="0 0 0 0 0 0 0 0 0 0 0 0 0 0 0 0 0 0 127 0" result="hardAlpha"/>
<feMorphology radius="4" operator="dilate" in="SourceAlpha" result="effect1_dropShadow_755_5224"/>
<feOffset dy="4"/>
<feGaussianBlur stdDeviation="3"/>
<feComposite in2="hardAlpha" operator="out"/>
<feColorMatrix type="matrix" values="0 0 0 0 0 0 0 0 0 0 0 0 0 0 0 0 0 0 0.08 0"/>
<feBlend mode="normal" in2="BackgroundImageFix" result="effect1_dropShadow_755_5224"/>
<feBlend mode="normal" in="SourceGraphic" in2="effect1_dropShadow_755_5224" result="shape"/>
</filter>
<filter id="filter2_d_755_5224" x="222" y="114" width="261" height="99" filterUnits="userSpaceOnUse" color-interpolation-filters="sRGB">
<feFlood flood-opacity="0" result="BackgroundImageFix"/>
<feColorMatrix in="SourceAlpha" type="matrix" values="0 0 0 0 0 0 0 0 0 0 0 0 0 0 0 0 0 0 127 0" result="hardAlpha"/>
<feMorphology radius="4" operator="dilate" in="SourceAlpha" result="effect1_dropShadow_755_5224"/>
<feOffset dy="4"/>
<feGaussianBlur stdDeviation="3"/>
<feComposite in2="hardAlpha" operator="out"/>
<feColorMatrix type="matrix" values="0 0 0 0 0 0 0 0 0 0 0 0 0 0 0 0 0 0 0.08 0"/>
<feBlend mode="normal" in2="BackgroundImageFix" result="effect1_dropShadow_755_5224"/>
<feBlend mode="normal" in="SourceGraphic" in2="effect1_dropShadow_755_5224" result="shape"/>
</filter>
<filter id="filter3_d_755_5224" x="34" y="81" width="195" height="60" filterUnits="userSpaceOnUse" color-interpolation-filters="sRGB">
<feFlood flood-opacity="0" result="BackgroundImageFix"/>
<feColorMatrix in="SourceAlpha" type="matrix" values="0 0 0 0 0 0 0 0 0 0 0 0 0 0 0 0 0 0 127 0" result="hardAlpha"/>
<feMorphology radius="4" operator="dilate" in="SourceAlpha" result="effect1_dropShadow_755_5224"/>
<feOffset dy="4"/>
<feGaussianBlur stdDeviation="3"/>
<feComposite in2="hardAlpha" operator="out"/>
<feColorMatrix type="matrix" values="0 0 0 0 0 0 0 0 0 0 0 0 0 0 0 0 0 0 0.08 0"/>
<feBlend mode="normal" in2="BackgroundImageFix" result="effect1_dropShadow_755_5224"/>
<feBlend mode="normal" in="SourceGraphic" in2="effect1_dropShadow_755_5224" result="shape"/>
</filter>
<filter id="filter4_d_755_5224" x="43" y="184" width="159" height="56" filterUnits="userSpaceOnUse" color-interpolation-filters="sRGB">
<feFlood flood-opacity="0" result="BackgroundImageFix"/>
<feColorMatrix in="SourceAlpha" type="matrix" values="0 0 0 0 0 0 0 0 0 0 0 0 0 0 0 0 0 0 127 0" result="hardAlpha"/>
<feMorphology radius="4" operator="dilate" in="SourceAlpha" result="effect1_dropShadow_755_5224"/>
<feOffset dy="4"/>
<feGaussianBlur stdDeviation="3"/>
<feComposite in2="hardAlpha" operator="out"/>
<feColorMatrix type="matrix" values="0 0 0 0 0 0 0 0 0 0 0 0 0 0 0 0 0 0 0.08 0"/>
<feBlend mode="normal" in2="BackgroundImageFix" result="effect1_dropShadow_755_5224"/>
<feBlend mode="normal" in="SourceGraphic" in2="effect1_dropShadow_755_5224" result="shape"/>
</filter>
<filter id="filter5_d_755_5224" x="88" y="44" width="107" height="60" filterUnits="userSpaceOnUse" color-interpolation-filters="sRGB">
<feFlood flood-opacity="0" result="BackgroundImageFix"/>
<feColorMatrix in="SourceAlpha" type="matrix" values="0 0 0 0 0 0 0 0 0 0 0 0 0 0 0 0 0 0 127 0" result="hardAlpha"/>
<feMorphology radius="4" operator="dilate" in="SourceAlpha" result="effect1_dropShadow_755_5224"/>
<feOffset dy="4"/>
<feGaussianBlur stdDeviation="3"/>
<feComposite in2="hardAlpha" operator="out"/>
<feColorMatrix type="matrix" values="0 0 0 0 0 0 0 0 0 0 0 0 0 0 0 0 0 0 0.08 0"/>
<feBlend mode="normal" in2="BackgroundImageFix" result="effect1_dropShadow_755_5224"/>
<feBlend mode="normal" in="SourceGraphic" in2="effect1_dropShadow_755_5224" result="shape"/>
</filter>
<filter id="filter6_d_755_5224" x="97" y="239" width="231" height="111" filterUnits="userSpaceOnUse" color-interpolation-filters="sRGB">
<feFlood flood-opacity="0" result="BackgroundImageFix"/>
<feColorMatrix in="SourceAlpha" type="matrix" values="0 0 0 0 0 0 0 0 0 0 0 0 0 0 0 0 0 0 127 0" result="hardAlpha"/>
<feMorphology radius="4" operator="dilate" in="SourceAlpha" result="effect1_dropShadow_755_5224"/>
<feOffset dy="4"/>
<feGaussianBlur stdDeviation="3"/>
<feComposite in2="hardAlpha" operator="out"/>
<feColorMatrix type="matrix" values="0 0 0 0 0 0 0 0 0 0 0 0 0 0 0 0 0 0 0.08 0"/>
<feBlend mode="normal" in2="BackgroundImageFix" result="effect1_dropShadow_755_5224"/>
<feBlend mode="normal" in="SourceGraphic" in2="effect1_dropShadow_755_5224" result="shape"/>
</filter>
<filter id="filter7_d_755_5224" x="130" y="189" width="335" height="79" filterUnits="userSpaceOnUse" color-interpolation-filters="sRGB">
<feFlood flood-opacity="0" result="BackgroundImageFix"/>
<feColorMatrix in="SourceAlpha" type="matrix" values="0 0 0 0 0 0 0 0 0 0 0 0 0 0 0 0 0 0 127 0" result="hardAlpha"/>
<feMorphology radius="4" operator="dilate" in="SourceAlpha" result="effect1_dropShadow_755_5224"/>
<feOffset dy="4"/>
<feGaussianBlur stdDeviation="3"/>
<feComposite in2="hardAlpha" operator="out"/>
<feColorMatrix type="matrix" values="0 0 0 0 0 0 0 0 0 0 0 0 0 0 0 0 0 0 0.08 0"/>
<feBlend mode="normal" in2="BackgroundImageFix" result="effect1_dropShadow_755_5224"/>
<feBlend mode="normal" in="SourceGraphic" in2="effect1_dropShadow_755_5224" result="shape"/>
</filter>
<filter id="filter8_d_755_5224" x="0" y="118" width="193" height="90" filterUnits="userSpaceOnUse" color-interpolation-filters="sRGB">
<feFlood flood-opacity="0" result="BackgroundImageFix"/>
<feColorMatrix in="SourceAlpha" type="matrix" values="0 0 0 0 0 0 0 0 0 0 0 0 0 0 0 0 0 0 127 0" result="hardAlpha"/>
<feMorphology radius="4" operator="dilate" in="SourceAlpha" result="effect1_dropShadow_755_5224"/>
<feOffset dy="4"/>
<feGaussianBlur stdDeviation="3"/>
<feComposite in2="hardAlpha" operator="out"/>
<feColorMatrix type="matrix" values="0 0 0 0 0 0 0 0 0 0 0 0 0 0 0 0 0 0 0.08 0"/>
<feBlend mode="normal" in2="BackgroundImageFix" result="effect1_dropShadow_755_5224"/>
<feBlend mode="normal" in="SourceGraphic" in2="effect1_dropShadow_755_5224" result="shape"/>
</filter>
<filter id="filter9_d_755_5224" x="195" y="5" width="231" height="99" filterUnits="userSpaceOnUse" color-interpolation-filters="sRGB">
<feFlood flood-opacity="0" result="BackgroundImageFix"/>
<feColorMatrix in="SourceAlpha" type="matrix" values="0 0 0 0 0 0 0 0 0 0 0 0 0 0 0 0 0 0 127 0" result="hardAlpha"/>
<feMorphology radius="4" operator="dilate" in="SourceAlpha" result="effect1_dropShadow_755_5224"/>
<feOffset dy="4"/>
<feGaussianBlur stdDeviation="3"/>
<feComposite in2="hardAlpha" operator="out"/>
<feColorMatrix type="matrix" values="0 0 0 0 0 0 0 0 0 0 0 0 0 0 0 0 0 0 0.08 0"/>
<feBlend mode="normal" in2="BackgroundImageFix" result="effect1_dropShadow_755_5224"/>
<feBlend mode="normal" in="SourceGraphic" in2="effect1_dropShadow_755_5224" result="shape"/>
</filter>
<filter id="filter10_b_755_5224" x="89" y="4" width="322" height="322" filterUnits="userSpaceOnUse" color-interpolation-filters="sRGB">
<feFlood flood-opacity="0" result="BackgroundImageFix"/>
<feGaussianBlur in="BackgroundImageFix" stdDeviation="16"/>
<feComposite in2="SourceAlpha" operator="in" result="effect1_backgroundBlur_755_5224"/>
<feBlend mode="normal" in="SourceGraphic" in2="effect1_backgroundBlur_755_5224" result="shape"/>
</filter>
<filter id="filter11_d_755_5224" x="278" y="205" width="120" height="120" filterUnits="userSpaceOnUse" color-interpolation-filters="sRGB">
<feFlood flood-opacity="0" result="BackgroundImageFix"/>
<feColorMatrix in="SourceAlpha" type="matrix" values="0 0 0 0 0 0 0 0 0 0 0 0 0 0 0 0 0 0 127 0" result="hardAlpha"/>
<feOffset dy="4"/>
<feGaussianBlur stdDeviation="8"/>
<feComposite in2="hardAlpha" operator="out"/>
<feColorMatrix type="matrix" values="0 0 0 0 0 0 0 0 0 0 0 0 0 0 0 0 0 0 0.16 0"/>
<feBlend mode="normal" in2="BackgroundImageFix" result="effect1_dropShadow_755_5224"/>
<feBlend mode="normal" in="SourceGraphic" in2="effect1_dropShadow_755_5224" result="shape"/>
</filter>
<filter id="filter12_d_755_5224" x="133" y="15" width="127" height="60" filterUnits="userSpaceOnUse" color-interpolation-filters="sRGB">
<feFlood flood-opacity="0" result="BackgroundImageFix"/>
<feColorMatrix in="SourceAlpha" type="matrix" values="0 0 0 0 0 0 0 0 0 0 0 0 0 0 0 0 0 0 127 0" result="hardAlpha"/>
<feMorphology radius="4" operator="dilate" in="SourceAlpha" result="effect1_dropShadow_755_5224"/>
<feOffset dy="4"/>
<feGaussianBlur stdDeviation="3"/>
<feComposite in2="hardAlpha" operator="out"/>
<feColorMatrix type="matrix" values="0 0 0 0 0 0 0 0 0 0 0 0 0 0 0 0 0 0 0.08 0"/>
<feBlend mode="normal" in2="BackgroundImageFix" result="effect1_dropShadow_755_5224"/>
<feBlend mode="normal" in="SourceGraphic" in2="effect1_dropShadow_755_5224" result="shape"/>
</filter>
<filter id="filter13_d_755_5224" x="58" y="219" width="149" height="62" filterUnits="userSpaceOnUse" color-interpolation-filters="sRGB">
<feFlood flood-opacity="0" result="BackgroundImageFix"/>
<feColorMatrix in="SourceAlpha" type="matrix" values="0 0 0 0 0 0 0 0 0 0 0 0 0 0 0 0 0 0 127 0" result="hardAlpha"/>
<feMorphology radius="4" operator="dilate" in="SourceAlpha" result="effect1_dropShadow_755_5224"/>
<feOffset dy="4"/>
<feGaussianBlur stdDeviation="3"/>
<feComposite in2="hardAlpha" operator="out"/>
<feColorMatrix type="matrix" values="0 0 0 0 0 0 0 0 0 0 0 0 0 0 0 0 0 0 0.08 0"/>
<feBlend mode="normal" in2="BackgroundImageFix" result="effect1_dropShadow_755_5224"/>
<feBlend mode="normal" in="SourceGraphic" in2="effect1_dropShadow_755_5224" result="shape"/>
</filter>
<filter id="filter14_d_755_5224" x="286" y="82" width="155" height="57" filterUnits="userSpaceOnUse" color-interpolation-filters="sRGB">
<feFlood flood-opacity="0" result="BackgroundImageFix"/>
<feColorMatrix in="SourceAlpha" type="matrix" values="0 0 0 0 0 0 0 0 0 0 0 0 0 0 0 0 0 0 127 0" result="hardAlpha"/>
<feMorphology radius="4" operator="dilate" in="SourceAlpha" result="effect1_dropShadow_755_5224"/>
<feOffset dy="4"/>
<feGaussianBlur stdDeviation="3"/>
<feComposite in2="hardAlpha" operator="out"/>
<feColorMatrix type="matrix" values="0 0 0 0 0 0 0 0 0 0 0 0 0 0 0 0 0 0 0.08 0"/>
<feBlend mode="normal" in2="BackgroundImageFix" result="effect1_dropShadow_755_5224"/>
<feBlend mode="normal" in="SourceGraphic" in2="effect1_dropShadow_755_5224" result="shape"/>
</filter>
<linearGradient id="paint0_linear_755_5224" x1="154.5" y1="238.5" x2="340.5" y2="73" gradientUnits="userSpaceOnUse">
<stop stop-color="#F4F4F4"/>
<stop offset="1" stop-color="#E8E8E8"/>
</linearGradient>
</defs>
</svg>
