<svg width="1507" height="180" viewBox="0 0 1507 180" fill="none" xmlns="http://www.w3.org/2000/svg">
<mask id="mask0_1522_484" style="mask-type:alpha" maskUnits="userSpaceOnUse" x="0" y="0" width="1507" height="180">
<path d="M0 20C0 8.9543 8.9543 0 20 0H1487C1498.05 0 1507 8.95431 1507 20V180H0V20Z" fill="#D9D9D9"/>
</mask>
<g mask="url(#mask0_1522_484)">
<rect x="-1276.76" width="4305.71" height="800" fill="#FBBC04" fill-opacity="0.04"/>
<g opacity="0.4">
<path d="M0.0775728 49.4033C0.0775728 47.0168 -2.22697 45.0659 -5.09207 45.0659C-7.93641 45.0659 -10.2617 47.0168 -10.2617 49.4033C-10.2617 51.8071 -7.93641 53.758 -5.09207 53.758C-2.22697 53.758 0.0775728 51.8071 0.0775728 49.4033Z" fill="#FBBC04"/>
<path d="M64.6967 16.8168C64.6967 14.4256 62.3922 12.4707 59.5271 12.4707C56.6827 12.4707 54.3574 14.4256 54.3574 16.8168C54.3574 19.2079 56.6827 21.1628 59.5271 21.1628C62.3922 21.1628 64.6967 19.2079 64.6967 16.8168Z" fill="#FBBC04"/>
<path d="M0.0775728 112.43C0.0775728 110.038 -2.22697 108.083 -5.09207 108.083C-7.93641 108.083 -10.2617 110.038 -10.2617 112.43C-10.2617 114.821 -7.93641 116.776 -5.09207 116.776C-2.22697 116.776 0.0775728 114.821 0.0775728 112.43Z" fill="#FBBC04"/>
<path d="M64.6967 79.8343C64.6967 77.4257 62.3922 75.4883 59.5271 75.4883C56.6827 75.4883 54.3574 77.4257 54.3574 79.8343C54.3574 82.2255 56.6827 84.1804 59.5271 84.1804C62.3922 84.1804 64.6967 82.2255 64.6967 79.8343Z" fill="#FBBC04"/>
<path d="M129.315 49.4033C129.315 47.0168 126.994 45.0659 124.135 45.0659C121.296 45.0659 118.976 47.0168 118.976 49.4033C118.976 51.8071 121.296 53.758 124.135 53.758C126.994 53.758 129.315 51.8071 129.315 49.4033Z" fill="#FBBC04"/>
<path d="M64.6967 145.025C64.6967 142.634 62.3922 140.679 59.5271 140.679C56.6827 140.679 54.3574 142.634 54.3574 145.025C54.3574 147.434 56.6827 149.371 59.5271 149.371C62.3922 149.371 64.6967 147.434 64.6967 145.025Z" fill="#FBBC04"/>
<path d="M129.315 112.43C129.315 110.038 126.994 108.083 124.135 108.083C121.296 108.083 118.976 110.038 118.976 112.43C118.976 114.821 121.296 116.776 124.135 116.776C126.994 116.776 129.315 114.821 129.315 112.43Z" fill="#FBBC04"/>
<path d="M129.315 177.628C129.315 175.224 126.994 173.273 124.135 173.273C121.296 173.273 118.976 175.224 118.976 177.628C118.976 180.015 121.296 181.966 124.135 181.966C126.994 181.966 129.315 180.015 129.315 177.628Z" fill="#FBBC04"/>
<path d="M0.0775728 177.628C0.0775728 175.224 -2.22697 173.273 -5.09207 173.273C-7.93641 173.273 -10.2617 175.224 -10.2617 177.628C-10.2617 180.015 -7.93641 181.966 -5.09207 181.966C-2.22697 181.966 0.0775728 180.015 0.0775728 177.628Z" fill="#FBBC04"/>
<path d="M1244.95 16.8168C1244.95 14.4256 1242.63 12.4707 1239.8 12.4707C1236.94 12.4707 1234.62 14.4256 1234.62 16.8168C1234.62 19.2079 1236.94 21.1628 1239.8 21.1628C1242.63 21.1628 1244.95 19.2079 1244.95 16.8168Z" fill="#FBBC04"/>
<path d="M1309.57 49.4033C1309.57 47.0168 1307.25 45.0659 1304.4 45.0659C1301.54 45.0659 1299.23 47.0168 1299.23 49.4033C1299.23 51.8071 1301.54 53.758 1304.4 53.758C1307.25 53.758 1309.57 51.8071 1309.57 49.4033Z" fill="#FBBC04"/>
<path d="M1371.61 16.8168C1371.61 14.4256 1369.29 12.4707 1366.44 12.4707C1363.58 12.4707 1361.27 14.4256 1361.27 16.8168C1361.27 19.2079 1363.58 21.1628 1366.44 21.1628C1369.29 21.1628 1371.61 19.2079 1371.61 16.8168Z" fill="#FBBC04"/>
<path d="M1371.61 79.8343C1371.61 77.4257 1369.29 75.4883 1366.44 75.4883C1363.58 75.4883 1361.27 77.4257 1361.27 79.8343C1361.27 82.2255 1363.58 84.1804 1366.44 84.1804C1369.29 84.1804 1371.61 82.2255 1371.61 79.8343Z" fill="#FBBC04"/>
<path d="M1441.4 49.4033C1441.4 47.0168 1439.09 45.0659 1436.23 45.0659C1433.38 45.0659 1431.06 47.0168 1431.06 49.4033C1431.06 51.8071 1433.38 53.758 1436.23 53.758C1439.09 53.758 1441.4 51.8071 1441.4 49.4033Z" fill="#FBBC04"/>
<path d="M1506.02 16.8168C1506.02 14.4256 1503.72 12.4707 1500.85 12.4707C1498.01 12.4707 1495.68 14.4256 1495.68 16.8168C1495.68 19.2079 1498.01 21.1628 1500.85 21.1628C1503.72 21.1628 1506.02 19.2079 1506.02 16.8168Z" fill="#FBBC04"/>
<path d="M1441.4 112.43C1441.4 110.038 1439.09 108.083 1436.23 108.083C1433.38 108.083 1431.06 110.038 1431.06 112.43C1431.06 114.821 1433.38 116.776 1436.23 116.776C1439.09 116.776 1441.4 114.821 1441.4 112.43Z" fill="#FBBC04"/>
<path d="M1506.02 79.8343C1506.02 77.4257 1503.72 75.4883 1500.85 75.4883C1498.01 75.4883 1495.68 77.4257 1495.68 79.8343C1495.68 82.2255 1498.01 84.1804 1500.85 84.1804C1503.72 84.1804 1506.02 82.2255 1506.02 79.8343Z" fill="#FBBC04"/>
<path d="M1506.02 145.025C1506.02 142.634 1503.72 140.679 1500.85 140.679C1498.01 140.679 1495.68 142.634 1495.68 145.025C1495.68 147.434 1498.01 149.371 1500.85 149.371C1503.72 149.371 1506.02 147.434 1506.02 145.025Z" fill="#FBBC04"/>
<path d="M784.859 177.628C784.859 175.224 782.554 173.273 779.689 173.273C776.845 173.273 774.52 175.224 774.52 177.628C774.52 180.015 776.845 181.966 779.689 181.966C782.554 181.966 784.859 180.015 784.859 177.628Z" fill="#FBBC04"/>
<path d="M852.058 145.025C852.058 142.634 849.754 140.679 846.888 140.679C844.044 140.679 841.719 142.634 841.719 145.025C841.719 147.434 844.044 149.371 846.888 149.371C849.754 149.371 852.058 147.434 852.058 145.025Z" fill="#FBBC04"/>
<path d="M914.098 112.43C914.098 110.038 911.777 108.083 908.918 108.083C906.079 108.083 903.759 110.038 903.759 112.43C903.759 114.821 906.079 116.776 908.918 116.776C911.777 116.776 914.098 114.821 914.098 112.43Z" fill="#FBBC04"/>
<path d="M978.716 79.8343C978.716 77.4257 976.391 75.4883 973.547 75.4883C970.681 75.4883 968.377 77.4257 968.377 79.8343C968.377 82.2255 970.681 84.1804 973.547 84.1804C976.391 84.1804 978.716 82.2255 978.716 79.8343Z" fill="#FBBC04"/>
<path d="M1048.51 49.4033C1048.51 47.0168 1046.2 45.0659 1043.34 45.0659C1040.49 45.0659 1038.17 47.0168 1038.17 49.4033C1038.17 51.8071 1040.49 53.758 1043.34 53.758C1046.2 53.758 1048.51 51.8071 1048.51 49.4033Z" fill="#FBBC04"/>
<path d="M1110.54 16.8168C1110.54 14.4256 1108.24 12.4707 1105.37 12.4707C1102.53 12.4707 1100.2 14.4256 1100.2 16.8168C1100.2 19.2079 1102.53 21.1628 1105.37 21.1628C1108.24 21.1628 1110.54 19.2079 1110.54 16.8168Z" fill="#FBBC04"/>
<path d="M914.098 177.628C914.098 175.224 911.777 173.273 908.918 173.273C906.079 173.273 903.759 175.224 903.759 177.628C903.759 180.015 906.079 181.966 908.918 181.966C911.777 181.966 914.098 180.015 914.098 177.628Z" fill="#FBBC04"/>
<path d="M978.716 145.025C978.716 142.634 976.391 140.679 973.547 140.679C970.681 140.679 968.377 142.634 968.377 145.025C968.377 147.434 970.681 149.371 973.547 149.371C976.391 149.371 978.716 147.434 978.716 145.025Z" fill="#FBBC04"/>
<path d="M1048.51 112.43C1048.51 110.038 1046.2 108.083 1043.34 108.083C1040.49 108.083 1038.17 110.038 1038.17 112.43C1038.17 114.821 1040.49 116.776 1043.34 116.776C1046.2 116.776 1048.51 114.821 1048.51 112.43Z" fill="#FBBC04"/>
<path d="M1110.54 79.8343C1110.54 77.4257 1108.24 75.4883 1105.37 75.4883C1102.53 75.4883 1100.2 77.4257 1100.2 79.8343C1100.2 82.2255 1102.53 84.1804 1105.37 84.1804C1108.24 84.1804 1110.54 82.2255 1110.54 79.8343Z" fill="#FBBC04"/>
<path d="M1177.75 49.4033C1177.75 47.0168 1175.45 45.0659 1172.58 45.0659C1169.74 45.0659 1167.41 47.0168 1167.41 49.4033C1167.41 51.8071 1169.74 53.758 1172.58 53.758C1175.45 53.758 1177.75 51.8071 1177.75 49.4033Z" fill="#FBBC04"/>
<path d="M1048.51 177.628C1048.51 175.224 1046.2 173.273 1043.34 173.273C1040.49 173.273 1038.17 175.224 1038.17 177.628C1038.17 180.015 1040.49 181.966 1043.34 181.966C1046.2 181.966 1048.51 180.015 1048.51 177.628Z" fill="#FBBC04"/>
<path d="M1110.54 145.025C1110.54 142.634 1108.24 140.679 1105.37 140.679C1102.51 140.679 1100.2 142.634 1100.2 145.025C1100.2 147.434 1102.51 149.371 1105.37 149.371C1108.24 149.371 1110.54 147.434 1110.54 145.025Z" fill="#FBBC04"/>
<path d="M1177.75 112.43C1177.75 110.038 1175.45 108.083 1172.58 108.083C1169.74 108.083 1167.41 110.038 1167.41 112.43C1167.41 114.821 1169.74 116.776 1172.58 116.776C1175.45 116.776 1177.75 114.821 1177.75 112.43Z" fill="#FBBC04"/>
<path d="M1244.95 79.8343C1244.95 77.4257 1242.63 75.4883 1239.8 75.4883C1236.94 75.4883 1234.62 77.4257 1234.62 79.8343C1234.62 82.2255 1236.94 84.1804 1239.8 84.1804C1242.63 84.1804 1244.95 82.2255 1244.95 79.8343Z" fill="#FBBC04"/>
<path d="M1177.75 177.628C1177.75 175.224 1175.45 173.273 1172.58 173.273C1169.74 173.273 1167.41 175.224 1167.41 177.628C1167.41 180.015 1169.74 181.966 1172.58 181.966C1175.45 181.966 1177.75 180.015 1177.75 177.628Z" fill="#FBBC04"/>
<path d="M1244.95 145.025C1244.95 142.634 1242.63 140.679 1239.8 140.679C1236.94 140.679 1234.62 142.634 1234.62 145.025C1234.62 147.434 1236.94 149.371 1239.8 149.371C1242.63 149.371 1244.95 147.434 1244.95 145.025Z" fill="#FBBC04"/>
<path d="M1309.57 112.43C1309.57 110.038 1307.25 108.083 1304.4 108.083C1301.54 108.083 1299.23 110.038 1299.23 112.43C1299.23 114.821 1301.54 116.776 1304.4 116.776C1307.25 116.776 1309.57 114.821 1309.57 112.43Z" fill="#FBBC04"/>
<path d="M1309.57 177.628C1309.57 175.224 1307.25 173.273 1304.4 173.273C1301.54 173.273 1299.23 175.224 1299.23 177.628C1299.23 180.015 1301.54 181.966 1304.4 181.966C1307.25 181.966 1309.57 180.015 1309.57 177.628Z" fill="#FBBC04"/>
<path d="M1371.61 145.025C1371.61 142.634 1369.29 140.679 1366.44 140.679C1363.58 140.679 1361.27 142.634 1361.27 145.025C1361.27 147.434 1363.58 149.371 1366.44 149.371C1369.29 149.371 1371.61 147.434 1371.61 145.025Z" fill="#FBBC04"/>
<path d="M1441.4 177.628C1441.4 175.224 1439.09 173.273 1436.23 173.273C1433.38 173.273 1431.06 175.224 1431.06 177.628C1431.06 180.015 1433.38 181.966 1436.23 181.966C1439.09 181.966 1441.4 180.015 1441.4 177.628Z" fill="#FBBC04"/>
<path d="M190.351 16.8168C190.351 14.4256 188.046 12.4707 185.181 12.4707C182.337 12.4707 180.012 14.4256 180.012 16.8168C180.012 19.2079 182.337 21.1628 185.181 21.1628C188.046 21.1628 190.351 19.2079 190.351 16.8168Z" fill="#FBBC04"/>
<path d="M257.558 49.4129C257.558 47.0217 255.233 45.0669 252.388 45.0669C249.523 45.0669 247.219 47.0217 247.219 49.4129C247.219 51.8216 249.523 53.759 252.388 53.759C255.233 53.759 257.558 51.8216 257.558 49.4129Z" fill="#FBBC04"/>
<path d="M322.176 16.8168C322.176 14.4256 319.851 12.4707 317.007 12.4707C314.141 12.4707 311.837 14.4256 311.837 16.8168C311.837 19.2079 314.141 21.1628 317.007 21.1628C319.851 21.1628 322.176 19.2079 322.176 16.8168Z" fill="#FBBC04"/>
<path d="M322.176 79.8343C322.176 77.4257 319.851 75.4883 317.007 75.4883C314.141 75.4883 311.837 77.4257 311.837 79.8343C311.837 82.2255 314.141 84.1804 317.007 84.1804C319.851 84.1804 322.176 82.2255 322.176 79.8343Z" fill="#FBBC04"/>
<path d="M389.38 49.412C389.38 47.0208 387.055 45.0659 384.211 45.0659C381.366 45.0659 379.041 47.0208 379.041 49.412C379.041 51.8206 381.366 53.758 384.211 53.758C387.055 53.758 389.38 51.8206 389.38 49.412Z" fill="#FBBC04"/>
<path d="M456.587 16.8168C456.587 14.4256 454.283 12.4707 451.418 12.4707C448.573 12.4707 446.248 14.4256 446.248 16.8168C446.248 19.2079 448.573 21.1628 451.418 21.1628C454.283 21.1628 456.587 19.2079 456.587 16.8168Z" fill="#FBBC04"/>
<path d="M389.38 112.43C389.38 110.038 387.055 108.083 384.211 108.083C381.366 108.083 379.041 110.038 379.041 112.43C379.041 114.821 381.366 116.776 384.211 116.776C387.055 116.776 389.38 114.821 389.38 112.43Z" fill="#FBBC04"/>
<path d="M456.587 79.8343C456.587 77.4257 454.283 75.4883 451.418 75.4883C448.573 75.4883 446.248 77.4257 446.248 79.8343C446.248 82.2255 448.573 84.1804 451.418 84.1804C454.283 84.1804 456.587 82.2255 456.587 79.8343Z" fill="#FBBC04"/>
<path d="M518.622 49.412C518.622 47.0208 516.318 45.0659 513.453 45.0659C510.609 45.0659 508.283 47.0208 508.283 49.412C508.283 51.8206 510.609 53.758 513.453 53.758C516.318 53.758 518.622 51.8206 518.622 49.412Z" fill="#FBBC04"/>
<path d="M583.239 16.8168C583.239 14.4256 580.918 12.4707 578.079 12.4707C575.22 12.4707 572.899 14.4256 572.899 16.8168C572.899 19.2079 575.22 21.1628 578.079 21.1628C580.918 21.1628 583.239 19.2079 583.239 16.8168Z" fill="#FBBC04"/>
<path d="M456.587 145.025C456.587 142.634 454.283 140.679 451.418 140.679C448.573 140.679 446.248 142.634 446.248 145.025C446.248 147.434 448.573 149.371 451.418 149.371C454.283 149.371 456.587 147.434 456.587 145.025Z" fill="#FBBC04"/>
<path d="M518.622 112.43C518.622 110.038 516.318 108.083 513.453 108.083C510.609 108.083 508.283 110.038 508.283 112.43C508.283 114.821 510.609 116.776 513.453 116.776C516.318 116.776 518.622 114.821 518.622 112.43Z" fill="#FBBC04"/>
<path d="M583.239 79.8343C583.239 77.4257 580.918 75.4883 578.079 75.4883C575.22 75.4883 572.899 77.4257 572.899 79.8343C572.899 82.2255 575.22 84.1804 578.079 84.1804C580.918 84.1804 583.239 82.2255 583.239 79.8343Z" fill="#FBBC04"/>
<path d="M650.445 49.412C650.445 47.0208 648.119 45.0659 645.275 45.0659C642.41 45.0659 640.105 47.0208 640.105 49.412C640.105 51.8206 642.41 53.758 645.275 53.758C648.119 53.758 650.445 51.8206 650.445 49.412Z" fill="#FBBC04"/>
<path d="M717.652 16.8168C717.652 14.4256 715.326 12.4707 712.482 12.4707C709.617 12.4707 707.312 14.4256 707.312 16.8168C707.312 19.2079 709.617 21.1628 712.482 21.1628C715.326 21.1628 717.652 19.2079 717.652 16.8168Z" fill="#FBBC04"/>
<path d="M518.622 177.628C518.622 175.224 516.318 173.273 513.453 173.273C510.609 173.273 508.283 175.224 508.283 177.628C508.283 180.015 510.609 181.966 513.453 181.966C516.318 181.966 518.622 180.015 518.622 177.628Z" fill="#FBBC04"/>
<path d="M583.239 145.025C583.239 142.634 580.918 140.679 578.079 140.679C575.22 140.679 572.899 142.634 572.899 145.025C572.899 147.434 575.22 149.371 578.079 149.371C580.918 149.371 583.239 147.434 583.239 145.025Z" fill="#FBBC04"/>
<path d="M650.445 112.43C650.445 110.038 648.119 108.083 645.275 108.083C642.41 108.083 640.105 110.038 640.105 112.43C640.105 114.821 642.41 116.776 645.275 116.776C648.119 116.776 650.445 114.821 650.445 112.43Z" fill="#FBBC04"/>
<path d="M717.652 79.8343C717.652 77.4257 715.326 75.4883 712.482 75.4883C709.617 75.4883 707.312 77.4257 707.312 79.8343C707.312 82.2255 709.617 84.1804 712.482 84.1804C715.326 84.1804 717.652 82.2255 717.652 79.8343Z" fill="#FBBC04"/>
<path d="M784.859 49.412C784.859 47.0208 782.554 45.0659 779.689 45.0659C776.845 45.0659 774.52 47.0208 774.52 49.412C774.52 51.8206 776.845 53.758 779.689 53.758C782.554 53.758 784.859 51.8206 784.859 49.412Z" fill="#FBBC04"/>
<path d="M852.058 16.8168C852.058 14.4256 849.754 12.4707 846.888 12.4707C844.044 12.4707 841.719 14.4256 841.719 16.8168C841.719 19.2079 844.044 21.1628 846.888 21.1628C849.754 21.1628 852.058 19.2079 852.058 16.8168Z" fill="#FBBC04"/>
<path d="M650.445 177.628C650.445 175.224 648.119 173.273 645.275 173.273C642.41 173.273 640.105 175.224 640.105 177.628C640.105 180.015 642.41 181.966 645.275 181.966C648.119 181.966 650.445 180.015 650.445 177.628Z" fill="#FBBC04"/>
<path d="M717.652 145.025C717.652 142.634 715.326 140.679 712.482 140.679C709.617 140.679 707.312 142.634 707.312 145.025C707.312 147.434 709.617 149.371 712.482 149.371C715.326 149.371 717.652 147.434 717.652 145.025Z" fill="#FBBC04"/>
<path d="M784.859 112.43C784.859 110.038 782.554 108.083 779.689 108.083C776.845 108.083 774.52 110.038 774.52 112.43C774.52 114.821 776.845 116.776 779.689 116.776C782.554 116.776 784.859 114.821 784.859 112.43Z" fill="#FBBC04"/>
<path d="M852.058 79.8343C852.058 77.4257 849.754 75.4883 846.888 75.4883C844.044 75.4883 841.719 77.4257 841.719 79.8343C841.719 82.2255 844.044 84.1804 846.888 84.1804C849.754 84.1804 852.058 82.2255 852.058 79.8343Z" fill="#FBBC04"/>
<path d="M914.098 49.412C914.098 47.0208 911.777 45.0659 908.918 45.0659C906.079 45.0659 903.759 47.0208 903.759 49.412C903.759 51.8206 906.079 53.758 908.918 53.758C911.777 53.758 914.098 51.8206 914.098 49.412Z" fill="#FBBC04"/>
<path d="M978.716 16.8168C978.716 14.4256 976.391 12.4707 973.547 12.4707C970.681 12.4707 968.377 14.4256 968.377 16.8168C968.377 19.2079 970.681 21.1628 973.547 21.1628C976.391 21.1628 978.716 19.2079 978.716 16.8168Z" fill="#FBBC04"/>
<path d="M190.351 79.8343C190.351 77.4257 188.046 75.4883 185.181 75.4883C182.337 75.4883 180.012 77.4257 180.012 79.8343C180.012 82.2255 182.337 84.1804 185.181 84.1804C188.046 84.1804 190.351 82.2255 190.351 79.8343Z" fill="#FBBC04"/>
<path d="M190.351 145.025C190.351 142.634 188.046 140.679 185.181 140.679C182.337 140.679 180.012 142.634 180.012 145.025C180.012 147.434 182.337 149.371 185.181 149.371C188.046 149.371 190.351 147.434 190.351 145.025Z" fill="#FBBC04"/>
<path d="M257.558 112.43C257.558 110.038 255.233 108.083 252.388 108.083C249.523 108.083 247.219 110.038 247.219 112.43C247.219 114.821 249.523 116.776 252.388 116.776C255.233 116.776 257.558 114.821 257.558 112.43Z" fill="#FBBC04"/>
<path d="M257.558 177.628C257.558 175.224 255.233 173.273 252.388 173.273C249.523 173.273 247.219 175.224 247.219 177.628C247.219 180.015 249.523 181.966 252.388 181.966C255.233 181.966 257.558 180.015 257.558 177.628Z" fill="#FBBC04"/>
<path d="M322.176 145.025C322.176 142.634 319.851 140.679 317.007 140.679C314.141 140.679 311.837 142.634 311.837 145.025C311.837 147.434 314.141 149.371 317.007 149.371C319.851 149.371 322.176 147.434 322.176 145.025Z" fill="#FBBC04"/>
<path d="M389.38 177.628C389.38 175.224 387.055 173.273 384.211 173.273C381.366 173.273 379.041 175.224 379.041 177.628C379.041 180.015 381.366 181.966 384.211 181.966C387.055 181.966 389.38 180.015 389.38 177.628Z" fill="#FBBC04"/>
</g>
</g>
</svg>
